<?xml version="1.0" standalone="no"?>
<!DOCTYPE svg PUBLIC "-//W3C//DTD SVG 1.1//EN" "http://www.w3.org/Graphics/SVG/1.1/DTD/svg11.dtd" >
<svg xmlns="http://www.w3.org/2000/svg">
<metadata>
This is a custom SVG webfont generated by Font Squirrel.
Copyright   : Copyright c Mrten Nettelbladt 2006 All rights reserved
Designer    : Mrten Nettelbladt
Foundry     : Mrten Nettelbladt
</metadata>
<defs>
<font id="webfont9ljUXjAw" horiz-adv-x="851" >
<font-face units-per-em="2048" ascent="1638" descent="-410" />
<missing-glyph horiz-adv-x="393" />
<glyph unicode=" "  horiz-adv-x="393" />
<glyph unicode="&#x09;" horiz-adv-x="393" />
<glyph unicode="&#xa0;" horiz-adv-x="393" />
<glyph unicode="!" horiz-adv-x="409" d="M119 78q0 35 25.5 60.5t60.5 25.5t60.5 -25.5t25.5 -60.5t-25.5 -60.5t-60.5 -25.5t-60.5 25.5t-25.5 60.5zM139 385v819q0 29 19.5 47.5t46.5 18.5q29 0 47 -18.5t18 -47.5v-819q0 -29 -18.5 -47.5t-46.5 -18.5q-27 0 -46.5 18.5t-19.5 47.5z" />
<glyph unicode="&#x22;" horiz-adv-x="720" d="M131 1040v205q0 29 18.5 47.5t47 18.5t47 -18.5t18.5 -47.5v-205q0 -29 -18.5 -47t-47 -18t-47 18t-18.5 47zM459 1040v205q0 29 18.5 47.5t47 18.5t47 -18.5t18.5 -47.5v-205q0 -29 -18.5 -47t-47 -18t-47 18t-18.5 47z" />
<glyph unicode="#" horiz-adv-x="937" d="M39 508q0 27 17.5 44t43.5 17h144v203h-144q-27 0 -44 18.5t-17 45t17.5 44t43.5 17.5h144v348q0 27 17.5 44.5t44 17.5t45 -17.5t18.5 -44.5v-348h202v348q0 27 17.5 44.5t44 17.5t45 -17.5t18.5 -44.5v-348h142q27 0 45 -17.5t18 -44t-18.5 -45t-44.5 -18.5h-142v-203 h142q27 0 45 -17t18 -44t-18.5 -45.5t-44.5 -18.5h-142v-387q0 -27 -18.5 -45t-45 -18t-44 18.5t-17.5 44.5v387h-202v-387q0 -27 -18.5 -45t-45 -18t-44 18.5t-17.5 44.5v387h-144q-27 0 -44 18.5t-17 45.5zM369 569h202v203h-202v-203z" />
<glyph unicode="$" d="M145.5 272.5q8.5 26.5 30.5 40.5q23 12 49.5 5t40.5 -29q39 -70 117 -82q4 -2 12 -2h15h2q61 0 108 41q59 49 60 129q-4 80 -64 127l-256 211q-106 88 -106 221q-4 139 102 225q51 45 123 62v106q0 29 18.5 47.5t46.5 18.5q27 0 46.5 -18.5t19.5 -47.5v-106 q125 -29 186 -138q12 -23 5 -49t-29.5 -40.5t-49 -6.5t-40.5 31q-35 66 -111 78q-4 2 -14 2h-13h-2q-57 0 -102 -39q-57 -49 -55 -123q0 -76 57 -121l258 -211q106 -82 111 -229q0 -139 -107 -230q-49 -43 -127 -65v-105q0 -29 -19.5 -47t-45.5 -18q-29 0 -47.5 18.5 t-18.5 46.5v107q-127 25 -194 141q-15 23 -6.5 49.5z" />
<glyph unicode="%" horiz-adv-x="1214" d="M78 1061q0 100 71.5 172t172 72t172 -72t71.5 -172t-71.5 -172t-172 -72t-172 71t-71.5 173zM197 1061q0 -53 35.5 -89t89 -36t89 36t35.5 89t-35.5 89t-89 36t-89 -36t-35.5 -89zM259 35.5q-9 25.5 3 50.5l574 1188q12 25 37.5 33t50.5 -2q25 -12 33 -38t-3 -50 l-573 -1188q-12 -25 -38 -34t-50.5 3t-33.5 37.5zM651 242q0 100 72 171.5t172 71.5t172 -71.5t72 -172t-72 -172t-172 -71.5t-172 71t-72 173zM770 241.5q0 -53.5 36 -89t89 -35.5t89 35.5t36 89t-36 89.5t-89 36t-89 -36t-36 -89.5z" />
<glyph unicode="&#x26;" horiz-adv-x="1009" d="M102 254q-20 131 62 240l164 213l-140 180l-2 2v2h-2v2q-41 63 -44 138t34 140q37 68 102.5 106t143.5 34q168 -10 235 -156q70 -150 -30 -281l-131 -167l155 -203l51 -68l64 105q14 25 40.5 31t49.5 -8.5t30 -40t-7 -50.5l-91 -147l162 -207q39 -53 -12 -92 q-23 -16 -49.5 -14.5t-42.5 24.5l-129 168l-37 -62q-68 -111 -201 -145q-127 -29 -241 47q-114 78 -134 209zM233 274q8 -70 76 -120q61 -43 140 -27q74 14 116 84l64 104l-84 109l-133 174l-144 -184q-47 -66 -35 -140zM289 1108q-39 -74 4 -143l119 -152l108 141 q53 70 16.5 146t-120.5 80t-127 -72z" />
<glyph unicode="'" horiz-adv-x="393" d="M131 1040v205q0 29 18.5 47.5t47.5 18.5q27 0 46 -18.5t19 -47.5v-205q0 -29 -19.5 -47t-45.5 -18q-29 0 -47.5 18t-18.5 47z" />
<glyph unicode="(" horiz-adv-x="548" d="M115 651q0 221 69 418q70 205 205 381q16 23 43 25t49 -15q51 -39 13 -92q-121 -154 -187 -342q-61 -182 -61 -374.5t61 -375.5q66 -188 187 -342q39 -53 -13 -92q-23 -16 -49 -14t-43 25q-137 172 -205 380q-69 197 -69 418z" />
<glyph unicode=")" horiz-adv-x="550" d="M55 -45q121 154 187 342q61 182 61 374.5t-61 375.5q-66 188 -187 342q-37 51 11 92q23 16 49 14t43 -25q135 -174 207 -380q70 -197 69.5 -418t-69.5 -418q-70 -207 -207 -381q-16 -23 -43 -25t-49 15q-48 41 -11 92z" />
<glyph unicode="*" d="M99 800.5q7 24.5 30 37.5l172 100l-172 100q-23 12 -30 37t7 47q12 23 37 30t47 -7l175 -98v198q0 27 17 44.5t44 17.5t45 -17.5t18 -44.5v-198l173 98q23 14 47 7t36 -30q14 -23 7 -47t-29 -37l-172 -100l172 -100q23 -12 30 -37t-8 -47q-12 -23 -36.5 -30t-46.5 7 l-173 98v-198q0 -27 -18 -45.5t-45 -18.5t-44 18.5t-17 45.5v198l-175 -98q-23 -14 -47 -7t-37 30q-14 22 -7 46.5z" />
<glyph unicode="+" d="M115 589.5q0 28.5 18.5 47t46.5 18.5h180v181q0 29 18.5 47t47.5 18q27 0 46.5 -18.5t19.5 -46.5v-181h180q27 0 46 -18.5t19 -47t-19.5 -47t-45.5 -18.5h-180v-180q0 -29 -19.5 -47t-46.5 -18q-29 0 -47.5 18t-18.5 47v180h-180q-29 0 -47 18.5t-18 47z" />
<glyph unicode="," horiz-adv-x="393" d="M102 98.5q0 26.5 17.5 44t44.5 17.5h65q27 0 45.5 -17.5t18.5 -44.5v-98q0 -51 -28.5 -93t-76.5 -63q-25 -10 -48 -0.5t-33.5 34t-1 48t33.5 33.5q29 10 29 41v35h-4q-27 0 -44.5 18.5t-17.5 45z" />
<glyph unicode="-" d="M115 589.5q0 28.5 18.5 47t46.5 18.5h492q27 0 46 -18.5t19 -47t-19.5 -47t-45.5 -18.5h-492q-29 0 -47 18.5t-18 47z" />
<glyph unicode="." horiz-adv-x="393" d="M111 78q0 35 25.5 60.5t60 25.5t60.5 -25.5t26 -60.5t-26 -60.5t-60.5 -25.5t-60 25.5t-25.5 60.5z" />
<glyph unicode="/" d="M119 -2l491 1352q10 25 35 37t49 2q27 -10 38 -34t1 -50l-491 -1352q-10 -27 -34 -38t-50 -1q-25 10 -37 34.5t-2 49.5z" />
<glyph unicode="0" d="M115 303v696q0 129 91 220.5t220 91.5q127 0 219 -91.5t92 -220.5v-696q0 -129 -92 -220t-219 -91q-129 0 -220 91t-91 220zM246 303q0 -76 52 -128t128 -52q74 0 127 52t53 128v696q0 74 -53 127.5t-127 53.5q-76 0 -128 -53.5t-52 -127.5v-696z" />
<glyph unicode="1" d="M164 999.5q0 24.5 18 47.5l246 245q29 29 72 15q41 -16 41 -62v-1188q0 -29 -19.5 -47t-46.5 -18q-29 0 -47 18.5t-18 46.5v1030l-136 -135q-18 -18 -45 -18q-25 0 -47 18q-18 23 -18 47.5z" />
<glyph unicode="2" d="M125 1106q-8 27 6 49q63 113 186 143q121 35 234 -26.5t147 -181.5q37 -121 -22 -236l-160 -305l-219 -418h350q27 0 46.5 -18.5t19.5 -47t-19.5 -47t-46.5 -18.5h-459q-41 0 -55 31q-20 33 -2 65l430 819q33 63 12 136q-23 74 -86 106q-66 35 -135 17q-72 -23 -106 -84 q-14 -23 -41 -31t-49.5 6t-30.5 41z" />
<glyph unicode="3" d="M96 196.5q8 26.5 31 41.5q23 12 49.5 5t40.5 -30q31 -53 87 -76.5t115.5 -7.5t96.5 64.5t37 109.5v123q0 74 -53.5 127t-126.5 53q-29 0 -47.5 18.5t-18.5 47t18.5 47t47.5 18.5q74 0 127 52.5t53 128.5v81q0 61 -37 109.5t-96.5 65t-115.5 -7t-87 -76.5 q-14 -23 -40.5 -31t-49.5 6t-31 41t6 49q55 92 151.5 133t199.5 12q104 -29 167.5 -111.5t63.5 -189.5v-81q0 -152 -121 -246q121 -94 121 -246v-123q0 -106 -63.5 -189t-167.5 -112q-102 -29 -200.5 12t-150.5 133q-14 23 -6 49.5z" />
<glyph unicode="4" d="M88 365l287 901q12 27 35.5 39t48.5 2q45 -14 45 -62q0 -12 -4 -20l-113 -357l-145 -458h254v221q0 29 18 47t47 18t47.5 -18.5t18.5 -46.5v-221h98q29 0 47.5 -18.5t18.5 -47.5t-18.5 -47t-47.5 -18h-98v-222q0 -29 -18.5 -47t-47.5 -18t-47 18.5t-18 46.5v222h-344 q-33 0 -54 26q-20 25 -10 60z" />
<glyph unicode="5" d="M145 651v586q0 29 18.5 47.5t47.5 18.5h426q29 0 47 -18.5t18 -47.5t-18 -47.5t-47 -18.5h-361v-368q106 57 228 26q104 -29 167.5 -111.5t63.5 -189.5v-225q0 -106 -63.5 -189t-167.5 -112q-102 -29 -200.5 12t-149.5 133q-12 23 -5 49.5t29 41.5q23 12 49.5 5t40.5 -30 q31 -53 87.5 -76.5t115.5 -7.5t96 64.5t37 109.5v225q0 61 -37 109.5t-96 65t-115.5 -7t-87.5 -77.5q-25 -45 -73 -30q-50 12 -50 63z" />
<glyph unicode="6" d="M133 303v696q0 106 64.5 189.5t167 112t198.5 -12.5t152 -133q14 -23 6 -49.5t-30.5 -40.5t-49.5 -6t-41 31q-29 53 -86 76.5t-116.5 7t-96.5 -64.5t-37 -110v-237q78 57 180 57q129 0 220.5 -91t91.5 -220v-205q0 -129 -91.5 -220t-220.5 -91t-220 91t-91 220zM264 303 q0 -76 53.5 -128t126.5 -52q76 0 128.5 52t52.5 128v205q0 74 -52.5 127t-128.5 53q-74 0 -127 -53t-53 -127v-205z" />
<glyph unicode="7" d="M109 1073v164q0 29 19 47.5t46 18.5h492q31 0 51 -25q23 -29 12 -57l-287 -1180q-6 -27 -28.5 -40t-48.5 -7q-51 10 -52 63q0 4 1 8.5t1 8.5l121 495q92 358 148 602h-344v-98q0 -29 -18.5 -47t-47.5 -18q-27 0 -46 18t-19 47z" />
<glyph unicode="8" d="M115 303v123q0 152 121 246q-121 94 -121 246v81q0 129 92 220.5t219 91.5q129 0 220 -91.5t91 -220.5v-81q0 -152 -119 -246q119 -94 119 -246v-123q0 -129 -91 -220t-220 -91q-127 0 -219 91t-92 220zM246 303q0 -76 53 -128t127 -52q76 0 128 52t52 128v123 q0 74 -52 127t-128 53q-74 0 -127 -53t-53 -127v-123zM246 918q0 -76 53 -128.5t127 -52.5q76 0 128 52.5t52 128.5v81q0 74 -52 127.5t-128 53.5q-74 0 -127 -53.5t-53 -127.5v-81z" />
<glyph unicode="9" d="M96 795v204q0 129 92.5 220.5t219.5 91.5q129 0 220 -91.5t91 -220.5v-696q0 -106 -63.5 -189t-166.5 -112q-104 -29 -200 12t-150 133q-14 23 -7 49.5t30 41.5q57 29 90 -25q31 -53 87 -76.5t115.5 -7.5t96.5 64.5t37 109.5v238q-76 -57 -180 -58q-127 0 -219.5 91.5 t-92.5 220.5zM227 795q0 -76 53.5 -128.5t127.5 -52.5q76 0 128 52.5t52 128.5v204q0 74 -52.5 127.5t-127.5 53.5q-74 0 -127.5 -53.5t-53.5 -127.5v-204z" />
<glyph unicode=":" horiz-adv-x="393" d="M111 78q0 35 25.5 60.5t60.5 25.5q37 0 61.5 -25.5t24.5 -60.5t-25 -60.5t-61 -25.5q-35 0 -60.5 25.5t-25.5 60.5zM111 856q0 35 25.5 60.5t60.5 25.5q37 0 61.5 -25.5t24.5 -60.5t-25 -60.5t-61 -25.5q-35 0 -60.5 25.5t-25.5 60.5z" />
<glyph unicode=";" horiz-adv-x="393" d="M102 98.5q0 26.5 17.5 44t44.5 17.5h65q27 0 45.5 -17.5t18.5 -44.5v-98q0 -51 -28.5 -93t-76.5 -63q-25 -10 -48 -0.5t-33.5 34t-1 48t33.5 33.5q29 10 29 41v35h-4q-27 0 -44.5 18.5t-17.5 45zM111 856q0 35 25.5 60.5t60 25.5t60.5 -25.5t26 -60.5t-26 -60.5 t-60.5 -25.5t-60 25.5t-25.5 60.5z" />
<glyph unicode="&#x3c;" d="M98 590q0 29 23 51l491 410q23 16 49.5 14t43 -24.5t16.5 -41.5q0 -29 -25 -51l-180 -149l-250 -209l250 -209l180 -150q25 -23 25 -51q0 -20 -16 -43q-16 -20 -43 -22t-50 14l-491 410q-23 18 -23 51z" />
<glyph unicode="=" d="M115 426q0 29 19.5 47.5t45.5 18.5h492q29 0 47 -18.5t18 -47.5t-18.5 -47.5t-46.5 -18.5h-492q-27 0 -46 18.5t-19 47.5zM115 753.5q0 28.5 19.5 47t45.5 18.5h492q29 0 47 -18.5t18 -47t-18.5 -47t-46.5 -18.5h-492q-27 0 -46 18.5t-19 47z" />
<glyph unicode="&#x3e;" d="M131 180.5q0 28.5 23 50.5l182 150l125 105l125 104l-125 103l-125 106l-182 149q-23 23 -23 51q0 27 14 41q18 23 45 25t48 -14l491 -410q25 -23 25 -51q0 -33 -25 -51l-491 -410q-20 -16 -47 -14t-46 22q-14 15 -14 43.5z" />
<glyph unicode="?" horiz-adv-x="731" d="M60.5 1106q-7.5 27 7.5 49q72 121 206 150q137 29 250 -58q113 -88 123 -225q10 -141 -90 -242l-102 -104q-53 -53 -54 -127v-164q0 -29 -18 -47.5t-47 -18.5q-27 0 -46.5 18.5t-19.5 47.5v164q0 125 90 219l105 104q57 57 51 140q-10 86 -70 131q-63 49 -145 32.5 t-121 -85.5q-14 -23 -39.5 -31t-50.5 6q-22 14 -29.5 41zM250 78q0 35 25.5 60.5t60.5 25.5t60.5 -25.5t25.5 -60.5t-25.5 -60.5t-60.5 -25.5t-60.5 25.5t-25.5 60.5z" />
<glyph unicode="@" horiz-adv-x="1564" d="M127 283v368q0 266 192 463q197 193 463 193q268 0 465 -193q190 -195 191 -463v-381q0 -111 -78 -188.5t-189 -77.5h-409q-109 0 -187.5 78t-78.5 188q0 109 78.5 188t187.5 79h143v139q0 90 -88 127t-155 -31q-20 -16 -45 -16t-44 18q-16 20 -16 43q0 27 18 43 q57 57 135 71.5t152 -13.5q76 -29 121 -95.5t45 -146.5v-549h143q59 0 101.5 42t42.5 101v381q0 219 -156 375q-152 158 -377 158q-223 0 -374 -158q-158 -152 -158 -375v-368q0 -225 158 -377q156 -156 374 -156h226q27 0 44 -18.5t17 -42.5q0 -27 -17.5 -44.5t-43.5 -17.5 h-226q-268 0 -463 191q-192 197 -192 465zM618 270.5q0 -59.5 42 -101.5t102 -42h143v287h-143q-59 0 -101.5 -42t-42.5 -101.5z" />
<glyph unicode="A" horiz-adv-x="884" d="M51 74l328 1188q12 49 63.5 49t63.5 -49l328 -1188q3 -10 3 -20q0 -16 -9 -29q-13 -23 -42 -31q-10 -3 -19 -3q-16 0 -30 8q-23 13 -30 40q-10 31 -19 67q-12 37 -47 173h-397q-12 -37 -26.5 -94.5t-20.5 -78.5q-8 -37 -19 -67q-15 -49 -57 -49q-11 0 -25 4q-27 8 -40 31 q-8 14 -8 29q0 10 3 20zM281 410h323l-162 589q-14 -48 -161 -589z" />
<glyph unicode="B" horiz-adv-x="876" d="M139 66v1171q0 29 18.5 47.5t47.5 18.5h246q129 0 220 -91.5t91 -220.5v-73q0 -152 -121 -246q121 -94 121 -246v-115q0 -129 -91 -220t-220 -91h-246q-29 0 -47.5 18.5t-18.5 47.5zM270 131h181q74 0 127 52.5t53 127.5v115q0 74 -53.5 127t-126.5 53h-181v-475z M270 737h181q74 0 127 52.5t53 128.5v73q0 74 -53.5 127t-126.5 53h-181v-434z" />
<glyph unicode="C" horiz-adv-x="788" d="M115 303v696q0 106 63.5 189.5t167.5 111.5q42 12 83 12q59 0 116 -24q96 -41 151 -133q8 -14 8 -30q0 -9 -3 -19q-7 -27 -29.5 -41t-49 -6t-40.5 31q-31 53 -87 76q-33 14 -68 14q-24 0 -48 -6q-59 -16 -96 -64.5t-37 -110.5v-696q0 -61 36.5 -109.5t96.5 -64.5 q24 -7 48 -7q34 0 68 14q56 24 87 77q14 23 40.5 30t49.5 -5q23 -14 29 -41q3 -10 3 -19q0 -16 -8 -31q-51 -92 -149 -133q-58 -24 -117 -24q-41 0 -84 12q-104 29 -167.5 112t-63.5 189z" />
<glyph unicode="D" horiz-adv-x="876" d="M139 66v1171q0 29 18.5 47.5t47.5 18.5h246q129 0 220 -91.5t91 -220.5v-680q0 -129 -91 -220t-220 -91h-246q-29 0 -47.5 18.5t-18.5 47.5zM270 131h181q76 0 128 52.5t52 127.5v680q0 74 -52.5 127t-127.5 53h-181v-1040z" />
<glyph unicode="E" horiz-adv-x="753" d="M139 66v1171q0 29 18.5 47.5t47.5 18.5h409q29 0 47.5 -18.5t18.5 -47.5t-18.5 -47.5t-47.5 -18.5h-344v-434h303q29 0 47.5 -18.5t18.5 -47t-18.5 -47t-47.5 -18.5h-303v-475h344q29 0 47.5 -18.5t18.5 -47t-18.5 -47t-47.5 -18.5h-409q-29 0 -47.5 18.5t-18.5 47.5z " />
<glyph unicode="F" horiz-adv-x="737" d="M139 66v1171q0 29 19.5 47.5t46.5 18.5h409q29 0 47.5 -18.5t18.5 -47.5t-18.5 -47.5t-47.5 -18.5h-344v-434h303q29 0 47.5 -18.5t18.5 -47t-18.5 -47t-47.5 -18.5h-303v-540q0 -29 -18.5 -47.5t-46.5 -18.5q-27 0 -46.5 18.5t-19.5 47.5z" />
<glyph unicode="G" horiz-adv-x="843" d="M115 303v696q0 106 64.5 189.5t166.5 111.5q42 12 83 12q59 0 116 -24q96 -41 151 -133q14 -23 7 -49.5t-31 -40.5q-23 -14 -49.5 -6t-40.5 31q-29 53 -85 76q-33 14 -68 14q-24 0 -48 -6q-59 -16 -97 -64.5t-38 -110.5v-696q0 -76 53 -128t127 -52q76 0 128 52t52 128 v262h-139q-27 0 -46.5 18.5t-19.5 47t19.5 47t46.5 18.5h205q29 0 47 -18.5t18 -46.5v-328q0 -129 -91 -220t-220 -91t-220 91t-91 220z" />
<glyph unicode="H" horiz-adv-x="901" d="M139 57v1188q0 29 19.5 47.5t46.5 18.5q29 0 47 -18.5t18 -47.5v-508h361v508q0 29 19.5 47.5t45.5 18.5q29 0 47.5 -18.5t18.5 -47.5v-1188q0 -29 -18.5 -47t-47.5 -18q-27 0 -46 18.5t-19 46.5v549h-361v-549q0 -29 -18.5 -47t-46.5 -18q-27 0 -46.5 18t-19.5 47z" />
<glyph unicode="I" horiz-adv-x="409" d="M139 57v1188q0 29 19.5 47.5t46.5 18.5q29 0 47 -18.5t18 -47.5v-1188q0 -29 -18.5 -47t-46.5 -18q-27 0 -46.5 18t-19.5 47z" />
<glyph unicode="J" horiz-adv-x="681" d="M52 74q-2 9 -2 17q0 17 9 32q14 23 40 31t51 -7q39 -25 88 -24.5t92 24.5q90 49 90 156v942q0 29 18.5 47.5t46.5 18.5q27 0 46.5 -18.5t19.5 -47.5v-942q0 -84 -42 -156.5t-113.5 -113.5t-155.5 -41t-156 41q-25 14 -32 41z" />
<glyph unicode="K" horiz-adv-x="862" d="M139 57v1188q0 29 19.5 47.5t46.5 18.5q29 0 47 -18.5t18 -47.5v-543l414 582q16 23 43 27q5 1 11 1q21 0 38 -14q23 -16 27 -43q1 -5 1 -10q0 -21 -13 -39l-318 -446l324 -674q7 -14 7 -28q0 -11 -4 -22q-9 -26 -34 -38q-14 -7 -28 -7q-11 0 -22 4q-26 9 -36 34 l-295 608l-115 -160v-420q0 -29 -18.5 -47t-46.5 -18q-27 0 -46.5 18t-19.5 47z" />
<glyph unicode="L" horiz-adv-x="712" d="M139 66v1179q0 29 18.5 47.5t47.5 18.5q27 0 46 -18.5t19 -47.5v-1114h344q27 0 46.5 -18.5t19.5 -47t-19.5 -47t-46.5 -18.5h-409q-29 0 -47.5 18.5t-18.5 47.5z" />
<glyph unicode="M" horiz-adv-x="1064" d="M139 57v1188q0 53 51 64q9 2 18 2q36 0 56 -37l105 -221l163 -351l164 351l105 221q20 37 56 37q8 0 17 -2q51 -10 52 -64v-1188q0 -29 -19.5 -47t-46.5 -18q-29 0 -47 18.5t-18 46.5v895l-138 -293l-65 -139q-23 -37 -60 -37q-45 0 -59 37l-65 139l-138 293v-895 q0 -29 -19.5 -47t-45.5 -18q-29 0 -47.5 18t-18.5 47z" />
<glyph unicode="N" horiz-adv-x="983" d="M139 57v1188q0 53 51 64q9 2 18 2q36 0 56 -37l166 -346l283 -584v901q0 29 18.5 47.5t47 18.5t47 -18.5t18.5 -47.5v-1188q0 -53 -51 -63q-10 -3 -19 -3q-34 0 -55 38l-168 346l-281 583v-901q0 -29 -18.5 -47t-47 -18t-47 18t-18.5 47z" />
<glyph unicode="O" d="M115 303v696q0 129 91 220.5t220 91.5t220 -91.5t91 -220.5v-696q0 -129 -91 -220t-220 -91t-220 91t-91 220zM246 303q0 -76 52 -128t128 -52q74 0 127 52t53 128v696q0 74 -53 127.5t-127 53.5q-76 0 -128 -53.5t-52 -127.5v-696z" />
<glyph unicode="P" horiz-adv-x="819" d="M139 57v1180q0 29 18.5 47.5t47.5 18.5h246q129 0 220 -91.5t91 -220.5v-114q0 -129 -91 -220.5t-220 -91.5h-181v-508q0 -29 -18.5 -47t-47 -18t-47 18t-18.5 47zM270 696h181q74 0 127 52.5t53 128.5v114q0 74 -53.5 127t-126.5 53h-181v-475z" />
<glyph unicode="Q" d="M115 303v696q0 129 91 220.5t220 91.5t220 -91.5t91 -220.5v-696q0 -139 -102 -231l94 -162q9 -14 9 -30q0 -9 -3 -19q-8 -27 -30 -41q-14 -8 -31 -8q-9 0 -19 3q-27 7 -41 29l-92 162q-53 -14 -96 -14q-129 0 -220 91t-91 220zM246 303q0 -76 53 -128t127 -52 q76 0 128 52t52 128v696q0 74 -52 127.5t-128 53.5q-74 0 -127 -53.5t-53 -127.5v-696z" />
<glyph unicode="R" d="M139 57v1180q0 29 19.5 47.5t46.5 18.5h246q129 0 220 -91.5t91 -220.5v-114q0 -96 -52.5 -175t-140.5 -114l189 -508q5 -12 5 -24q0 -13 -6 -25q-11 -25 -38 -35q-12 -5 -24 -5l-25 6q-25 11 -35 38l-197 530h-168v-508q0 -29 -18.5 -47t-46.5 -18q-27 0 -46.5 18 t-19.5 47zM270 696h181q76 0 128 52.5t52 128.5v114q0 74 -52.5 127t-127.5 53h-181v-475z" />
<glyph unicode="S" horiz-adv-x="782" d="M98 152q-10 20 -10 37q0 32 35 53q23 14 49.5 7t40.5 -32q43 -74 127 -90q21 -4 40 -4q61 0 112 39q70 51 75 137l2 23q0 70 -55 124l-328 336q-87 87 -87 209q0 15 1 31q10 137 123 225q84 65 183 65q33 0 67 -7q135 -29 207 -150q14 -23 7 -49.5t-32 -40.5 q-23 -14 -49 -6t-39 31q-39 70 -121 86q-20 4 -39 4q-58 0 -106 -37q-63 -45 -70 -129q-1 -8 0 -16q0 -70 50 -124l327 -337q91 -93 91 -222q0 -13 -1 -26q-12 -145 -127 -232q-88 -66 -190 -66q-33 0 -68 7q-141 29 -215 154z" />
<glyph unicode="T" horiz-adv-x="778" d="M57 1237q0 29 19.5 47.5t46.5 18.5h532q29 0 47.5 -18.5t18.5 -47.5t-18.5 -47.5t-47.5 -18.5h-200v-1114q0 -29 -18.5 -47t-47.5 -18q-27 0 -46 18.5t-19 46.5v1114h-201q-27 0 -46.5 18.5t-19.5 47.5z" />
<glyph unicode="U" horiz-adv-x="868" d="M123 303v942q0 29 18.5 47.5t46.5 18.5q27 0 46.5 -18.5t19.5 -47.5v-942q0 -76 52 -128t128 -52q74 0 127 52t53 128v942q0 29 18.5 47.5t47.5 18.5q27 0 46 -18.5t19 -47.5v-942q0 -129 -92 -220t-219 -91q-129 0 -220 91t-91 220z" />
<glyph unicode="V" horiz-adv-x="917" d="M70 1227q-3 10 -3 20q0 16 8 30q13 24 40 32q8 2 16 2q18 0 34 -9q24 -13 30 -40l102 -367q139 -508 164 -592l162 592l102 367q6 27 30 40q16 9 33 9q8 0 17 -2q27 -8 40 -32q8 -15 8 -30q0 -10 -3 -20l-328 -1188q-10 -47 -61 -47q-49 0 -64 47z" />
<glyph unicode="W" horiz-adv-x="1429" d="M78 1229q-2 9 -2 17q0 18 9 34q13 23 40 29t50.5 -7.5t29.5 -41.5q14 -68 44 -186t38 -156l141 -582l61 262q49 211 78 320l84 342q10 51 64 51q49 0 63 -51q14 -68 44 -186t38 -156l141 -582l62 262q49 211 78 320l84 342q6 29 28.5 42t49 7t40.5 -29q10 -16 11 -35 q0 -8 -2 -16l-287 -1188q-12 -49 -64 -49q-53 0 -63 49l-84 342q-29 109 -77 318.5t-62 265.5q-113 -455 -142 -584l-81 -342q-12 -49 -64 -49q-53 0 -63 49z" />
<glyph unicode="X" horiz-adv-x="864" d="M62 36q-4 11 -3 22q0 14 7 28l292 586l-272 545q-12 23 -3 49t34 39q13 6 26 5q11 0 23 -3q27 -8 39 -33l227 -455l227 455q12 25 38 33q11 4 23 3q14 0 28 -5q25 -12 32.5 -39t-2.5 -49l-272 -545l293 -586q6 -14 5 -28q0 -11 -3 -22q-8 -26 -33 -38q-14 -7 -28 -7 q-11 0 -22 4q-26 9 -38 34l-248 495l-248 -495q-12 -25 -39 -34q-11 -4 -22 -4q-14 0 -27 7q-25 12 -34 38z" />
<glyph unicode="Y" horiz-adv-x="823" d="M62 1266q9 27 34 39q13 6 27 5q11 0 22 -3q27 -8 39 -33l228 -455l227 455q12 25 38 33q11 4 22 3q14 0 28 -5q25 -12 34 -39q4 -11 4 -22q0 -14 -7 -27l-281 -562v-598q0 -29 -18.5 -47t-47 -18t-47 18.5t-18.5 46.5v598l-280 562q-7 13 -7 27q-1 11 3 22z" />
<glyph unicode="Z" horiz-adv-x="786" d="M82 65.5q0 12.5 6 24.5l201 481l252 600h-394q-29 0 -47 18.5t-18 47.5t18.5 47.5t46.5 18.5h492q37 0 55 -29q10 -25 11 -37q0 -4 -5 -25l-202 -483l-252 -598h393q29 0 47.5 -18.5t18.5 -47t-18.5 -47t-47.5 -18.5h-492q-37 0 -55 29q-10 24 -10 36.5z" />
<glyph unicode="[" horiz-adv-x="524" d="M139 -98v1499q0 29 18.5 47t47.5 18h205q29 0 47 -18t18 -47t-18.5 -47.5t-46.5 -18.5h-140v-1368h140q29 0 47 -18.5t18 -47t-18.5 -47t-46.5 -18.5h-205q-29 0 -47.5 18.5t-18.5 47.5z" />
<glyph unicode="\" d="M119 1305q-10 25 2 49t36.5 34.5t49 -2t35.5 -36.5l491 -1352q10 -27 -1 -50.5t-38 -33.5q-25 -10 -49 1t-35 38z" />
<glyph unicode="]" horiz-adv-x="524" d="M49 -98.5q0 28.5 18.5 47t47.5 18.5h139v1368h-139q-29 0 -47.5 18.5t-18.5 47.5t18.5 47t47.5 18h204q27 0 46.5 -18t19.5 -47v-1499q0 -29 -19.5 -47.5t-46.5 -18.5h-204q-29 0 -47.5 18.5t-18.5 47z" />
<glyph unicode="^" horiz-adv-x="1024" d="M124 872.5q-1 26.5 15 47.5l324 368q18 23 49 23t49 -23l324 -368q16 -20 15 -47t-21 -46q-51 -41 -95 7l-108 124l-164 187l-164 -187l-108 -124q-43 -47 -95 -7q-20 19 -21 45.5z" />
<glyph unicode="_" horiz-adv-x="1024" d="M-66 -229.5q0 28.5 18.5 47t47.5 18.5h1024q27 0 46.5 -18.5t19.5 -47t-19.5 -47t-46.5 -18.5h-1024q-29 0 -47.5 18.5t-18.5 47z" />
<glyph unicode="`" horiz-adv-x="1024" d="M345 1282q-1 27 15 47q18 20 46 22.5t49 -16.5l204 -184q20 -18 21.5 -45t-16.5 -47q-18 -23 -45 -24t-48 18l-204 184q-21 18 -22 45z" />
<glyph unicode="a" horiz-adv-x="720" d="M61 270.5q0 110.5 78 188.5t189 78h143v139q0 92 -86 129q-31 13 -59 13q-51 0 -93 -44q-18 -18 -45 -18q-25 0 -43 18.5t-18 42.5q0 27 18 43q57 57 136 73q26 5 51 5q51 0 100 -20q74 -31 118 -96.5t44 -145.5v-610q0 -27 -18.5 -44.5t-43.5 -17.5h-204q-111 0 -189 78 t-78 188.5zM184 270.5q0 -59.5 42 -101.5t102 -42h143v287h-143q-59 0 -101.5 -42t-42.5 -101.5z" />
<glyph unicode="b" horiz-adv-x="794" d="M143 66v1220q0 27 17.5 44.5t44.5 17.5q25 0 43 -17.5t18 -44.5v-356h144q109 0 187.5 -78t78.5 -188v-394q0 -111 -79 -188.5t-187 -77.5h-205q-27 0 -44.5 17.5t-17.5 44.5zM266 127h144q59 0 101 42t42 101v394q0 59 -42 101t-101 42h-144v-680z" />
<glyph unicode="c" d="M119 262v410q0 82 44 148.5t120 97.5q51 20 102 20q26 0 51 -5q78 -15 137 -73q16 -20 17 -45q0 -23 -17 -43q-20 -16 -45 -16q-23 0 -43 16q-43 46 -96 46q-28 0 -59 -13q-88 -37 -88 -133v-410q0 -96 88 -133q31 -13 59 -13q52 0 96 44q18 18 43 18q27 0 45 -18 q16 -16 17 -43q0 -23 -17 -43q-59 -57 -137 -73q-26 -5 -51 -5q-51 0 -102 20q-76 31 -120 97.5t-44 148.5z" />
<glyph unicode="d" horiz-adv-x="794" d="M119 270v394q0 111 77.5 188.5t188.5 77.5h143v356q0 27 17.5 44.5t44.5 17.5q25 0 43 -17.5t18 -44.5v-1220q0 -27 -18.5 -44.5t-42.5 -17.5h-205q-111 0 -188.5 77.5t-77.5 188.5zM242 270q0 -59 42 -101t101 -42h143v680h-143q-59 0 -101 -42t-42 -101v-394z" />
<glyph unicode="e" horiz-adv-x="753" d="M119 262v410q0 111 77.5 188.5t188.5 77.5t188.5 -78t77.5 -188v-205q0 -27 -17.5 -44t-43.5 -17h-348v-144q0 -96 88 -133q31 -13 59 -13q52 0 96 44q18 18 43 18q27 0 45 -18q18 -16 19 -43q0 -25 -19 -43q-57 -57 -136 -73q-26 -5 -52 -5q-52 0 -102 20 q-76 31 -120 97.5t-44 148.5zM242 528h286v144q0 59 -42 101t-101 42t-101 -42t-42 -101v-144z" />
<glyph unicode="f" horiz-adv-x="606" d="M53 868.5q0 26.5 17.5 44t44.5 17.5h102v151q0 111 78 189t188 78q27 0 44.5 -17.5t17.5 -44t-17.5 -44t-44.5 -17.5q-59 0 -101 -42t-42 -102v-151h143q27 0 44.5 -17.5t17.5 -44t-17.5 -44t-44.5 -17.5h-143v-750q0 -27 -17.5 -44t-44 -17t-44 17.5t-17.5 43.5v750 h-102q-27 0 -44.5 17.5t-17.5 44z" />
<glyph unicode="g" horiz-adv-x="786" d="M119 270v394q0 111 77.5 188.5t188.5 77.5h205q27 0 44 -17.5t17 -44.5v-1015q0 -82 -44 -148.5t-120 -97.5q-51 -20 -102 -21q-26 0 -51 5q-78 15 -137 73q-18 18 -19 45q0 25 19 41q18 18 43 19q27 0 45 -19q44 -44 96 -44q29 0 59 13q88 37 88 134v151h-143 q-111 0 -188.5 77.5t-77.5 188.5zM242 270q0 -59 42 -101t101 -42h143v680h-143q-59 0 -101 -42t-42 -101v-394z" />
<glyph unicode="h" horiz-adv-x="802" d="M143 57v1229q0 27 18.5 44.5t43.5 17.5q27 0 44 -17.5t17 -44.5v-356h144q111 0 188.5 -78t77.5 -188v-607q0 -27 -17.5 -44t-44.5 -17q-25 0 -43 17.5t-18 43.5v607q0 59 -42 101t-101 42h-144v-750q0 -27 -17.5 -44t-43.5 -17q-25 0 -43.5 17t-18.5 44z" />
<glyph unicode="i" horiz-adv-x="409" d="M123 1184q0 35 23.5 58.5t58.5 23.5t58.5 -23.5t23.5 -58.5t-23.5 -58.5t-58.5 -23.5t-58.5 23.5t-23.5 58.5zM143 57v820q0 27 18.5 44t43.5 17q27 0 44 -17.5t17 -43.5v-820q0 -27 -17.5 -44t-43.5 -17q-25 0 -43.5 17t-18.5 44z" />
<glyph unicode="j" horiz-adv-x="425" d="M-45 -352.5q0 26.5 18.5 44t42.5 17.5q59 0 101.5 42t42.5 102v1024q0 27 18.5 44t42.5 17q27 0 44.5 -17.5t17.5 -43.5v-1024q0 -111 -78 -189t-189 -78q-25 0 -43 17.5t-18 44zM139 1184q0 35 23.5 58.5t58.5 23.5t58.5 -23.5t23.5 -58.5t-23.5 -58.5t-58.5 -23.5 t-58.5 23.5t-23.5 58.5z" />
<glyph unicode="k" horiz-adv-x="778" d="M143 57v1229q0 27 17.5 44.5t44.5 17.5q25 0 43 -17.5t18 -44.5v-751l342 383q16 18 42 19t46 -15q20 -17 20 -45q0 -24 -16 -41l-249 -279l258 -471q10 -19 10 -34q0 -29 -35 -48q-15 -8 -31 -8q-8 0 -16 2q-25 6 -37 29l-235 432l-99 -109v-293q0 -27 -18.5 -44 t-42.5 -17q-27 0 -44.5 17t-17.5 44z" />
<glyph unicode="l" horiz-adv-x="409" d="M137 199v1087q0 27 18.5 44.5t43.5 17.5q27 0 44 -17.5t17 -44.5v-1087q0 -57 51 -88q23 -12 30 -37q2 -8 2 -16q0 -16 -9 -31q-12 -23 -37 -29q-8 -2 -16 -2q-16 0 -31 8q-113 68 -113 195z" />
<glyph unicode="m" horiz-adv-x="1212" d="M143 57v811q0 27 17.5 44.5t44.5 17.5h614q109 0 187.5 -78t78.5 -188v-607q0 -27 -18 -44t-43 -17q-27 0 -44 17.5t-17 43.5v607q0 59 -42 101t-102 42h-143v-750q0 -27 -18.5 -44t-43.5 -17q-27 0 -44 17.5t-17 43.5v750h-287v-750q0 -27 -18.5 -44t-42.5 -17 q-27 0 -44.5 17t-17.5 44z" />
<glyph unicode="n" horiz-adv-x="802" d="M143 57v811q0 27 17.5 44.5t44.5 17.5h205q109 0 187.5 -78t78.5 -188v-607q0 -27 -18.5 -44t-43.5 -17q-27 0 -44 17.5t-17 43.5v607q0 59 -42 101t-101 42h-144v-750q0 -27 -18.5 -44t-42.5 -17q-27 0 -44.5 17t-17.5 44z" />
<glyph unicode="o" horiz-adv-x="770" d="M119 262v410q0 111 77.5 188.5t188.5 77.5q109 0 187.5 -78t78.5 -188v-410q0 -111 -78.5 -188.5t-187.5 -77.5q-111 0 -188.5 77.5t-77.5 188.5zM242 262q0 -59 42 -101t101 -42t101 42t42 101v410q0 59 -42 101t-101 42t-101 -42t-42 -101v-410z" />
<glyph unicode="p" horiz-adv-x="794" d="M143 -352v1220q0 27 17.5 44.5t44.5 17.5h205q109 0 187.5 -78t78.5 -188v-394q0 -111 -79 -188.5t-187 -77.5h-144v-356q0 -27 -18.5 -44.5t-42.5 -17.5q-27 0 -44.5 17.5t-17.5 44.5zM266 127h144q59 0 101 42t42 101v394q0 59 -42 101t-101 42h-144v-680z" />
<glyph unicode="q" horiz-adv-x="794" d="M119 270v394q0 111 77.5 188.5t188.5 77.5h205q25 0 43 -17.5t18 -44.5v-1220q0 -27 -18.5 -44.5t-42.5 -17.5q-27 0 -44.5 17.5t-17.5 44.5v356h-143q-111 0 -188.5 77.5t-77.5 188.5zM242 270q0 -59 42 -101t101 -42h143v680h-143q-59 0 -101 -42t-42 -101v-394z" />
<glyph unicode="r" horiz-adv-x="612" d="M143 57v811q0 27 17.5 44.5t44.5 17.5h205q68 0 133 -35q33 -20 33 -49q0 -16 -11 -35q-12 -23 -36.5 -30t-47.5 7q-35 18 -71 19h-144v-750q0 -27 -17.5 -44t-44 -17t-44 17t-17.5 44z" />
<glyph unicode="s" horiz-adv-x="673" d="M98 170q6 25 29 37t47.5 6t36.5 -29q35 -55 94 -63q11 -2 23 -2q46 0 86 35q42 38 41 90v14q-4 61 -56 98l-190 136q-94 63 -105 184q-1 12 -1 23q0 101 81 173q71 66 164 67q19 0 39 -3q119 -23 176 -121q12 -23 6 -47.5t-28.5 -36.5t-47 -6t-36.5 29q-29 49 -88 59 q-12 2 -23 2q-45 0 -80 -33q-39 -36 -39 -88q0 -66 54 -102l190 -133q96 -72 107 -193q1 -12 1 -24q0 -105 -83 -179q-72 -68 -169 -68q-19 0 -40 3q-123 23 -183 125q-8 15 -8 31q0 8 2 16z" />
<glyph unicode="t" horiz-adv-x="606" d="M53 868.5q0 26.5 17.5 44t44.5 17.5h102v356q0 27 17.5 44.5t44 17.5t44 -17.5t17.5 -44.5v-356h143q27 0 44.5 -17.5t17.5 -44t-17.5 -44t-44.5 -17.5h-143v-545q0 -59 42 -101t101 -42q27 0 44.5 -17.5t17.5 -44t-17.5 -44t-44.5 -17.5q-111 0 -188.5 78t-77.5 188v545 h-102q-27 0 -44.5 17.5t-17.5 44z" />
<glyph unicode="u" horiz-adv-x="802" d="M127 270v607q0 27 17.5 44t44 17t44 -17.5t17.5 -43.5v-607q0 -59 42 -101t101 -42h144v750q0 27 17 44t44 17t44 -17.5t17 -43.5v-811q0 -27 -17 -44.5t-44 -17.5h-205q-111 0 -188.5 77.5t-77.5 188.5z" />
<glyph unicode="v" horiz-adv-x="757" d="M74 858q-2 8 -2 16q0 16 8 31q12 23 37 31q8 2 15 2l30 -8q23 -12 31 -35l67 -227l119 -398l119 398l67 227q8 23 31 35q15 8 31 8q8 0 16 -2q25 -8 37 -31q7 -14 7 -28q0 -10 -3 -19l-246 -819q-14 -43 -59 -43t-60 43z" />
<glyph unicode="w" horiz-adv-x="1101" d="M80 862q-2 8 -2 15q0 16 9 31q13 22 38 28t46.5 -7.5t27.5 -37.5l51 -201l50 -201l44 -178l30 120l36 143q16 65 30 116l49 201q16 47 60 47q49 0 59 -47l51 -201l51 -201l44 -178l29 120l36 143q16 65 31 116l49 201q6 25 27.5 38t48.5 7q25 -6 37 -28q8 -14 8 -30 q0 -8 -2 -16l-205 -819q-10 -47 -59 -47q-43 0 -60 47l-49 201l-96 379q-4 -18 -40 -165t-54 -214l-52 -201q-10 -47 -59 -47q-43 0 -59 47z" />
<glyph unicode="x" horiz-adv-x="737" d="M86 86l213 389l-205 371q-12 23 -5 47.5t30 36.5q14 8 29 8q9 0 18 -3q25 -7 37 -30l166 -303l168 303q12 23 36 30q9 3 18 3q15 0 30 -8q23 -12 29.5 -37t-5.5 -47l-205 -371l213 -389q10 -19 10 -34q0 -29 -34 -48q-15 -8 -31 -8q-8 0 -16 2q-25 6 -37 29l-176 319 l-174 -319q-12 -23 -37 -29q-8 -2 -16 -2q-16 0 -31 8q-35 19 -35 48q0 15 10 34z" />
<glyph unicode="y" horiz-adv-x="755" d="M41 -352.5q0 26.5 17.5 44t43.5 17.5q49 0 86 27.5t52 75.5l73 245l-239 801q-8 25 4 47.5t37 30.5q8 2 16 2q16 0 30 -8q22 -12 29 -35l187 -625l188 625q6 23 29 35q15 8 31 8q8 0 16 -2q25 -8 37 -31q7 -14 7 -28q0 -10 -3 -19l-246 -819l-78 -262q-27 -86 -96 -137 q-72 -53 -160 -54q-27 0 -44 17.5t-17 44z" />
<glyph unicode="z" horiz-adv-x="704" d="M86 66q0 12 6 28l154 303l211 410h-310q-27 0 -44 17.5t-17 44t17.5 44t43.5 17.5h410q35 0 51 -29q10 -16 10 -33q0 -14 -8 -28l-153 -303q-197 -383 -209 -410h309q25 0 43 -17.5t18 -44t-18 -44t-43 -17.5h-410q-37 0 -53 29q-8 15 -8 33z" />
<glyph unicode="{" horiz-adv-x="524" d="M33 671.5q0 28.5 18.5 47t46.5 18.5q41 0 70 29t29 70v409q0 94 67.5 162t161.5 68q29 0 47.5 -18.5t18.5 -47.5t-18.5 -47.5t-47.5 -18.5q-41 0 -69.5 -28.5t-28.5 -69.5v-409q0 -98 -70 -164q70 -66 70 -164v-451q0 -41 28.5 -69.5t69.5 -28.5q29 0 47.5 -18.5 t18.5 -47t-18.5 -47t-47.5 -18.5q-94 0 -161.5 67.5t-67.5 161.5v451q0 41 -29 69.5t-70 28.5q-29 0 -47 18.5t-18 47z" />
<glyph unicode="|" horiz-adv-x="425" d="M158 -352v2048q0 29 18.5 47t47 18t47 -18.5t18.5 -46.5v-2048q0 -29 -18.5 -47.5t-47 -18.5t-47 18.5t-18.5 47.5z" />
<glyph unicode="}" horiz-adv-x="524" d="M33 -106.5q0 28.5 18.5 47t46.5 18.5q41 0 70 28.5t29 69.5v451q0 98 67 164q-68 66 -67 164v409q0 41 -29 69.5t-70 28.5q-29 0 -47 18.5t-18 47.5t18.5 47.5t46.5 18.5q94 0 162 -68t68 -162v-409q0 -41 28.5 -70t69.5 -29q27 0 46.5 -18.5t19.5 -47t-19.5 -47 t-46.5 -18.5q-41 0 -69.5 -28.5t-28.5 -69.5v-451q0 -94 -67.5 -161.5t-162.5 -67.5q-29 0 -47 18.5t-18 47z" />
<glyph unicode="~" d="M98 530q59 92 164 107q100 23 191 -45l24 -19q39 -33 94 -22q51 8 80 53q31 49 86 17q51 -31 19 -86q-61 -90 -164 -107q-106 -18 -191 45l-24 19q-39 33 -94 22q-51 -8 -80 -53q-14 -23 -39 -28t-47 11q-52 31 -19 86z" />
<glyph unicode="&#xa1;" horiz-adv-x="409" d="M119 856q0 35 25.5 60.5t60.5 25.5t60.5 -25.5t25.5 -60.5t-25.5 -60.5t-60.5 -25.5t-60.5 25.5t-25.5 60.5zM139 -270v819q0 29 19.5 47t46.5 18q29 0 47 -18t18 -47v-819q0 -29 -18.5 -47.5t-46.5 -18.5q-27 0 -46.5 18.5t-19.5 47.5z" />
<glyph unicode="&#xa2;" d="M184 262v410q0 84 45 150.5t121 99.5q6 2 18.5 5t20.5 7v106q0 29 18.5 47.5t47.5 18.5q27 0 46 -18.5t19 -47.5v-106q84 -25 125 -72q18 -18 18.5 -44.5t-18.5 -47.5q-23 -18 -47 -18q-27 0 -45 18q-41 41 -96 41h-2h-2q-20 0 -52 -10q-86 -35 -86 -129v-410 q0 -94 86 -129q31 -10 52 -10h2h2q55 0 96 41q18 18 45 18q25 0 47 -18q18 -20 18.5 -47t-18.5 -45q-41 -47 -125 -72v-106q0 -29 -19.5 -47.5t-45.5 -18.5q-29 0 -47.5 18.5t-18.5 47.5v106q-20 2 -39 12q-76 33 -121 99.5t-45 150.5z" />
<glyph unicode="&#xa3;" d="M74 671.5q0 28.5 19.5 47t45.5 18.5h99v303q0 92 56 165t144 95q90 25 174 -10t131 -114q12 -23 5 -49.5t-29.5 -41t-49 -6.5t-40.5 31q-23 41 -67 59.5t-89 6.5q-47 -12 -75.5 -50.5t-28.5 -85.5v-303h180q29 0 47 -18.5t18 -47t-18 -47t-47 -18.5h-180v-309 q0 -88 -47 -166h391q29 0 47 -18.5t18 -47t-18.5 -47t-46.5 -18.5h-574q-53 0 -63 55q-10 53 43 72q53 20 86 66.5t33 103.5v309h-99q-27 0 -46 18.5t-19 47z" />
<glyph unicode="&#xa4;" d="M70 381q0 29 20 47l74 76q-49 76 -49 168t49 168l-74 75q-20 18 -20 46q0 29 20 47q18 18 45 18q29 0 47 -18l76 -74q76 49 168 49t168 -49l76 74q18 18 45 18q29 0 47 -18q20 -18 20 -47q0 -27 -20 -46l-74 -75q49 -76 49 -168t-49 -168l74 -76q20 -18 20 -47 q0 -27 -20 -45q-18 -20 -47 -21q-27 0 -45 21l-76 74q-76 -49 -168 -49.5t-168 49.5l-76 -74q-18 -20 -47 -21q-27 0 -45 21q-20 18 -20 45zM246 672q0 -76 52 -128t128 -52t128 52t52 128q0 74 -52 127t-128 53t-128 -53t-52 -127z" />
<glyph unicode="&#xa5;" d="M77 1265.5q9 26.5 34 39.5q23 10 49 1.5t39 -32.5l227 -455l227 455q12 25 38 33t50 -2q25 -12 33 -39t-2 -49l-240 -480h148q29 0 47 -18.5t18 -47t-18 -47t-47 -18.5h-188v-196h188q29 0 47 -18.5t18 -47.5t-18 -47t-47 -18h-188v-222q0 -29 -18.5 -47t-47.5 -18 t-47.5 18.5t-18.5 46.5v222h-172q-29 0 -47 18t-18 47t18.5 47.5t46.5 18.5h172v196h-172q-29 0 -47 18.5t-18 47t18.5 47t46.5 18.5h131l-239 480q-12 22 -3 48.5z" />
<glyph unicode="&#xa6;" horiz-adv-x="425" d="M147 -352v819q0 29 18.5 47t47.5 18t47.5 -18t18.5 -47v-819q0 -29 -18.5 -47.5t-47.5 -18.5t-47.5 18.5t-18.5 47.5zM147 877v819q0 29 18.5 47t47.5 18t47.5 -18.5t18.5 -46.5v-819q0 -29 -18.5 -47.5t-47.5 -18.5t-47.5 18.5t-18.5 47.5z" />
<glyph unicode="&#xa7;" d="M170 758q14 84 78 141q-57 66 -60 158q0 121 88 192q90 80 205 57.5t174 -120.5q14 -23 7 -49.5t-31 -40.5q-23 -14 -48.5 -6t-39.5 30q-29 49 -84 58q-53 10 -97 -27q-43 -33 -43 -92q2 -55 46 -90l229 -185q55 -43 79.5 -107.5t10.5 -131.5q-14 -78 -78 -142 q57 -66 58 -157q4 -119 -86 -193q-88 -76 -205 -57q-115 23 -174 121q-14 23 -7 49.5t31 40.5q23 12 48.5 5t39.5 -30q29 -49 84 -57q53 -10 97 27q45 37 40 92q0 55 -43 90l-229 182h-2q-117 99 -88 242zM297 735q-12 -72 43 -114l164 -132q41 29 51 78q14 70 -41 115 l-164 131q-43 -31 -53 -78z" />
<glyph unicode="&#xa8;" horiz-adv-x="1024" d="M262 1184q0 35 25.5 60.5t60.5 25.5t60.5 -25.5t25.5 -60.5t-25.5 -60.5t-60.5 -25.5t-60.5 25.5t-25.5 60.5zM590 1184q0 35 25.5 60.5t60.5 25.5t60.5 -25.5t25.5 -60.5t-25.5 -60.5t-60.5 -25.5t-60.5 25.5t-25.5 60.5z" />
<glyph unicode="&#xa9;" horiz-adv-x="1470" d="M80 651.5q0 272.5 192 464.5q190 190 463 191q274 0 465 -191q193 -193 193 -465t-192.5 -464.5t-465.5 -192.5q-270 0 -462.5 192.5t-192.5 465zM205 651q0 -221 155.5 -376.5t374.5 -155.5q221 0 377 155.5t156 376.5q0 219 -156 375t-377 156q-219 0 -374.5 -156 t-155.5 -375zM510 508v287q0 78 47 138t121 80.5t144.5 -10t109.5 -96.5q14 -23 7 -47t-30 -37q-23 -14 -47 -7t-39 30q-16 31 -49 44t-63 3q-76 -23 -76 -98v-287q0 -76 76 -98q31 -10 63.5 3t48.5 44q14 23 39 30t47 -8q23 -12 30 -36.5t-7 -47.5q-39 -68 -109.5 -97.5 t-144.5 -9t-121 81t-47 138.5z" />
<glyph unicode="&#xaa;" horiz-adv-x="624" d="M111 815q0 82 59 142.5t143 60.5h84v84q0 66 -61 82q-59 16 -96 -39q-27 -51 -80 -23q-23 12 -29 36t6 44q35 59 98.5 86t131.5 8q66 -16 107.5 -70.5t41.5 -123.5v-430q0 -25 -17.5 -42.5t-41.5 -17.5h-144q-86 0 -144 58.5t-58 144.5zM229 815q0 -35 25 -59.5t59 -24.5 h84v168h-84q-35 0 -59.5 -24.5t-24.5 -59.5z" />
<glyph unicode="&#xab;" horiz-adv-x="858" d="M106 565q-14 31 0 64l132 237q14 25 39.5 33t50.5 -6q33 -20 32 -57q0 -23 -8 -31l-47 -86q-51 -98 -65 -121q8 -14 32.5 -62.5t36.5 -68.5q4 -10 51 -92q8 -14 9 -31q0 -37 -33 -57q-25 -14 -50.5 -6t-39.5 32zM475 565q-14 31 0 64l131 237q14 25 40 33t50 -6 q33 -20 33 -57q0 -23 -8 -31l-47 -86q-51 -98 -66 -121q8 -14 33 -62.5t37 -68.5q6 -10 51 -92q8 -14 8 -31q0 -37 -32 -57q-25 -14 -50.5 -6t-40.5 32z" />
<glyph unicode="&#xac;" d="M115 589.5q0 28.5 19.5 47t45.5 18.5h492q29 0 47 -18.5t18 -46.5v-246q0 -29 -18.5 -47t-46.5 -18q-27 0 -46.5 18t-19.5 47v180h-426q-27 0 -46 18.5t-19 47z" />
<glyph unicode="&#xad;" d="M115 589.5q0 28.5 18.5 47t46.5 18.5h492q27 0 46 -18.5t19 -47t-19.5 -47t-45.5 -18.5h-492q-29 0 -47 18.5t-18 47z" />
<glyph unicode="&#xae;" horiz-adv-x="1470" d="M80 651.5q0 272.5 192 464.5q190 190 463 191q274 0 465 -191q193 -193 193 -465t-192.5 -464.5t-465.5 -192.5q-270 0 -462.5 192.5t-192.5 465zM205 651q0 -221 155.5 -376.5t374.5 -155.5q221 0 377 155.5t156 376.5q0 219 -156 375t-377 156q-219 0 -374.5 -156 t-155.5 -375zM530 344v606q0 27 18.5 44.5t43.5 17.5h164q92 0 159.5 -66.5t67.5 -159.5q0 -137 -127 -202l119 -209q29 -55 -23 -86q-23 -12 -48 -5t-38 29l-141 246h-70v-215q0 -27 -18.5 -45t-44.5 -18q-25 0 -43.5 18t-18.5 45zM655 684h101q43 0 72.5 30.5t29.5 71.5 t-29.5 71t-72.5 30h-101v-203z" />
<glyph unicode="&#xaf;" horiz-adv-x="1024" d="M-66 1532q0 29 18.5 47t47.5 18h1024q27 0 46.5 -18t19.5 -47t-19.5 -47.5t-46.5 -18.5h-1024q-29 0 -47.5 18.5t-18.5 47.5z" />
<glyph unicode="&#xb0;" horiz-adv-x="641" d="M78 1061q0 100 71.5 172t172 72t172 -72t71.5 -172t-71.5 -172t-172 -72t-172 71t-71.5 173zM197 1061q0 -53 35.5 -89t89 -36t89 36t35.5 89t-35.5 89t-89 36t-89 -36t-35.5 -89z" />
<glyph unicode="&#xb1;" d="M115 65.5q0 28.5 19.5 47t45.5 18.5h492q29 0 47 -18.5t18 -47t-18.5 -47t-46.5 -18.5h-492q-27 0 -46 18.5t-19 47zM115 589.5q0 28.5 19.5 47t45.5 18.5h180v181q0 29 19.5 47t46.5 18q29 0 47.5 -18.5t18.5 -46.5v-181h180q29 0 47 -18.5t18 -47t-18.5 -47 t-46.5 -18.5h-180v-180q0 -29 -18.5 -47t-47.5 -18q-27 0 -46.5 18t-19.5 47v180h-180q-27 0 -46 18.5t-19 47z" />
<glyph unicode="&#xb2;" horiz-adv-x="608" d="M111 641q0 14 10 29l246 387q20 27 10 63q-6 33 -39 54q-27 20 -64 10q-33 -8 -53 -39q-27 -51 -80 -23q-23 12 -29 36t7 44q43 76 125 96q84 18 155 -24q74 -39 93 -127q18 -84 -27 -154l-68 -108l-118 -187h159q25 0 42.5 -17t17.5 -42t-17.5 -42t-42.5 -17h-268 q-35 0 -51 30q-8 15 -8 31z" />
<glyph unicode="&#xb3;" horiz-adv-x="606" d="M110.5 717.5q6.5 23.5 28.5 36.5q53 29 80 -23q37 -55 96 -39q61 16 62 82v41q0 35 -24.5 59.5t-59.5 24.5q-25 0 -42.5 17.5t-17.5 42t17.5 42t42.5 17.5q45 0 74 41q23 43 0 86q-29 41 -74 41t-74 -41q-27 -51 -80 -23q-23 12 -29 36t7 44q63 102 176 103 q119 0 174 -103q29 -47 29 -100t-29 -101q-12 -25 -31 -43q59 -59 60 -143v-41q0 -70 -42 -124t-108 -70q-68 -18 -131 8t-98 86q-13 20 -6.5 43.5z" />
<glyph unicode="&#xb4;" horiz-adv-x="1024" d="M345 1106q1 27 22 45l204 184q20 18 47 16.5t45.5 -22t17.5 -47.5t-22 -45l-204 -184q-20 -18 -48 -17.5t-45 23.5q-18 20 -17 47z" />
<glyph unicode="&#xb5;" horiz-adv-x="819" d="M143 -352v1229q0 27 17.5 44t44 17t44 -17.5t17.5 -43.5v-615q0 -59 42 -101t101.5 -42t101.5 42t42 101v615q0 27 17.5 44t44 17t44 -17.5t17.5 -43.5v-820q0 -27 -17.5 -44t-44.5 -17q-45 0 -59 43q-63 -43 -145 -43q-78 0 -144 41v-389q0 -27 -17.5 -44.5t-44 -17.5 t-44 17.5t-17.5 44.5z" />
<glyph unicode="&#xb6;" horiz-adv-x="983" d="M70 991q0 127 90 217t217 90h512q27 0 45 -17t18 -44t-18.5 -45t-44.5 -18h-80v-1280q0 -27 -18.5 -45.5t-45 -18.5t-44 18.5t-17.5 45.5v1280h-162v-1280q0 -27 -18.5 -45.5t-45 -18.5t-44 18.5t-17.5 45.5v788h-20q-127 0 -217 91t-90 218zM195 991q0 -76 53 -130 t129 -54h20v367h-20q-76 0 -129 -53.5t-53 -129.5z" />
<glyph unicode="&#xb7;" horiz-adv-x="393" d="M111 794.5q0 34.5 25.5 60.5t60 26t60.5 -26t26 -60.5t-26 -60t-60.5 -25.5t-60 25.5t-25.5 60z" />
<glyph unicode="&#xb8;" horiz-adv-x="1024" d="M377 -244q-29 57 24 90q49 27 50 86v125q0 29 18 47.5t47 18.5t47.5 -18.5t18.5 -47.5v-125q0 -133 -115 -198q-23 -14 -49.5 -7.5t-40.5 29.5z" />
<glyph unicode="&#xb9;" horiz-adv-x="479" d="M55 1063q0 23 17 43l182 180q27 29 63 14q37 -14 37 -55v-614q0 -25 -17.5 -42.5t-42 -17.5t-41.5 17.5t-17 42.5v473l-56 -57q-12 -14 -24 -25q-20 -16 -43 -16q-25 0 -41.5 16t-16.5 41z" />
<glyph unicode="&#xba;" horiz-adv-x="624" d="M111 815v287q0 82 59 142.5t143 60.5q82 0 142.5 -60.5t60.5 -142.5v-287q0 -84 -60.5 -143.5t-142.5 -59.5q-86 0 -144 58.5t-58 144.5zM229 815q0 -35 25 -59.5t59.5 -24.5t59 24.5t24.5 59.5v287q0 35 -24.5 59.5t-59 24.5t-59.5 -24.5t-25 -59.5v-287z" />
<glyph unicode="&#xbb;" horiz-adv-x="858" d="M121 344q0 12 8 31q47 82 51 92q61 115 72 131q-25 39 -68 121l-47 86q-8 14 -8 31q0 39 35 57q23 14 49.5 6t38.5 -33l131 -237q18 -33 0 -64l-139 -252q-12 -25 -39 -33t-49 7q-35 18 -35 57zM489 344q0 12 9 31q47 82 51 92q61 115 72 131q-25 39 -68 121l-47 86 q-8 14 -8 31q0 39 34 57q23 14 49.5 6t39.5 -33l131 -237q18 -33 0 -64l-140 -252q-12 -25 -38.5 -33t-49.5 7q-35 18 -35 57z" />
<glyph unicode="&#xbc;" horiz-adv-x="1224" d="M55 1063q0 23 17 43l182 180q27 29 63 14q37 -14 37 -55v-614q0 -25 -17.5 -42.5t-42 -17.5t-41.5 17.5t-17 42.5v473l-56 -57q-12 -14 -24 -25q-20 -16 -43 -16q-25 0 -41.5 16t-16.5 41zM232.5 35.5q-9.5 25.5 3.5 50.5l573 1188q12 25 37.5 33t50.5 -2q25 -12 33 -38 t-2 -50l-574 -1188q-12 -25 -37.5 -34t-50 3t-34 37.5zM672 244l182 450q10 25 32.5 34t45.5 -1q37 -14 37 -55q0 -6 -4 -23l-60 -143l-92 -225h119v63q0 25 17.5 42t42 17t42 -17t17.5 -42v-63h47q25 0 42 -17.5t17 -42t-17.5 -42t-41.5 -17.5h-47v-105q0 -25 -17.5 -42 t-42 -17t-42 17.5t-17.5 41.5v105h-205q-35 0 -49 26q-18 29 -6 56z" />
<glyph unicode="&#xbd;" horiz-adv-x="1220" d="M55 1063q0 23 17 43l182 180q27 29 63 14q37 -14 37 -55v-614q0 -25 -17.5 -42.5t-42 -17.5t-41.5 17.5t-17 42.5v473l-56 -57q-12 -14 -24 -25q-20 -16 -43 -16q-25 0 -41.5 16t-16.5 41zM232.5 35.5q-9.5 25.5 3.5 50.5l573 1188q12 25 37.5 33t50.5 -2q25 -12 33 -38 t-2 -50l-574 -1188q-12 -25 -37.5 -34t-50 3t-34 37.5zM766 68q0 14 10 28l246 387q20 27 10 64q-6 33 -39 53q-27 20 -63 10q-33 -8 -53 -39q-27 -51 -80 -22q-23 12 -29 35.5t6 44.5q43 76 125 96q84 18 156 -25q74 -39 92 -127q18 -84 -27 -153l-67 -109l-119 -186h160 q25 0 42 -17.5t17 -42t-17.5 -42t-41.5 -17.5h-269q-35 0 -51 31q-8 15 -8 31z" />
<glyph unicode="&#xbe;" horiz-adv-x="1286" d="M72 717.5q6 23.5 28 36.5q53 29 80 -23q37 -55 96 -39q61 16 62 82v41q0 35 -24.5 59.5t-59.5 24.5q-25 0 -42 17.5t-17 42t17 42t42 17.5q45 0 74 41q20 43 0 86q-29 41 -74 41t-74 -41q-27 -51 -80 -23q-23 12 -28.5 36t6.5 44q63 102 176 103q119 0 174 -103 q29 -47 29 -100t-29 -101q-12 -25 -31 -43q59 -59 60 -143v-41q0 -70 -42 -124t-108 -70q-68 -18 -131 8t-98 86q-12 20 -6 43.5zM294 35.5q-9 25.5 3 50.5l573 1188q12 25 38 33t50 -2q25 -12 33 -38t-2 -50l-573 -1188q-12 -25 -38 -34t-50.5 3t-33.5 37.5zM733 244 l182 450q10 25 33 34t45 -1q37 -14 37 -55q0 -6 -4 -23l-59 -143l-93 -225h119v63q0 25 17.5 42t42 17t42 -17t17.5 -42v-63h47q25 0 42.5 -17.5t17.5 -42t-17.5 -42t-42.5 -17.5h-47v-105q0 -25 -17.5 -42t-42 -17t-42 17.5t-17.5 41.5v105h-205q-35 0 -49 26q-18 29 -6 56 z" />
<glyph unicode="&#xbf;" horiz-adv-x="731" d="M84 -88q-10 143 88 242l104 104q51 53 52 127v164q0 29 19.5 47t45.5 18q29 0 47.5 -18t18.5 -47v-164q0 -129 -90 -219l-103 -105q-57 -57 -51 -139q2 -80 70 -131q63 -49 145 -32.5t121 85.5q12 23 38.5 30t49.5 -5q25 -14 32 -41t-7 -49q-74 -125 -209 -150 q-137 -29 -250 58q-111 86 -121 225zM307 856q0 35 25.5 60.5t60.5 25.5t60.5 -25.5t25.5 -60.5t-25.5 -60.5t-60.5 -25.5t-60.5 25.5t-25.5 60.5z" />
<glyph unicode="&#xc0;" horiz-adv-x="884" d="M51 74l328 1188q12 49 63.5 49t63.5 -49l328 -1188q8 -27 -5.5 -49.5t-42.5 -30.5q-27 -8 -49 5t-30 40q-10 31 -19 67q-12 37 -47 173h-397q-12 -37 -26.5 -94.5t-20.5 -78.5q-8 -37 -19 -67q-18 -61 -82 -45q-27 8 -40 30.5t-5 49.5zM273 1691.5q-1 26.5 17.5 47 t45 22.5t47.5 -16l205 -184q20 -18 22 -45t-16 -48q-18 -23 -45 -23.5t-47 17.5l-205 185q-23 18 -24 44.5zM281 410h323l-162 589q-14 -48 -161 -589z" />
<glyph unicode="&#xc1;" horiz-adv-x="884" d="M51 74l328 1188q12 49 63.5 49t63.5 -49l328 -1188q8 -27 -5.5 -49.5t-42.5 -30.5q-27 -8 -49 5t-30 40q-10 31 -19 67q-12 37 -47 173h-397q-12 -37 -26.5 -94.5t-20.5 -78.5q-8 -37 -19 -67q-18 -61 -82 -45q-27 8 -40 30.5t-5 49.5zM273 1515.5q1 26.5 24 45.5 l205 184q20 18 46.5 16t45 -22.5t17.5 -47t-23 -44.5l-205 -185q-20 -18 -47 -17t-45 23q-19 21 -18 47.5zM281 410h323l-162 589q-14 -48 -161 -589z" />
<glyph unicode="&#xc2;" horiz-adv-x="884" d="M51 74l328 1188q12 49 63.5 49t63.5 -49l328 -1188q8 -27 -5.5 -49.5t-42.5 -30.5q-27 -8 -49 5t-30 40q-10 31 -19 67q-12 37 -47 173h-397q-12 -37 -26.5 -94.5t-20.5 -78.5q-8 -37 -19 -67q-18 -61 -82 -45q-27 8 -40 30.5t-5 49.5zM209 1473q-37 49 10 88l184 143 q14 14 39 14t39 -14l185 -143q47 -39 10 -88q-39 -47 -88 -11l-56 43l-48 37l-42 33l-42 -33l-48 -37l-55 -43q-20 -16 -46 -12.5t-42 23.5zM281 410h323l-162 589q-14 -48 -161 -589z" />
<glyph unicode="&#xc3;" horiz-adv-x="884" d="M51 74l328 1188q12 49 63.5 49t63.5 -49l328 -1188q8 -27 -5.5 -49.5t-42.5 -30.5q-27 -8 -49 5t-30 40q-10 31 -19 67q-12 37 -47 173h-397q-12 -37 -26.5 -94.5t-20.5 -78.5q-8 -37 -19 -67q-18 -61 -82 -45q-27 8 -40 30.5t-5 49.5zM207 1604q47 68 123 79 q80 12 143 -34l16 -13q23 -16 46 -10q27 4 41 26.5t38.5 28t47.5 -11.5q51 -31 18 -86q-45 -68 -123 -80t-143 35l-17 12q-23 12 -47 11q-23 -2 -39 -27q-39 -53 -88 -16q-49 31 -16 86zM281 410h323l-162 589q-14 -48 -161 -589z" />
<glyph unicode="&#xc4;" horiz-adv-x="884" d="M51 74l328 1188q12 49 63.5 49t63.5 -49l328 -1188q8 -27 -5.5 -49.5t-42.5 -30.5q-27 -8 -49 5t-30 40q-10 31 -19 67q-12 37 -47 173h-397q-12 -37 -26.5 -94.5t-20.5 -78.5q-8 -37 -19 -67q-18 -61 -82 -45q-27 8 -40 30.5t-5 49.5zM193 1593.5q0 34.5 25.5 60 t60 25.5t60.5 -25.5t26 -60t-26 -60.5t-60.5 -26t-60 26t-25.5 60.5zM281 410h323l-162 589q-14 -48 -161 -589zM520 1593.5q0 34.5 25.5 60t60.5 25.5t60.5 -25.5t25.5 -60t-25.5 -60.5t-60.5 -26t-60.5 26t-25.5 60.5z" />
<glyph unicode="&#xc5;" horiz-adv-x="884" d="M51 74l328 1188q12 49 63.5 49t63.5 -49l328 -1188q8 -27 -5.5 -49.5t-42.5 -30.5q-27 -8 -49 5t-30 40q-10 31 -19 67q-12 37 -47 173h-397q-12 -37 -26.5 -94.5t-20.5 -78.5q-8 -37 -19 -67q-18 -61 -82 -45q-27 8 -40 30.5t-5 49.5zM268 1614q0 72 51.5 123t122.5 51 q74 0 125 -51t51 -123t-51 -124t-124.5 -52t-124 51t-50.5 125zM281 410h323l-162 589q-14 -48 -161 -589zM373 1613.5q0 -28.5 20.5 -50t49 -21.5t50 21.5t21.5 50t-21.5 49t-50 20.5t-49 -20.5t-20.5 -49z" />
<glyph unicode="&#xc6;" horiz-adv-x="1263" d="M38 33.5q-9 25.5 1 50.5l528 1180q14 39 62 39h493q29 0 47.5 -18.5t18.5 -47.5t-18.5 -47.5t-47.5 -18.5h-344v-434h303q29 0 47.5 -18.5t18.5 -47t-18.5 -47t-47.5 -18.5h-303v-475h344q29 0 47.5 -18.5t18.5 -47t-18.5 -47t-47.5 -18.5h-409q-27 0 -46.5 18.5 t-19.5 47.5v213h-377l-80 -179q-20 -39 -30 -69q-12 -25 -38 -34t-50.5 1t-33.5 35.5zM330 410h317v712z" />
<glyph unicode="&#xc7;" horiz-adv-x="806" d="M115 303v696q0 106 63.5 189.5t165.5 112t198.5 -12.5t151.5 -133l21 -35q14 -25 7 -50.5t-32 -39.5q-23 -14 -48.5 -7t-39.5 32l-20 35q-31 53 -87.5 76.5t-116 7t-96 -64.5t-36.5 -110v-696q0 -61 36.5 -109.5t96 -64.5t116 7.5t87.5 76.5l20 35q14 25 40 32t48 -8 q25 -14 32 -39.5t-7 -50.5l-21 -35q-70 -119 -202 -149v-70q0 -131 -117 -198q-23 -14 -48.5 -7t-39.5 29q-14 25 -7 50.5t31 39.5q49 29 49 86v70q-2 2 -8 2t-8 2q-102 29 -165.5 112t-63.5 189z" />
<glyph unicode="&#xc8;" horiz-adv-x="753" d="M139 66v1171q0 29 18.5 47.5t47.5 18.5h409q27 0 46.5 -18.5t19.5 -47.5t-19.5 -47.5t-46.5 -18.5h-344v-434h303q27 0 46.5 -18.5t19.5 -47t-19.5 -47t-46.5 -18.5h-303v-475h344q27 0 46.5 -18.5t19.5 -47t-19.5 -47t-46.5 -18.5h-409q-29 0 -47.5 18.5t-18.5 47.5z M241 1691.5q-1 26.5 17 47t45 22.5t47 -16l205 -184q20 -18 21.5 -45t-17.5 -48q-16 -23 -44 -23.5t-48 17.5l-205 185q-20 18 -21 44.5z" />
<glyph unicode="&#xc9;" horiz-adv-x="753" d="M139 66v1171q0 29 18.5 47.5t47.5 18.5h409q27 0 46.5 -18.5t19.5 -47.5t-19.5 -47.5t-46.5 -18.5h-344v-434h303q27 0 46.5 -18.5t19.5 -47t-19.5 -47t-46.5 -18.5h-303v-475h344q27 0 46.5 -18.5t19.5 -47t-19.5 -47t-46.5 -18.5h-409q-29 0 -47.5 18.5t-18.5 47.5z M241 1515.5q1 26.5 21 45.5l205 184q20 18 48 16t44 -22q18 -20 17 -47t-21 -45l-205 -185q-20 -18 -47 -17t-45 23q-18 21 -17 47.5z" />
<glyph unicode="&#xca;" horiz-adv-x="753" d="M139 66v1171q0 29 18.5 47.5t47.5 18.5h409q27 0 46.5 -18.5t19.5 -47.5t-19.5 -47.5t-46.5 -18.5h-344v-434h303q27 0 46.5 -18.5t19.5 -47t-19.5 -47t-46.5 -18.5h-303v-475h344q27 0 46.5 -18.5t19.5 -47t-19.5 -47t-46.5 -18.5h-409q-29 0 -47.5 18.5t-18.5 47.5z M176 1473q-37 49 10 88l185 143q14 14 37 14q25 0 38 -14l185 -143q49 -37 12 -88q-16 -20 -42 -23.5t-46 12.5l-55 43q-49 35 -90 70l-93 -70l-55 -43q-20 -16 -45 -12.5t-41 23.5z" />
<glyph unicode="&#xcb;" horiz-adv-x="753" d="M139 66v1171q0 29 18.5 47.5t47.5 18.5h409q29 0 47.5 -18.5t18.5 -47.5t-18.5 -47.5t-47.5 -18.5h-344v-434h303q29 0 47.5 -18.5t18.5 -47t-18.5 -47t-47.5 -18.5h-303v-475h344q29 0 47.5 -18.5t18.5 -47t-18.5 -47t-47.5 -18.5h-409q-29 0 -47.5 18.5t-18.5 47.5z M160 1593.5q0 34.5 25.5 60t60.5 25.5t60.5 -25.5t25.5 -60t-25.5 -60.5t-60.5 -26t-60.5 26t-25.5 60.5zM487 1593.5q0 34.5 26 60t60.5 25.5t60 -25.5t25.5 -60t-25.5 -60.5t-60 -26t-60.5 26t-26 60.5z" />
<glyph unicode="&#xcc;" horiz-adv-x="409" d="M36 1691.5q-1 26.5 17.5 47t45 22.5t46.5 -16l205 -184q20 -18 22.5 -45t-16.5 -48q-18 -23 -44.5 -23.5t-47.5 17.5l-205 185q-22 18 -23 44.5zM139 57v1188q0 29 18.5 47.5t47 18.5t47 -18.5t18.5 -47.5v-1188q0 -29 -18.5 -47t-47 -18t-47 18t-18.5 47z" />
<glyph unicode="&#xcd;" horiz-adv-x="409" d="M36 1515.5q1 26.5 23 45.5l205 184q20 18 47 16t45.5 -22.5t16.5 -47t-23 -44.5l-205 -185q-20 -18 -46.5 -17t-45.5 23q-18 21 -17 47.5zM139 57v1188q0 29 18.5 47.5t47 18.5t47 -18.5t18.5 -47.5v-1188q0 -29 -18.5 -47t-47 -18t-47 18t-18.5 47z" />
<glyph unicode="&#xce;" horiz-adv-x="409" d="M-29 1473q-37 49 11 88l184 143q14 14 38.5 14t39.5 -14l184 -143q47 -39 10 -88q-39 -47 -88 -11l-55 43q-49 35 -90 70l-92 -70l-54 -43q-49 -36 -88 11zM139 57v1188q0 29 18.5 47.5t47 18.5t47 -18.5t18.5 -47.5v-1188q0 -29 -18.5 -47t-47 -18t-47 18t-18.5 47z" />
<glyph unicode="&#xcf;" horiz-adv-x="409" d="M-45 1593.5q0 34.5 25.5 60t60.5 25.5t60.5 -25.5t25.5 -60t-25.5 -60.5t-60.5 -26t-60.5 26t-25.5 60.5zM139 57v1188q0 29 18.5 47.5t47 18.5t47 -18.5t18.5 -47.5v-1188q0 -29 -18.5 -47t-47 -18t-47 18t-18.5 47zM283 1593.5q0 34.5 25.5 60t60 25.5t60.5 -25.5 t26 -60t-26 -60.5t-60.5 -26t-60 26t-25.5 60.5z" />
<glyph unicode="&#xd0;" horiz-adv-x="903" d="M6 671.5q0 26.5 18.5 44t43.5 17.5h98v504q0 29 19.5 47.5t45.5 18.5h246q129 0 220 -91.5t91 -220.5v-680q0 -129 -91 -220t-220 -91h-246q-27 0 -46 18.5t-19 47.5v542h-98q-25 0 -43.5 18.5t-18.5 45zM297 131h180q76 0 128 52.5t52 127.5v680q0 74 -52 127t-128 53 h-180v-438h139q27 0 45.5 -17.5t18.5 -44t-18.5 -45t-45.5 -18.5h-139v-477z" />
<glyph unicode="&#xd1;" horiz-adv-x="983" d="M139 57v1188q0 53 51 64q49 10 74 -35l168 -346l281 -584v901q0 29 19.5 47.5t45.5 18.5q29 0 47.5 -18.5t18.5 -47.5v-1188q0 -53 -51 -63q-47 -12 -74 35l-166 346l-283 583v-901q0 -29 -18.5 -47t-46.5 -18q-27 0 -46.5 18t-19.5 47zM245 1556.5q-5 24.5 11 47.5 q39 68 123 79q80 14 141 -34l17 -13q23 -16 47 -10q27 4 41 26.5t38.5 28t47.5 -11.5q51 -31 18 -86q-45 -68 -123 -80t-143 35l-17 12q-23 12 -47 11q-23 -2 -39 -27q-39 -53 -88 -16q-22 14 -27 38.5z" />
<glyph unicode="&#xd2;" d="M115 303v696q0 129 91 220.5t220 91.5t220 -91.5t91 -220.5v-696q0 -129 -91 -220t-220 -91t-220 91t-91 220zM246 303q0 -76 53 -128t127 -52q76 0 128 52t52 128v696q0 74 -52 127.5t-128 53.5q-74 0 -127 -53.5t-53 -127.5v-696zM259 1691.5q-1 26.5 15 47.5 q18 20 46 22t49 -16l204 -184q20 -18 21.5 -45t-16.5 -48q-18 -23 -45 -23.5t-48 17.5l-204 185q-21 18 -22 44.5z" />
<glyph unicode="&#xd3;" d="M115 303v696q0 129 92 220.5t219 91.5q129 0 220 -91.5t91 -220.5v-696q0 -129 -91 -220t-220 -91q-127 0 -219 91t-92 220zM246 303q0 -76 53 -128t127 -52q76 0 128 52t52 128v696q0 74 -52 127.5t-128 53.5q-74 0 -127 -53.5t-53 -127.5v-696zM259 1515.5 q1 26.5 22 45.5l204 184q20 18 47 16t45.5 -22.5t17.5 -47t-22 -44.5l-204 -185q-20 -18 -48 -17t-45 23q-18 21 -17 47.5z" />
<glyph unicode="&#xd4;" d="M115 303v696q0 129 92 220.5t219 91.5q129 0 220 -91.5t91 -220.5v-696q0 -129 -91 -220t-220 -91q-127 0 -219 91t-92 220zM193 1473q-37 51 12 88l184 143q14 14 37 14q25 0 39 -14l184 -143q49 -37 13 -88q-16 -20 -42 -23.5t-47 12.5l-55 43l-92 70l-42 -33l-48 -37 l-55 -43q-20 -16 -46 -12.5t-42 23.5zM246 303q0 -76 53 -128t127 -52q76 0 128 52t52 128v696q0 74 -52 127.5t-128 53.5q-74 0 -127 -53.5t-53 -127.5v-696z" />
<glyph unicode="&#xd5;" d="M115 303v696q0 129 91 220.5t220 91.5q127 0 219 -91.5t92 -220.5v-696q0 -129 -92 -220t-219 -91q-129 0 -220 91t-91 220zM188 1604q45 68 123 79q78 12 144 -34l16 -13q23 -16 47 -10q23 2 39 27q39 53 88 16q49 -31 17 -86q-47 -68 -123 -80q-80 -12 -144 35l-16 12 q-18 14 -45 10t-41 -26.5t-39 -27.5t-47 12q-52 31 -19 86zM246 303q0 -76 52 -128t128 -52q74 0 127 52t53 128v696q0 74 -53 127.5t-127 53.5q-76 0 -128 -53.5t-52 -127.5v-696z" />
<glyph unicode="&#xd6;" d="M115 303v696q0 129 91 220.5t220 91.5q127 0 219 -91.5t92 -220.5v-696q0 -129 -92 -220t-219 -91q-129 0 -220 91t-91 220zM176 1593.5q0 34.5 24.5 60t61.5 25.5q35 0 60.5 -25.5t25.5 -60t-25.5 -60.5t-60.5 -26q-37 0 -61.5 26t-24.5 60.5zM246 303q0 -76 52 -128 t128 -52q74 0 127 52t53 128v696q0 74 -53 127.5t-127 53.5q-76 0 -128 -53.5t-52 -127.5v-696zM504 1593.5q0 34.5 24.5 60t61.5 25.5q35 0 60.5 -25.5t25.5 -60t-25.5 -60.5t-60.5 -26q-37 0 -61.5 26t-24.5 60.5z" />
<glyph unicode="&#xd7;" d="M156 385q0 25 18 47l160 158l-160 158q-18 23 -18 47t18 47q23 18 47.5 18t46.5 -18l158 -160l158 160q23 18 47 18t47 -18q18 -23 18 -47.5t-18 -46.5l-160 -158l160 -158q18 -23 18 -47.5t-18 -46.5q-23 -18 -47.5 -18.5t-46.5 18.5l-158 160l-158 -160 q-20 -18 -47 -19q-25 0 -47 19q-18 22 -18 47z" />
<glyph unicode="&#xd8;" horiz-adv-x="872" d="M7 -42q-7 26 5 48l121 221q-8 31 -8 76v696q0 129 91 220.5t220 91.5q137 0 232 -105l82 152q12 23 36.5 30t47 -5.5t30.5 -38t-4 -48.5l-123 -221q10 -45 11 -76v-696q0 -129 -91.5 -220t-220.5 -91q-141 0 -231 104l-82 -151q-33 -53 -86 -25q-23 12 -30 38zM256 451 l342 628q-51 100 -162 101q-76 0 -128 -53.5t-52 -127.5v-548zM274 223q51 -100 162 -100q74 0 127 52t53 128v549z" />
<glyph unicode="&#xd9;" horiz-adv-x="868" d="M123 303v942q0 29 18.5 47.5t47 18.5t47 -18.5t18.5 -47.5v-942q0 -76 52 -128t128 -52q74 0 127 52t53 128v942q0 29 18.5 47.5t47.5 18.5t47 -18.5t18 -47.5v-942q0 -129 -91 -220t-220 -91t-220 91t-91 220zM265 1691.5q-1 26.5 17.5 47t45 22.5t47.5 -16l205 -184 q20 -18 21 -45t-15 -48q-39 -49 -94 -6l-205 185q-21 18 -22 44.5z" />
<glyph unicode="&#xda;" horiz-adv-x="868" d="M123 303v942q0 29 18.5 47.5t47 18.5t47 -18.5t18.5 -47.5v-942q0 -76 52 -128t128 -52q74 0 127 52t53 128v942q0 29 18.5 47.5t47.5 18.5t47 -18.5t18 -47.5v-942q0 -129 -91 -220t-220 -91t-220 91t-91 220zM265 1515.5q1 26.5 24 45.5l205 184q20 18 46.5 16 t45 -22.5t16.5 -47t-22 -44.5l-205 -185q-20 -18 -47 -17t-45 23q-19 21 -18 47.5z" />
<glyph unicode="&#xdb;" horiz-adv-x="868" d="M123 303v942q0 29 19.5 47.5t45.5 18.5q29 0 47.5 -18.5t18.5 -47.5v-942q0 -76 53 -128t127 -52q76 0 128 52t52 128v942q0 29 19.5 47.5t46.5 18.5q29 0 47 -18.5t18 -47.5v-942q0 -129 -91 -220t-220 -91q-127 0 -219 91t-92 220zM201 1473q-37 51 12 88l184 143 q14 14 37 14q25 0 39 -14l184 -143q47 -39 11 -88q-16 -20 -41 -23.5t-45 12.5l-56 43l-92 70l-42 -33l-48 -37l-55 -43q-20 -16 -46 -12.5t-42 23.5z" />
<glyph unicode="&#xdc;" horiz-adv-x="868" d="M123 303v942q0 29 19.5 47.5t45.5 18.5q29 0 47.5 -18.5t18.5 -47.5v-942q0 -76 53 -128t127 -52q76 0 128 52t52 128v942q0 29 19.5 47.5t46.5 18.5q29 0 47 -18.5t18 -47.5v-942q0 -129 -91 -220t-220 -91q-127 0 -219 91t-92 220zM184 1593.5q0 34.5 26 60t60 25.5 q37 0 61.5 -25.5t24.5 -60t-24.5 -60.5t-61.5 -26q-35 0 -60.5 26t-25.5 60.5zM512 1593.5q0 34.5 25.5 60t60.5 25.5q37 0 61.5 -25.5t24.5 -60t-24.5 -60.5t-61.5 -26q-35 0 -60.5 26t-25.5 60.5z" />
<glyph unicode="&#xdd;" horiz-adv-x="823" d="M63.5 1265.5q8.5 26.5 32.5 39.5q25 10 50.5 1.5t37.5 -32.5l228 -455l69 139l72 144q12 27 88 172q12 25 38 33t50 -2q23 -12 32 -39t-3 -49l-281 -562v-598q0 -29 -18.5 -47t-46.5 -18q-27 0 -46.5 18.5t-19.5 46.5v598l-278 562q-13 22 -4.5 48.5zM245 1515.5 q1 26.5 21 45.5l205 184q20 18 47 16t45.5 -22.5t17.5 -47t-22 -44.5l-205 -185q-55 -43 -94 6q-16 21 -15 47.5z" />
<glyph unicode="&#xde;" horiz-adv-x="819" d="M139 57v1180q0 29 18.5 47.5t47.5 18.5q27 0 46 -18.5t19 -47.5v-193h181q127 0 219 -91t92 -220v-123q0 -129 -92 -220t-219 -91h-181v-242q0 -29 -19.5 -47t-45.5 -18q-29 0 -47.5 18t-18.5 47zM270 430h181q74 0 127 52.5t53 127.5v123q0 74 -53.5 127t-126.5 53h-181 v-483z" />
<glyph unicode="&#xdf;" horiz-adv-x="876" d="M143 57v1024q0 74 38 137.5t104 98.5q139 76 272 -14q119 -80 119 -222q0 -20 -2 -26q-8 -92 -72 -158q156 -94 156 -266v-328q0 -127 -90 -217t-217 -90q-27 0 -44.5 17.5t-17.5 44t17.5 44t44.5 17.5q78 0 131 53t53 131v328q0 78 -53.5 131t-130.5 53q-51 0 -62 49 q-8 45 37 70l39 14q80 37 88 119t-64 133q-72 47 -147 8q-76 -43 -76 -127v-1024q0 -27 -18.5 -44t-42.5 -17q-27 0 -44.5 17t-17.5 44z" />
<glyph unicode="&#xe0;" horiz-adv-x="720" d="M61 270.5q0 110.5 78 188.5t189 78h143v139q0 92 -86 129q-88 37 -152 -31q-18 -18 -45 -18q-25 0 -43 18.5t-18 42.5q0 27 18 43q57 57 135 72.5t152 -15t118 -96t44 -145.5v-610q0 -27 -18.5 -44.5t-43.5 -17.5h-204q-111 0 -189 78t-78 188.5zM184 270.5 q0 -59.5 42 -101.5t102 -42h143v287h-143q-59 0 -101.5 -42t-42.5 -101.5zM204 1283q-1 26 15.5 44.5t42 19.5t45.5 -16l205 -184q18 -16 19 -42t-15 -44.5t-41.5 -19.5t-44.5 16l-205 184q-20 16 -21 42z" />
<glyph unicode="&#xe1;" horiz-adv-x="720" d="M61 270.5q0 110.5 78 188.5t189 78h143v139q0 92 -86 129q-88 37 -152 -31q-18 -18 -45 -18q-25 0 -43 18q-16 20 -16 43q0 27 16 43q57 57 135 72.5t152 -15t118 -96t44 -145.5v-610q0 -27 -18.5 -44.5t-43.5 -17.5h-204q-111 0 -189 78t-78 188.5zM184 270.5 q0 -59.5 42 -101.5t102 -42h143v287h-143q-59 0 -101.5 -42t-42.5 -101.5zM204 1104.5q1 25.5 21 42.5l205 184q18 16 44 15.5t42 -19t15 -44.5t-19 -42l-205 -184q-45 -39 -88 4q-16 18 -15 43.5z" />
<glyph unicode="&#xe2;" horiz-adv-x="720" d="M61 270.5q0 110.5 78 188.5t189 78h143v139q0 92 -86 129q-88 37 -152 -31q-18 -18 -45 -18q-25 0 -43 18q-16 20 -16 43q0 27 16 43q57 57 135 72.5t152 -15t118 -96t44 -145.5v-610q0 -27 -18.5 -44.5t-43.5 -17.5h-204q-111 0 -189 78t-78 188.5zM126 1109q3 24 21 38 l185 143q37 29 71 0l185 -143q20 -14 23 -38t-13 -44q-14 -18 -37.5 -21.5t-44.5 11.5l-55 45q-14 12 -47 36.5t-45 34.5l-93 -71q-2 -2 -23.5 -19.5t-33.5 -25.5q-43 -33 -82 10q-14 20 -11 44zM184 270.5q0 -59.5 42 -101.5t102 -42h143v287h-143q-59 0 -101.5 -42 t-42.5 -101.5z" />
<glyph unicode="&#xe3;" horiz-adv-x="720" d="M61 270.5q0 110.5 78 188.5t189 78h143v139q0 92 -86 129q-88 37 -152 -31q-18 -18 -45 -18q-25 0 -43 18q-16 20 -16 43q0 27 16 43q57 57 135 72.5t152 -15t118 -96t44 -145.5v-610q0 -27 -17.5 -44.5t-44.5 -17.5h-204q-111 0 -189 78t-78 188.5zM127 1147.5 q-4 23.5 8 44.5q47 66 121 78q78 12 139 -33l17 -12q23 -18 49 -13q29 4 43 29q14 20 37.5 24.5t44.5 -8.5q20 -14 24 -37.5t-8 -43.5q-47 -66 -121 -78q-78 -12 -139 32l-16 13q-23 16 -50 12q-29 -4 -43 -29q-14 -20 -37.5 -24t-43.5 8q-21 14 -25 37.5zM184 270.5 q0 -59.5 42 -101.5t102 -42h143v287h-143q-59 0 -101.5 -42t-42.5 -101.5z" />
<glyph unicode="&#xe4;" horiz-adv-x="720" d="M61 270.5q0 110.5 78 188.5t189 78h143v139q0 92 -86 129q-88 37 -152 -31q-18 -18 -45 -18q-25 0 -43 18q-16 20 -16 43q0 27 16 43q57 57 135 72.5t152 -15t118 -96t44 -145.5v-610q0 -27 -18.5 -44.5t-43.5 -17.5h-204q-111 0 -189 78t-78 188.5zM123 1184 q0 35 23.5 58.5t58.5 23.5t58.5 -23.5t23.5 -58.5t-23.5 -58.5t-58.5 -23.5t-58.5 23.5t-23.5 58.5zM184 270.5q0 -59.5 42 -101.5t102 -42h143v287h-143q-59 0 -101.5 -42t-42.5 -101.5zM451 1184q0 35 23.5 58.5t58 23.5t58 -23.5t23.5 -58.5t-23.5 -58.5t-58 -23.5 t-58 23.5t-23.5 58.5z" />
<glyph unicode="&#xe5;" horiz-adv-x="720" d="M61 270.5q0 110.5 78 188.5t189 78h143v139q0 94 -86 129q-39 16 -81 8t-71 -39q-18 -18 -45 -18q-25 0 -41 18q-18 18 -18 43q0 27 18 43q55 57 133 72.5t152 -15t118 -96t44 -145.5v-610q0 -27 -17.5 -44.5t-44.5 -17.5h-204q-111 0 -189 78t-78 188.5zM184 270.5 q0 -59.5 42 -101.5t102 -42h143v287h-143q-59 0 -101.5 -42t-42.5 -101.5zM197 1204.5q0 71.5 50 121.5t121.5 50t122 -50t50.5 -121.5t-50.5 -122t-122 -50.5t-121.5 50.5t-50 122zM295 1204.5q0 -30.5 21.5 -52.5t52 -22t52 22t21.5 52.5t-21.5 52t-52 21.5t-52 -21.5 t-21.5 -52z" />
<glyph unicode="&#xe6;" horiz-adv-x="1107" d="M66.5 210q-15.5 79 17.5 155q31 74 97.5 118.5t148.5 44.5h143v144q0 96 -88 133q-90 37 -158 -33q-16 -16 -43 -16q-23 0 -43 16q-18 18 -18 43q0 27 18 45q57 57 136 72.5t153 -14.5q66 -25 105 -76q80 96 204 96q109 0 188 -78t79 -188v-205q0 -27 -18.5 -44 t-43.5 -17h-348v-144q0 -96 88 -133t156 31q18 18 43 18q27 0 45 -18q16 -16 16 -43q0 -23 -16 -43q-59 -57 -137 -72.5t-154 14.5q-63 27 -102 76q-39 -51 -105 -76q-74 -31 -152.5 -15.5t-136.5 73.5q-59 57 -74.5 136zM197 317q-35 -88 30 -157q68 -68 158 -31 q88 37 88 133v144h-143q-96 -1 -133 -89zM596 528h287v144q0 59 -42 101t-101.5 42t-101.5 -42t-42 -101v-144z" />
<glyph unicode="&#xe7;" d="M119 262v410q0 82 45 148.5t119 97.5q76 31 154.5 15.5t135.5 -73.5q18 -18 19 -45q0 -25 -19 -43q-20 -16 -44.5 -16t-41.5 16q-68 70 -157 33q-88 -37 -88 -133v-410q0 -96 88 -133q35 -10 53 -10h2h2q53 0 100 41q16 18 41 18q27 0 45 -18q18 -16 19 -43 q0 -25 -19 -43q-49 -49 -127 -72v-70q0 -133 -112 -196q-23 -12 -47.5 -6t-36.5 28.5t-6 47t28 36.5q51 29 52 90v70q-29 8 -41 14q-74 31 -119 97.5t-45 148.5z" />
<glyph unicode="&#xe8;" horiz-adv-x="753" d="M119 262v410q0 111 78.5 188.5t187.5 77.5q111 0 188.5 -78t77.5 -188v-205q0 -27 -17.5 -44t-43.5 -17h-348v-144q0 -96 88 -133q90 -37 157 31q16 18 41 18q27 0 45 -18q18 -16 19 -43q0 -25 -19 -43q-57 -57 -136 -72.5t-154 14.5q-74 31 -119 97.5t-45 148.5z M222 1283q-1 26 15.5 44.5t42 19.5t44.5 -16l204 -184q20 -16 21.5 -42t-17.5 -44q-16 -18 -41.5 -19.5t-44.5 15.5l-204 184q-19 16 -20 42zM242 528h286v144q0 59 -42 101t-101 42t-101 -42t-42 -101v-144z" />
<glyph unicode="&#xe9;" horiz-adv-x="753" d="M119 262v410q0 111 78.5 188.5t187.5 77.5q111 0 188.5 -78t77.5 -188v-205q0 -27 -17.5 -44t-43.5 -17h-348v-144q0 -96 88 -133q90 -37 157 31q16 18 41 18q27 0 45 -18q18 -16 19 -43q0 -25 -19 -43q-57 -57 -136 -72.5t-152 14.5q-76 31 -121 97.5t-45 148.5z M222 1104.5q1 25.5 20 42.5l204 184q45 39 89 -4q16 -18 15 -44t-22 -42l-204 -184q-18 -16 -44 -15.5t-42.5 19t-15.5 44zM242 528h286v144q0 59 -42 101t-101 42t-101 -42t-42 -101v-144z" />
<glyph unicode="&#xea;" horiz-adv-x="753" d="M119 262v410q0 111 78.5 188.5t187.5 77.5q111 0 188.5 -78t77.5 -188v-205q0 -27 -17.5 -44t-43.5 -17h-348v-144q0 -96 90 -133q88 -37 155 31q18 18 43 18q27 0 43 -18q18 -16 19 -43q0 -25 -19 -43q-57 -57 -136 -72.5t-152 14.5q-76 31 -121 97.5t-45 148.5z M142 1109q3 24 24 38l184 143q14 12 35 13q20 0 37 -13l184 -143q18 -14 21.5 -38t-11.5 -44q-39 -43 -81 -10q-12 8 -34 25.5t-24 19.5q-14 12 -47 36.5t-45 34.5l-90 -71q-2 -2 -23.5 -19.5t-33.5 -25.5q-20 -14 -44 -11t-38 21q-17 20 -14 44zM242 528h286v144 q0 59 -42 101t-101 42t-101 -42t-42 -101v-144z" />
<glyph unicode="&#xeb;" horiz-adv-x="753" d="M119 262v410q0 111 78.5 188.5t187.5 77.5q111 0 188.5 -78t77.5 -188v-205q0 -27 -17.5 -44t-43.5 -17h-348v-144q0 -96 90 -133q88 -37 155 31q18 18 43 18q27 0 43 -18q18 -16 19 -43q0 -25 -19 -43q-57 -57 -136 -72.5t-152 14.5q-76 31 -121 97.5t-45 148.5z M139 1184q0 35 23.5 58.5t58.5 23.5t58.5 -23.5t23.5 -58.5t-23.5 -58.5t-58.5 -23.5t-58.5 23.5t-23.5 58.5zM242 528h286v144q0 59 -42 101t-101 42t-101 -42t-42 -101v-144zM467 1184q0 35 23.5 58.5t58.5 23.5t58.5 -23.5t23.5 -58.5t-23.5 -58.5t-58.5 -23.5 t-58.5 23.5t-23.5 58.5z" />
<glyph unicode="&#xec;" horiz-adv-x="409" d="M1 1283q-1 26 15.5 44.5t42 19.5t45.5 -16l205 -184q18 -16 19.5 -42t-15 -44.5t-42 -19.5t-46.5 16l-205 184q-18 16 -19 42zM143 57v820q0 27 18.5 44t43.5 17q27 0 44 -17.5t17 -43.5v-820q0 -27 -17.5 -44t-43.5 -17q-25 0 -43.5 17t-18.5 44z" />
<glyph unicode="&#xed;" horiz-adv-x="409" d="M81 1104.5q1 25.5 21 42.5l205 184q18 16 44 15.5t42.5 -19t15.5 -44.5t-20 -42l-205 -184q-20 -16 -45.5 -15.5t-42 19t-15.5 44zM143 57v820q0 27 17.5 44t44.5 17q25 0 43 -17.5t18 -43.5v-820q0 -27 -18.5 -44t-42.5 -17q-27 0 -44.5 17t-17.5 44z" />
<glyph unicode="&#xee;" horiz-adv-x="409" d="M-37 1109q4 24 23 38l184 143q16 12 35 13q20 0 37 -13l184 -143q20 -14 23.5 -38t-13.5 -44q-37 -41 -82 -10q-12 8 -33.5 25.5t-23.5 19.5l-90 71l-92 -71q-2 -2 -23.5 -19.5t-34.5 -25.5q-43 -33 -82 10q-16 20 -12 44zM145 57v820q0 27 17.5 44t44.5 17 q25 0 43 -17.5t18 -43.5v-820q0 -27 -18.5 -44t-42.5 -17q-27 0 -44.5 17t-17.5 44z" />
<glyph unicode="&#xef;" horiz-adv-x="409" d="M-41 1184q0 35 23.5 58.5t58.5 23.5t58.5 -23.5t23.5 -58.5t-23.5 -58.5t-58.5 -23.5t-58.5 23.5t-23.5 58.5zM143 57v820q0 27 17.5 44t44.5 17q25 0 43 -17.5t18 -43.5v-820q0 -27 -18.5 -44t-42.5 -17q-27 0 -44.5 17t-17.5 44zM287 1184q0 35 23.5 58.5t58 23.5 t58.5 -23.5t24 -58.5t-24 -58.5t-58.5 -23.5t-58 23.5t-23.5 58.5z" />
<glyph unicode="&#xf0;" horiz-adv-x="770" d="M119 262v410q0 111 77.5 188.5t188.5 77.5q53 0 96 -18q-37 92 -98 172l-88 -60q-20 -12 -44 -8t-38 25q-12 20 -8 43.5t24 37.5l72 48q-16 16 -76 57q-47 33 -16 86q33 47 86 16q51 -35 111 -90l69 47q20 12 44 8t38 -24.5t9 -44t-25 -37.5l-56 -37q31 -41 72 -110 q94 -174 94 -377v-410q0 -111 -77.5 -188.5t-188.5 -77.5t-188.5 77.5t-77.5 188.5zM242 262q0 -59 42 -101t101 -42t101 42t42 101v410q0 59 -42 101t-101 42t-101 -42t-42 -101v-410z" />
<glyph unicode="&#xf1;" horiz-adv-x="802" d="M143 57v811q0 27 17.5 44.5t44.5 17.5h205q109 0 187.5 -78t78.5 -188v-607q0 -27 -18.5 -44t-43.5 -17q-27 0 -44 17.5t-17 43.5v607q0 59 -42 101t-101 42h-144v-750q0 -27 -18.5 -44t-42.5 -17q-27 0 -44.5 17t-17.5 44zM167 1147.5q-5 23.5 9 44.5q43 66 121 78 q76 12 139 -33l17 -12q23 -18 49 -13q29 4 43 29q31 43 82 16q20 -14 24 -37.5t-8 -43.5q-47 -66 -121 -78q-78 -12 -139 32l-16 13q-23 16 -51.5 12t-41.5 -29q-14 -20 -37.5 -24t-43.5 8q-21 14 -26 37.5z" />
<glyph unicode="&#xf2;" horiz-adv-x="770" d="M119 262v410q0 111 77.5 188.5t188.5 77.5t188.5 -78t77.5 -188v-410q0 -111 -77.5 -188.5t-188.5 -77.5t-188.5 77.5t-77.5 188.5zM220 1283q-1 26 18 44q16 18 41.5 19.5t44.5 -15.5l204 -184q18 -16 19.5 -42t-15 -44.5t-42 -19.5t-44.5 16l-204 184q-21 16 -22 42z M242 262q0 -59 42 -101t101 -42t101 42t42 101v410q0 59 -42 101t-101 42t-101 -42t-42 -101v-410z" />
<glyph unicode="&#xf3;" horiz-adv-x="770" d="M119 262v410q0 111 77.5 188.5t188.5 77.5t188.5 -78t77.5 -188v-410q0 -111 -77.5 -188.5t-188.5 -77.5t-188.5 77.5t-77.5 188.5zM222 1104.5q1 25.5 20 42.5l204 184q18 16 44 15.5t42.5 -19t15.5 -44.5t-20 -42l-204 -184q-18 -16 -44 -15.5t-42.5 19t-15.5 44z M242 262q0 -59 42 -101t101 -42t101 42t42 101v410q0 59 -42 101t-101 42t-101 -42t-42 -101v-410z" />
<glyph unicode="&#xf4;" horiz-adv-x="770" d="M119 262v410q0 111 77.5 188.5t188.5 77.5t188.5 -78t77.5 -188v-410q0 -111 -77.5 -188.5t-188.5 -77.5t-188.5 77.5t-77.5 188.5zM142 1109q3 24 22 38l184 143q37 29 72 0l184 -143q20 -14 23.5 -38t-13.5 -44q-14 -18 -37.5 -21.5t-44.5 11.5l-55 45q-14 12 -47 36.5 t-45 34.5l-92 -71q-2 -2 -23.5 -19.5t-33.5 -25.5q-43 -33 -82 10q-15 20 -12 44zM242 262q0 -59 42 -101t101 -42t101 42t42 101v410q0 59 -42 101t-101 42t-101 -42t-42 -101v-410z" />
<glyph unicode="&#xf5;" horiz-adv-x="770" d="M119 262v410q0 111 77.5 188.5t188.5 77.5t188.5 -78t77.5 -188v-410q0 -111 -77.5 -188.5t-188.5 -77.5t-188.5 77.5t-77.5 188.5zM143 1147.5q-4 23.5 9 44.5q47 66 120 78q78 12 140 -33l16 -12q23 -18 49 -13q31 2 43 29q14 20 38 24.5t44 -8.5q20 -14 25.5 -37.5 t-9.5 -43.5q-47 -66 -120 -78q-78 -12 -140 32l-16 13q-23 16 -49 12q-29 -4 -43 -29q-14 -20 -38 -24t-44 8q-21 14 -25 37.5zM242 262q0 -59 42 -101t101 -42t101 42t42 101v410q0 59 -42 101t-101 42t-101 -42t-42 -101v-410z" />
<glyph unicode="&#xf6;" horiz-adv-x="770" d="M119 262v410q0 111 77.5 188.5t188.5 77.5t188.5 -78t77.5 -188v-410q0 -111 -77.5 -188.5t-188.5 -77.5t-188.5 77.5t-77.5 188.5zM139 1184q0 35 23.5 58.5t58.5 23.5t58.5 -23.5t23.5 -58.5t-23.5 -58.5t-58.5 -23.5t-58.5 23.5t-23.5 58.5zM242 262q0 -59 42 -101 t101 -42t101 42t42 101v410q0 59 -42 101t-101 42t-101 -42t-42 -101v-410zM467 1184q0 35 23.5 58.5t58.5 23.5t58.5 -23.5t23.5 -58.5t-23.5 -58.5t-58.5 -23.5t-58.5 23.5t-23.5 58.5z" />
<glyph unicode="&#xf7;" d="M115 589.5q0 28.5 18.5 47t46.5 18.5h492q27 0 46 -18.5t19 -47t-19.5 -47t-45.5 -18.5h-492q-29 0 -47 18.5t-18 47zM340 323.5q0 34.5 24.5 60.5t61.5 26q35 0 60.5 -26t25.5 -60.5t-25.5 -60t-60.5 -25.5q-37 0 -61.5 25.5t-24.5 60zM340 856q0 35 24.5 60.5 t61.5 25.5q35 0 60.5 -25.5t25.5 -60.5t-25.5 -60.5t-60.5 -25.5q-37 0 -61.5 25.5t-24.5 60.5z" />
<glyph unicode="&#xf8;" horiz-adv-x="790" d="M51 -39.5q-6 23.5 6 43.5l93 156q-20 43 -21 102v410q0 111 78 188.5t188 77.5q98 0 170 -61l66 110q12 23 35.5 29t44.5 -6q23 -12 28.5 -36t-6.5 -44l-92 -158q20 -49 21 -100v-410q0 -111 -78 -188.5t-189 -77.5q-100 0 -170 61l-65 -110q-12 -23 -36 -29t-44 6 q-23 13 -29 36.5zM252 338l250 428q-43 49 -107 49q-59 0 -101 -42t-42 -101v-334zM289 168q39 -49 106 -49q59 0 101.5 42t42.5 101v334z" />
<glyph unicode="&#xf9;" horiz-adv-x="802" d="M127 270v607q0 27 18.5 44t42.5 17q27 0 44.5 -17.5t17.5 -43.5v-607q0 -59 42 -101t101 -42h144v750q0 27 18 44t43 17q27 0 44 -17.5t17 -43.5v-811q0 -27 -17 -44.5t-44 -17.5h-205q-109 0 -187.5 77.5t-78.5 188.5zM230 1283q-1 26 15.5 44.5t42 19.5t44.5 -16 l205 -184q20 -16 21 -42t-15 -44q-43 -43 -88 -4l-205 184q-19 16 -20 42z" />
<glyph unicode="&#xfa;" horiz-adv-x="802" d="M127 270v607q0 27 18.5 44t42.5 17q27 0 44.5 -17.5t17.5 -43.5v-607q0 -59 42 -101t101 -42h144v750q0 27 18 44t43 17q27 0 44 -17.5t17 -43.5v-811q0 -27 -17 -44.5t-44 -17.5h-205q-109 0 -187.5 77.5t-78.5 188.5zM230 1104.5q1 25.5 20 42.5l205 184 q20 16 45.5 15.5t42 -19t15.5 -44.5t-21 -42l-205 -184q-18 -16 -44 -15.5t-42.5 19t-15.5 44z" />
<glyph unicode="&#xfb;" horiz-adv-x="802" d="M127 270v607q0 27 18.5 44t42.5 17q27 0 44.5 -17.5t17.5 -43.5v-607q0 -59 42 -101t101 -42h144v750q0 27 18 44t43 17q27 0 44 -17.5t17 -43.5v-811q0 -27 -17 -44.5t-44 -17.5h-205q-109 0 -187.5 77.5t-78.5 188.5zM151.5 1109q4.5 24 22.5 38l184 143q14 12 35 13 q20 0 37 -13l184 -143q18 -14 22.5 -38t-11.5 -44q-39 -43 -82 -10q-12 8 -34 25.5t-24 19.5q-14 12 -46.5 36.5l-45.5 34.5l-90 -71q-2 -2 -23.5 -19.5t-33.5 -25.5q-45 -31 -82 10q-17 20 -12.5 44z" />
<glyph unicode="&#xfc;" horiz-adv-x="802" d="M127 270v607q0 27 18.5 44t42.5 17q27 0 44.5 -17.5t17.5 -43.5v-607q0 -59 42 -101t101 -42h144v750q0 27 18 44t43 17q27 0 44 -17.5t17 -43.5v-811q0 -27 -17 -44.5t-44 -17.5h-205q-109 0 -187.5 77.5t-78.5 188.5zM147 1184q0 35 24 58.5t58.5 23.5t58 -23.5 t23.5 -58.5t-23.5 -58.5t-58 -23.5t-58.5 23.5t-24 58.5zM475 1184q0 35 23.5 58.5t58.5 23.5t58.5 -23.5t23.5 -58.5t-23.5 -58.5t-58.5 -23.5t-58.5 23.5t-23.5 58.5z" />
<glyph unicode="&#xfd;" horiz-adv-x="755" d="M41 -352.5q0 26.5 18.5 44t42.5 17.5q49 0 86 27.5t52 75.5l73 245l-239 801q-8 25 4 47.5t37 30.5q25 6 47 -6t28 -35l189 -625l186 625q8 23 29.5 35t46.5 6q25 -8 37 -30.5t4 -47.5l-246 -819l-78 -262q-25 -84 -96.5 -137.5t-159.5 -53.5q-25 0 -43 17.5t-18 44z M214 1104.5q1 25.5 19 42.5l205 184q20 16 46 15.5t42.5 -19t15.5 -44.5t-20 -42l-205 -184q-20 -16 -45.5 -15.5t-42 19t-15.5 44z" />
<glyph unicode="&#xfe;" horiz-adv-x="794" d="M143 -352v1638q0 27 17.5 44.5t44 17.5t44 -17.5t17.5 -44.5v-348h144q111 0 188.5 -78t77.5 -188v-410q0 -111 -78 -188.5t-188 -77.5h-144v-348q0 -27 -17.5 -44.5t-44 -17.5t-44 17.5t-17.5 44.5zM266 119h144q59 0 101 42t42 101v410q0 59 -42 101t-101 42h-144v-696 z" />
<glyph unicode="&#xff;" horiz-adv-x="755" d="M41 -352.5q0 26.5 18.5 44t42.5 17.5q49 0 86 27.5t52 75.5l73 245l-239 801q-8 25 4 47.5t37 30.5q25 6 47 -6t28 -35l189 -625l186 625q8 23 29.5 35t46.5 6q25 -8 37 -30.5t4 -47.5l-246 -819l-78 -262q-25 -84 -96.5 -137.5t-159.5 -53.5q-25 0 -43 17.5t-18 44z M133 1184q0 35 23.5 58.5t58.5 23.5t58.5 -23.5t23.5 -58.5t-23.5 -58.5t-58.5 -23.5t-58.5 23.5t-23.5 58.5zM461 1184q0 35 23.5 58.5t58.5 23.5t58.5 -23.5t23.5 -58.5t-23.5 -58.5t-58.5 -23.5t-58.5 23.5t-23.5 58.5z" />
<glyph unicode="&#x152;" horiz-adv-x="1220" d="M115 303v696q0 129 91 220.5t220 91.5q104 0 182 -60q10 51 64 52h409q27 0 46.5 -18.5t19.5 -47.5t-19.5 -47.5t-46.5 -18.5h-344v-213v-221h303q27 0 46.5 -18.5t19.5 -47t-19.5 -47t-46.5 -18.5h-303v-262v-213h344q27 0 46.5 -18.5t19.5 -47t-19.5 -47t-46.5 -18.5 h-409q-53 0 -64 51q-78 -59 -182 -59q-129 0 -220 91t-91 220zM246 303q0 -76 52 -128t128 -52q74 0 127 52t53 128v41v614v41q0 74 -53 127.5t-127 53.5q-76 0 -128 -53.5t-52 -127.5v-696z" />
<glyph unicode="&#x153;" horiz-adv-x="1163" d="M119 262v410q0 111 77.5 188.5t188.5 77.5q125 0 205 -96q80 96 205 96q109 0 187.5 -78t78.5 -188v-205q0 -27 -18.5 -44t-43.5 -17h-348v-144q0 -96 88 -133t156 31q18 18 43 18q27 0 45 -18q16 -16 16 -43q0 -23 -16 -43q-59 -57 -137 -72.5t-154 14.5q-63 27 -102 76 q-80 -96 -205 -96q-111 0 -188.5 77.5t-77.5 188.5zM242 262q0 -59 42 -101t101 -42t101 42t42 101v410q0 59 -42 101t-101 42t-101 -42t-42 -101v-410zM651 528h287v144q0 59 -42 101t-101.5 42t-101.5 -42t-42 -101v-144z" />
<glyph unicode="&#x178;" horiz-adv-x="823" d="M61.5 1265.5q8.5 26.5 32.5 39.5q25 10 50.5 1.5t37.5 -32.5l228 -455l143 283l86 172q12 25 37.5 33t50.5 -2q23 -12 32 -39t-3 -49l-281 -562v-598q0 -29 -18.5 -47t-46.5 -18q-27 0 -46.5 18.5t-19.5 46.5v598l-278 562q-13 22 -4.5 48.5zM160 1593.5q0 34.5 25.5 60 t60.5 25.5q37 0 61.5 -25.5t24.5 -60t-24.5 -60.5t-61.5 -26q-35 0 -60.5 26t-25.5 60.5zM487 1593.5q0 34.5 26 60t60 25.5q37 0 61.5 -25.5t24.5 -60t-24.5 -60.5t-61.5 -26q-35 0 -60.5 26t-25.5 60.5z" />
<glyph unicode="&#x2c6;" horiz-adv-x="1024" d="M276 1061q-39 53 13 92l184 143q14 14 39 14.5t41 -14.5l184 -143q51 -39 13 -92q-16 -23 -43 -25t-50 15l-55 41l-48 36l-42 33l-42 -33l-48 -36l-53 -41q-23 -16 -50 -14.5t-43 24.5z" />
<glyph unicode="&#x2dc;" horiz-adv-x="1024" d="M272 1196q47 66 125 82q80 12 146 -35l16 -12q20 -14 45 -12q25 6 37 24q41 55 92 19q23 -14 29 -41t-10 -50q-45 -68 -125 -81q-80 -12 -146 34l-16 13q-18 14 -45 12q-29 -10 -37 -27q-37 -51 -92 -18q-52 37 -19 92z" />
<glyph unicode="&#x2000;" horiz-adv-x="892" />
<glyph unicode="&#x2001;" horiz-adv-x="1787" />
<glyph unicode="&#x2002;" horiz-adv-x="892" />
<glyph unicode="&#x2003;" horiz-adv-x="1787" />
<glyph unicode="&#x2004;" horiz-adv-x="595" />
<glyph unicode="&#x2005;" horiz-adv-x="446" />
<glyph unicode="&#x2006;" horiz-adv-x="296" />
<glyph unicode="&#x2007;" horiz-adv-x="296" />
<glyph unicode="&#x2008;" horiz-adv-x="223" />
<glyph unicode="&#x2009;" horiz-adv-x="356" />
<glyph unicode="&#x200a;" horiz-adv-x="98" />
<glyph unicode="&#x2010;" d="M115 589.5q0 28.5 18.5 47t46.5 18.5h492q27 0 46 -18.5t19 -47t-19.5 -47t-45.5 -18.5h-492q-29 0 -47 18.5t-18 47z" />
<glyph unicode="&#x2011;" d="M115 589.5q0 28.5 18.5 47t46.5 18.5h492q27 0 46 -18.5t19 -47t-19.5 -47t-45.5 -18.5h-492q-29 0 -47 18.5t-18 47z" />
<glyph unicode="&#x2012;" d="M115 589.5q0 28.5 18.5 47t46.5 18.5h492q27 0 46 -18.5t19 -47t-19.5 -47t-45.5 -18.5h-492q-29 0 -47 18.5t-18 47z" />
<glyph unicode="&#x2013;" horiz-adv-x="1024" d="M-66 589.5q0 28.5 19.5 47t46.5 18.5h1024q29 0 47.5 -18.5t18.5 -47t-18.5 -47t-47.5 -18.5h-1024q-27 0 -46.5 18.5t-19.5 47z" />
<glyph unicode="&#x2014;" horiz-adv-x="2048" d="M-66 589.5q0 28.5 19.5 47t46.5 18.5h2048q29 0 47.5 -18.5t18.5 -47t-18.5 -47t-47.5 -18.5h-2048q-27 0 -46.5 18.5t-19.5 47z" />
<glyph unicode="&#x2018;" horiz-adv-x="393" d="M100 1049v98q0 51 29 93t76 63q23 10 47 -0.5t35 -32.5q10 -25 -0.5 -48.5t-34.5 -33.5q-27 -14 -27 -41v-37h4q25 0 43.5 -17.5t18.5 -44t-18.5 -45t-43.5 -18.5h-65q-27 0 -45.5 18.5t-18.5 45.5z" />
<glyph unicode="&#x2019;" horiz-adv-x="393" d="M100 1237q0 27 18.5 44t45.5 17h65q25 0 43.5 -17t18.5 -44v-98q0 -51 -29 -93t-76 -63q-23 -10 -47 0t-35 33q-10 25 0.5 48t34.5 34q27 8 27 41v35h-2q-27 0 -45.5 18t-18.5 45z" />
<glyph unicode="&#x201a;" horiz-adv-x="391" d="M100 98.5q0 26.5 18.5 44t45.5 17.5h65q25 0 43.5 -17.5t18.5 -44.5v-98q0 -51 -29 -93t-76 -63q-23 -10 -47 0.5t-35 32.5q-10 25 0.5 48.5t34.5 33.5q27 8 27 41v35h-2q-27 0 -45.5 18.5t-18.5 45z" />
<glyph unicode="&#x201c;" horiz-adv-x="759" d="M100 1049v98q0 51 28 93t75 63q25 10 48 0.5t33.5 -34t1 -48t-33.5 -33.5q-27 -14 -27 -41v-37h2q27 0 45.5 -17.5t18.5 -44t-18.5 -45t-45.5 -18.5h-65q-27 0 -44.5 18.5t-17.5 45.5zM469 1049v98q0 51 27.5 93t74.5 63q25 10 48.5 0.5t34 -34t1 -48t-33.5 -33.5 q-27 -14 -27 -41v-37h2q27 0 45 -17.5t18 -44t-18 -45t-45 -18.5h-66q-27 0 -44 18.5t-17 45.5z" />
<glyph unicode="&#x201d;" horiz-adv-x="761" d="M102 1237q0 27 17.5 44t44.5 17h65q27 0 45.5 -17t18.5 -44v-98q0 -51 -28.5 -93t-76.5 -63q-25 -10 -48 -1t-33.5 33.5t-1 48t33.5 34.5q29 10 29 41v35h-4q-27 0 -44.5 18t-17.5 45zM471 1237q0 27 17.5 44t43.5 17h66q27 0 45.5 -17t18.5 -44v-98q0 -51 -29 -93 t-76 -63q-25 -10 -48.5 -1t-33.5 33.5t-1 48t34 34.5q29 10 29 41v35h-5q-27 0 -44 18t-17 45z" />
<glyph unicode="&#x201e;" horiz-adv-x="761" d="M100 98.5q0 26.5 18.5 44t45.5 17.5h65q27 0 44.5 -17.5t17.5 -44.5v-98q0 -51 -27.5 -93t-75.5 -63q-25 -10 -48 -0.5t-33.5 34t-1 48t33.5 33.5q27 8 27 41v35h-2q-27 0 -45.5 18.5t-18.5 45zM469 98.5q0 26.5 18.5 44t44.5 17.5h66q27 0 44 -17.5t17 -44.5v-98 q0 -51 -27.5 -93t-74.5 -63q-25 -10 -48.5 -0.5t-33.5 34t-1 48t34 33.5q27 8 27 41v35h-3q-27 0 -45 18.5t-18 45z" />
<glyph unicode="&#x2022;" horiz-adv-x="524" d="M61 578q0 82 59.5 142t141.5 60q84 0 143.5 -60.5t59.5 -141.5q0 -86 -58.5 -144.5t-144.5 -58.5q-84 0 -142.5 58.5t-58.5 144.5zM178 577.5q0 -34.5 24.5 -59t59.5 -24.5t60.5 24.5t25.5 59t-25.5 59.5t-60.5 25t-59.5 -25t-24.5 -59.5z" />
<glyph unicode="&#x2026;" horiz-adv-x="1179" d="M94 78q0 35 25.5 60.5t60.5 25.5q37 0 61.5 -25.5t24.5 -60.5t-24.5 -60.5t-61.5 -25.5q-35 0 -60.5 25.5t-25.5 60.5zM504 78q0 35 25.5 60.5t60.5 25.5q37 0 61.5 -25.5t24.5 -60.5t-24.5 -60.5t-61.5 -25.5q-35 0 -60.5 25.5t-25.5 60.5zM913 78q0 35 26 60.5t60 25.5 q37 0 61.5 -25.5t24.5 -60.5t-24.5 -60.5t-61.5 -25.5q-35 0 -60.5 25.5t-25.5 60.5z" />
<glyph unicode="&#x202f;" horiz-adv-x="356" />
<glyph unicode="&#x2039;" horiz-adv-x="489" d="M106 565q-14 31 0 64l132 237q14 25 39.5 33t50.5 -6q33 -20 32 -57q0 -23 -8 -31l-47 -86q-51 -98 -65 -121q8 -14 32.5 -62.5t36.5 -68.5q4 -10 51 -92q8 -14 9 -31q0 -37 -33 -57q-25 -14 -50.5 -6t-39.5 32z" />
<glyph unicode="&#x203a;" horiz-adv-x="489" d="M121 344q0 12 8 31q47 82 51 92q61 115 72 131q-25 39 -68 121l-47 86q-8 14 -8 31q0 39 35 57q23 14 49.5 6t38.5 -33l131 -237q18 -33 0 -64l-139 -252q-12 -25 -39 -33t-49 7q-35 18 -35 57z" />
<glyph unicode="&#x205f;" horiz-adv-x="446" />
<glyph unicode="&#x20ac;" d="M37 487.5q0 28.5 18.5 47t46.5 18.5h99v197h-99q-29 0 -47 18t-18 47t18.5 47.5t46.5 18.5h99v118q0 106 63.5 189.5t165.5 111.5q104 29 200.5 -12t149.5 -133l21 -35q14 -25 7 -50.5t-30 -39.5q-25 -14 -50.5 -7t-39.5 32l-20 35q-31 53 -87.5 76.5t-115.5 7t-96 -64.5 t-37 -110v-118h262q27 0 46 -18.5t19 -47.5t-19 -47t-46 -18h-262v-197h180q27 0 46.5 -18.5t19.5 -47t-19.5 -47t-46.5 -18.5h-180v-119q0 -61 37 -109.5t96 -64.5t115.5 7.5t87.5 76.5l20 35q14 25 40 32t50 -8q23 -14 30 -39.5t-7 -50.5l-21 -35q-53 -92 -149 -133 t-201 -12q-102 29 -165.5 112t-63.5 189v119h-99q-29 0 -47 18.5t-18 47z" />
<glyph unicode="&#x2122;" horiz-adv-x="1372" d="M55 1237q0 27 17.5 44t44.5 17h409q27 0 45.5 -17t18.5 -44t-18.5 -45t-45.5 -18h-141v-543q0 -27 -18.5 -45.5t-45 -18.5t-44 18.5t-17.5 45.5v543h-143q-27 0 -44.5 18t-17.5 45zM711 631v614q0 47 43 60q41 12 69 -23q37 -53 56 -78q41 -63 98 -139q57 76 98 139 l55 78q29 35 72 23q43 -14 43 -60v-614q0 -27 -18.5 -45.5t-45 -18.5t-44 18.5t-17.5 45.5v420q-10 -16 -32.5 -46t-30.5 -42l-29 -41q-20 -27 -51 -27t-51 27l-17 22q-10 14 -12 19l-61 88v-420q0 -27 -18.5 -45.5t-45.5 -18.5t-44 18.5t-17 45.5z" />
<glyph unicode="&#xe000;" horiz-adv-x="940" d="M0 940h940v-940h-940v940z" />
<glyph unicode="&#xfb01;" horiz-adv-x="1015" d="M729 1184q0 35 23.5 58.5t58.5 23.5t58.5 -23.5t23.5 -58.5t-23.5 -58.5t-58.5 -23.5t-58.5 23.5t-23.5 58.5zM749 57v820q0 27 18.5 44t43.5 17q27 0 44 -17.5t17 -43.5v-820q0 -27 -17.5 -44t-43.5 -17q-25 0 -43.5 17t-18.5 44zM53 868.5q0 26.5 17.5 44t44.5 17.5 h102v151q0 111 78 189t188 78q27 0 44.5 -17.5t17.5 -44t-17.5 -44t-44.5 -17.5q-59 0 -101 -42t-42 -102v-151h143q27 0 44.5 -17.5t17.5 -44t-17.5 -44t-44.5 -17.5h-143v-750q0 -27 -17.5 -44t-44 -17t-44 17.5t-17.5 43.5v750h-102q-27 0 -44.5 17.5t-17.5 44z" />
<glyph unicode="&#xfb02;" horiz-adv-x="1015" d="M743 199v1087q0 27 18.5 44.5t43.5 17.5q27 0 44 -17.5t17 -44.5v-1087q0 -57 51 -88q23 -12 30 -37q2 -8 2 -16q0 -16 -9 -31q-12 -23 -37 -29q-8 -2 -16 -2q-16 0 -31 8q-113 68 -113 195zM53 868.5q0 26.5 17.5 44t44.5 17.5h102v151q0 111 78 189t188 78 q27 0 44.5 -17.5t17.5 -44t-17.5 -44t-44.5 -17.5q-59 0 -101 -42t-42 -102v-151h143q27 0 44.5 -17.5t17.5 -44t-17.5 -44t-44.5 -17.5h-143v-750q0 -27 -17.5 -44t-44 -17t-44 17.5t-17.5 43.5v750h-102q-27 0 -44.5 17.5t-17.5 44z" />
<glyph unicode="&#xfb03;" horiz-adv-x="1622" d="M1335 1184q0 35 23.5 58.5t58.5 23.5t58.5 -23.5t23.5 -58.5t-23.5 -58.5t-58.5 -23.5t-58.5 23.5t-23.5 58.5zM1355 57v820q0 27 18.5 44t43.5 17q27 0 44 -17.5t17 -43.5v-820q0 -27 -17.5 -44t-43.5 -17q-25 0 -43.5 17t-18.5 44zM659 868.5q0 26.5 17.5 44t44.5 17.5 h102v151q0 111 78 189t188 78q27 0 44.5 -17.5t17.5 -44t-17.5 -44t-44.5 -17.5q-59 0 -101 -42t-42 -102v-151h143q27 0 44.5 -17.5t17.5 -44t-17.5 -44t-44.5 -17.5h-143v-750q0 -27 -17.5 -44t-44 -17t-44 17.5t-17.5 43.5v750h-102q-27 0 -44.5 17.5t-17.5 44zM53 868.5 q0 26.5 17.5 44t44.5 17.5h102v151q0 111 78 189t188 78q27 0 44.5 -17.5t17.5 -44t-17.5 -44t-44.5 -17.5q-59 0 -101 -42t-42 -102v-151h143q27 0 44.5 -17.5t17.5 -44t-17.5 -44t-44.5 -17.5h-143v-750q0 -27 -17.5 -44t-44 -17t-44 17.5t-17.5 43.5v750h-102 q-27 0 -44.5 17.5t-17.5 44z" />
<glyph unicode="&#xfb04;" horiz-adv-x="1622" d="M1349 199v1087q0 27 18.5 44.5t43.5 17.5q27 0 44 -17.5t17 -44.5v-1087q0 -57 51 -88q23 -12 30 -37q2 -8 2 -16q0 -16 -9 -31q-12 -23 -37 -29q-8 -2 -16 -2q-16 0 -31 8q-113 68 -113 195zM659 868.5q0 26.5 17.5 44t44.5 17.5h102v151q0 111 78 189t188 78 q27 0 44.5 -17.5t17.5 -44t-17.5 -44t-44.5 -17.5q-59 0 -101 -42t-42 -102v-151h143q27 0 44.5 -17.5t17.5 -44t-17.5 -44t-44.5 -17.5h-143v-750q0 -27 -17.5 -44t-44 -17t-44 17.5t-17.5 43.5v750h-102q-27 0 -44.5 17.5t-17.5 44zM53 868.5q0 26.5 17.5 44t44.5 17.5 h102v151q0 111 78 189t188 78q27 0 44.5 -17.5t17.5 -44t-17.5 -44t-44.5 -17.5q-59 0 -101 -42t-42 -102v-151h143q27 0 44.5 -17.5t17.5 -44t-17.5 -44t-44.5 -17.5h-143v-750q0 -27 -17.5 -44t-44 -17t-44 17.5t-17.5 43.5v750h-102q-27 0 -44.5 17.5t-17.5 44z" />
</font>
</defs>
</svg>
