<?xml version="1.0" standalone="no"?>
<!DOCTYPE svg PUBLIC "-//W3C//DTD SVG 1.1//EN" "http://www.w3.org/Graphics/SVG/1.1/DTD/svg11.dtd" >
<svg xmlns="http://www.w3.org/2000/svg">
<metadata>
This is a custom SVG webfont generated by Font Squirrel.
Copyright   : Copyright c Mrten Nettelbladt 2006 All rights reserved
Designer    : Mrten Nettelbladt
Foundry     : Mrten Nettelbladt
</metadata>
<defs>
<font id="webfontmLKaPHHF" horiz-adv-x="851" >
<font-face units-per-em="2048" ascent="1638" descent="-410" />
<missing-glyph horiz-adv-x="393" />
<glyph unicode=" "  horiz-adv-x="393" />
<glyph unicode="&#x09;" horiz-adv-x="393" />
<glyph unicode="&#xa0;" horiz-adv-x="393" />
<glyph unicode="!" horiz-adv-x="409" d="M86 78q0 49 35 84t84 35t84 -35t35 -84t-35 -84t-84 -35t-84 35t-35 84zM106 385v819q0 41 29 70t70 29t69.5 -29t28.5 -70v-819q0 -41 -28.5 -69.5t-69.5 -28.5t-70 28.5t-29 69.5z" />
<glyph unicode="&#x22;" horiz-adv-x="720" d="M98 1040v205q0 41 29 69.5t70 28.5t69.5 -28.5t28.5 -69.5v-205q0 -41 -28.5 -69.5t-69.5 -28.5t-70 28.5t-29 69.5zM426 1040v205q0 41 28.5 69.5t69.5 28.5t70 -28.5t29 -69.5v-205q0 -41 -29 -69.5t-70 -28.5t-69.5 28.5t-28.5 69.5z" />
<glyph unicode="#" horiz-adv-x="937" d="M8 508q0 39 26.5 65.5t65.5 26.5h113v141h-113q-39 0 -65.5 28t-26.5 66.5t26.5 65.5t65.5 27h113v317q0 39 26.5 65.5t65.5 26.5t66.5 -26.5t27.5 -65.5v-317h142v317q0 39 26.5 65.5t65.5 26.5t66.5 -26.5t27.5 -65.5v-317h111q39 0 66.5 -27t27.5 -65.5t-27.5 -66.5 t-66.5 -28h-111v-141h111q39 0 66.5 -26.5t27.5 -65.5t-27.5 -66.5t-66.5 -27.5h-111v-357q0 -39 -27.5 -66.5t-66.5 -27.5t-65.5 27.5t-26.5 66.5v357h-142v-357q0 -39 -27.5 -66.5t-66.5 -27.5t-65.5 27.5t-26.5 66.5v357h-113q-39 0 -65.5 27.5t-26.5 66.5zM399 600h142 v141h-142v-141z" />
<glyph unicode="$" d="M113.5 280.5q11.5 38.5 46.5 61.5q35 20 73.5 9t59.5 -46q35 -57 94 -65q63 -10 111 30q49 41 49 105q-4 68 -51 102l-256 211q-119 92 -119 246q-4 150 112 250q41 39 113 63v80q0 41 28.5 69.5t69.5 28.5t70 -28.5t29 -69.5v-82q121 -37 180 -145q23 -35 12.5 -74 t-47.5 -61q-35 -20 -74 -9t-61 45q-27 51 -88 62q-59 10 -105 -29q-45 -39 -43 -98q0 -57 45 -96l259 -211q119 -100 122 -252q0 -156 -116 -256q-47 -41 -117 -66v-80q0 -41 -28.5 -69.5t-69.5 -28.5t-70 28.5t-29 69.5v80q-127 41 -190 152q-21 35 -9.5 73.5z" />
<glyph unicode="%" horiz-adv-x="1214" d="M49 1061q0 113 80 192.5t192.5 79.5t192.5 -79.5t80 -192.5t-80 -193t-192.5 -80t-192.5 79t-80 194zM225 1061q0 -41 28 -68.5t68.5 -27.5t68.5 27.5t28 68.5t-28 68.5t-68.5 27.5t-68.5 -27.5t-28 -68.5zM228.5 24.5q-13.5 38.5 4.5 75.5l574 1188q16 37 55 50.5 t76 -5.5q37 -16 50 -55t-5 -76l-573 -1188q-16 -37 -55.5 -50t-75.5 5q-37 17 -50.5 55.5zM623 242q0 113 79.5 192.5t192.5 79.5t192.5 -80t79.5 -192.5t-79.5 -192.5t-192.5 -80t-192.5 79t-79.5 194zM799 242q0 -41 27.5 -69t68.5 -28t68.5 28t27.5 69t-27.5 68.5 t-68.5 27.5t-68.5 -27.5t-27.5 -68.5z" />
<glyph unicode="&#x26;" horiz-adv-x="1009" d="M72 250q-25 143 65 264l150 193l-125 159l-6 8q-47 72 -49.5 156t38.5 158q41 76 116 118t161 37.5t156.5 -50.5t105.5 -124q80 -170 -33 -313l-116 -149l139 -183l24 -28l37 63q23 37 62 46t73.5 -13.5t45 -61t-10.5 -73.5l-78 -129l146 -191q25 -33 20.5 -72.5 t-37 -64.5t-73.5 -19.5t-66 37.5l-98 129l-14 -22q-72 -121 -222 -158q-141 -35 -266 51q-122 87 -145 232zM264 281q8 -59 64 -101q51 -37 114 -20q59 12 95 67l53 86l-72 93l-106 139l-119 -152q-39 -49 -29 -112zM303 1036q0 -27 16 -53l93 -117l84 109q41 53 12 110 q-27 57 -94 62q-59 4 -97 -55q-14 -23 -14 -56z" />
<glyph unicode="'" horiz-adv-x="393" d="M98 1040v205q0 41 29 69.5t70 28.5t69.5 -28.5t28.5 -69.5v-205q0 -41 -28.5 -69.5t-69.5 -28.5t-70 28.5t-29 69.5z" />
<glyph unicode="(" horiz-adv-x="548" d="M82 651.5q0 225.5 70 427.5q72 205 213 391q25 31 64.5 36t72.5 -19q33 -27 38 -67t-22 -72q-121 -152 -180 -332q-59 -184 -59 -365q0 -182 59 -364.5t180 -331.5q27 -33 22 -73t-38 -66q-33 -25 -73 -21t-64 37q-141 186 -213 391q-70 203 -70 428.5z" />
<glyph unicode=")" horiz-adv-x="550" d="M9 -97q-5 40 20 72q121 156 182 332q59 182 59 365q0 180 -59 364q-61 176 -182 332q-25 33 -20 73t38 66q33 25 73 20t64 -36q139 -178 211 -391q72 -215 72 -428t-72 -428q-72 -213 -211 -391q-25 -33 -64.5 -37t-72.5 20q-33 27 -38 67z" />
<glyph unicode="*" d="M69.5 809q10.5 37 43.5 55l127 74l-127 74q-33 18 -43.5 55t10.5 72q18 33 55 43t72 -11l127 -71v145q0 39 26.5 65.5t65.5 26.5t66.5 -26.5t27.5 -65.5v-145l125 71q35 20 72 10t55 -42q20 -35 10 -72t-43 -55l-127 -74l127 -74q33 -18 43.5 -55t-10.5 -72 q-18 -35 -55 -44t-72 12l-125 71v-145q0 -39 -27.5 -66.5t-66.5 -27.5t-65.5 27.5t-26.5 66.5v145l-127 -71q-35 -20 -72 -11.5t-55 43.5q-21 35 -10.5 72z" />
<glyph unicode="+" d="M82 590q0 41 28.5 69.5t69.5 28.5h148v148q0 41 28.5 69.5t69.5 28.5t69.5 -28.5t28.5 -69.5v-148h148q41 0 69.5 -28.5t28.5 -69.5t-28.5 -69.5t-69.5 -28.5h-148v-148q0 -41 -28.5 -69.5t-69.5 -28.5t-69.5 28.5t-28.5 69.5v148h-148q-41 0 -69.5 28.5t-28.5 69.5z" />
<glyph unicode="," horiz-adv-x="393" d="M72 98q0 39 26.5 65.5t65.5 26.5h65q39 0 67 -26.5t28 -65.5v-98q0 -61 -34 -111.5t-89 -72.5q-37 -16 -72 -2t-51.5 51t-1 71.5t52.5 51.5q8 2 8 12v8q-65 24 -65 90z" />
<glyph unicode="-" d="M82 590q0 41 28.5 69.5t69.5 28.5h492q41 0 69.5 -28.5t28.5 -69.5t-28.5 -69.5t-69.5 -28.5h-492q-41 0 -69.5 28.5t-28.5 69.5z" />
<glyph unicode="." horiz-adv-x="393" d="M78 78q0 49 34.5 84t84 35t84 -35t34.5 -84t-34.5 -84t-84 -35t-84 35t-34.5 84z" />
<glyph unicode="/" d="M88 8l492 1352q14 39 51 56.5t75.5 3t56 -51.5t1.5 -74l-492 -1351q-14 -39 -50 -56.5t-74.5 -3t-56 50t-3.5 74.5z" />
<glyph unicode="0" d="M82 303v696q0 143 100.5 243.5t243.5 100.5q141 0 242.5 -100t101.5 -244v-696q0 -143 -101.5 -243.5t-242.5 -100.5q-143 0 -243.5 100.5t-100.5 243.5zM279 303q0 -61 43 -104t104 -43q59 0 103 43t44 104v696q0 61 -44 104.5t-103 43.5q-61 0 -104 -43t-43 -105v-696z " />
<glyph unicode="1" d="M131 999q0 41 29 70l246 246q49 47 106 20q61 -23 61 -90v-1188q0 -41 -28.5 -69.5t-69.5 -28.5t-69.5 28.5t-28.5 69.5v951l-51 -52q-12 -14 -27 -26q-29 -29 -70 -29t-69.5 28.5t-28.5 69.5z" />
<glyph unicode="2" d="M93 1098q-11 39 9 73q72 121 207 160q133 37 258 -31q125 -66 164 -202q39 -135 -24 -258l-140 -265l-110 -206q-80 -150 -107 -205h297q41 0 69.5 -29t28.5 -69.5t-28.5 -69.5t-69.5 -29h-459q-53 0 -84 47q-27 43 -4 97l432 819q27 53 11 112q-18 59 -70 86 q-53 29 -113 13q-53 -14 -88 -68q-20 -35 -59 -46t-74 9q-35 23 -46 62z" />
<glyph unicode="3" d="M64.5 205q11.5 39 46.5 61q35 20 73.5 9t61.5 -46q25 -43 70.5 -62.5t95.5 -6.5q47 14 77.5 53t30.5 90v123q0 61 -43 104t-104 43q-41 0 -70 29t-29 70t29 69.5t70 28.5q61 0 104 43t43 105v81q0 49 -30.5 89t-77.5 53q-49 14 -95.5 -5.5t-70.5 -62.5q-23 -35 -62 -46 t-73 9q-35 23 -46.5 62t9.5 73q57 102 165.5 145.5t221.5 14.5q115 -29 185.5 -122t70.5 -210v-81q0 -145 -105 -246q104 -100 105 -246v-123q0 -117 -71 -210t-185 -122q-113 -33 -221.5 12.5t-165.5 147.5q-21 35 -9.5 74z" />
<glyph unicode="4" d="M57 375l287 901q12 39 48 57.5t77 5.5q68 -25 68 -94q0 -2 -5 -31l-100 -315q-125 -383 -145 -457h176v189q0 41 28.5 69.5t69.5 28.5t69.5 -28.5t28.5 -69.5v-189h66q41 0 69.5 -28.5t28.5 -69.5t-28.5 -69.5t-69.5 -28.5h-66v-189q0 -41 -28.5 -69.5t-69.5 -28.5 t-69.5 28.5t-28.5 69.5v189h-311q-51 0 -80 41q-29 39 -15 88z" />
<glyph unicode="5" d="M113 651v586q0 41 28.5 69.5t69.5 28.5h426q41 0 69.5 -28.5t28.5 -69.5t-28.5 -69.5t-69.5 -28.5h-328v-287q104 35 205 8q113 -29 183.5 -122t70.5 -210v-225q0 -119 -70.5 -211t-183.5 -121q-115 -31 -221.5 13.5t-165.5 146.5q-23 35 -12.5 74t47.5 61q35 20 73.5 9 t61.5 -46q25 -43 71 -62.5t95 -6.5q47 14 77.5 53t30.5 90v225q0 49 -30.5 89t-77.5 53q-49 14 -95 -5.5t-71 -62.5q-16 -29 -47 -42t-64 -3q-73 18 -73 94z" />
<glyph unicode="6" d="M100 303v696q0 117 71 210.5t185 121.5q113 29 221.5 -14t165.5 -146q20 -35 9 -73.5t-45 -61.5q-35 -20 -74 -9t-60 46q-27 43 -72.5 62.5t-92.5 5.5q-49 -12 -80 -52t-31 -90v-180q68 33 147 33q143 0 243.5 -100.5t100.5 -243.5v-205q0 -143 -100 -243.5t-244 -100.5 q-141 0 -242.5 100.5t-101.5 243.5zM297 303q0 -61 43 -104t104.5 -43t104.5 43t43 104v205q0 61 -43 104t-104.5 43t-104.5 -43t-43 -104v-205z" />
<glyph unicode="7" d="M76 1073v164q0 41 28.5 69.5t69.5 28.5h492q47 0 77 -37q29 -37 19 -84l-287 -1179q-10 -41 -44 -62.5t-75 -11.5q-76 23 -75 96q0 6 4 23l110 455q98 434 146 604h-269v-66q0 -41 -28.5 -69.5t-69.5 -28.5t-69.5 28.5t-28.5 69.5z" />
<glyph unicode="8" d="M82 303v123q0 141 104 246q-104 104 -104 246v81q0 143 101.5 243.5t242.5 100.5q143 0 243.5 -100t100.5 -244v-81q0 -143 -102 -246q102 -102 102 -246v-123q0 -143 -100.5 -243.5t-243.5 -100.5q-141 0 -242.5 100.5t-101.5 243.5zM279 303q0 -61 44 -104t103 -43 q61 0 104 43t43 104v123q0 61 -43 104t-104 43q-59 0 -103 -43t-44 -104v-123zM279 918q0 -61 44 -104.5t103 -43.5q61 0 104 43t43 105v81q0 61 -43 104.5t-104 43.5q-59 0 -103 -43t-44 -105v-81z" />
<glyph unicode="9" d="M63 795v204q0 143 101.5 243.5t243.5 100.5q143 0 243.5 -100t100.5 -244v-696q0 -119 -71 -211t-183 -121q-113 -33 -221.5 12.5t-165.5 147.5q-20 35 -10 74t44 61q35 20 75 9t61 -46q25 -43 71.5 -62.5t93.5 -6.5q47 14 78 53t31 90v180q-68 -33 -147 -32 q-141 0 -243 100.5t-102 243.5zM260 795q0 -61 44 -104.5t104 -43.5q61 0 104 43t43 105v204q0 61 -43 104.5t-104 43.5q-59 0 -103.5 -43t-44.5 -105v-204z" />
<glyph unicode=":" horiz-adv-x="393" d="M78 78q0 49 34.5 84t84 35t84 -35t34.5 -84t-34.5 -84t-84 -35t-84 35t-34.5 84zM78 856q0 49 34.5 84t84 35t84 -35t34.5 -84t-34.5 -84t-84 -35t-84 35t-34.5 84z" />
<glyph unicode=";" horiz-adv-x="393" d="M72 98q0 39 26.5 65.5t65.5 26.5h65q39 0 67 -26.5t28 -65.5v-98q0 -61 -34 -111.5t-89 -72.5q-37 -16 -72 -2t-51.5 51t-1 71.5t52.5 51.5q8 2 8 12v8q-65 24 -65 90zM78 856q0 49 34.5 84t84 35t84 -35t34.5 -84t-34.5 -84t-84 -35t-84 35t-34.5 84z" />
<glyph unicode="&#x3c;" d="M66 590q0 47 34 76l492 409q31 27 72 23t67 -35q23 -29 23 -64q0 -45 -37 -75l-154 -129l-246 -205l246 -205l154 -129q37 -31 37 -76q0 -35 -23 -63q-27 -31 -67.5 -35t-71.5 22l-492 410q-34 29 -34 76z" />
<glyph unicode="=" d="M82 426q0 41 28.5 69.5t69.5 28.5h492q41 0 69.5 -28.5t28.5 -69.5t-28.5 -69.5t-69.5 -28.5h-492q-41 0 -69.5 28.5t-28.5 69.5zM82 754q0 41 28.5 69.5t69.5 28.5h492q41 0 69.5 -28.5t28.5 -69.5t-28.5 -70t-69.5 -29h-492q-41 0 -69.5 29t-28.5 70z" />
<glyph unicode="&#x3e;" d="M98 180q0 45 35 76l156 129l246 205q-35 27 -121 100.5l-125 104.5l-156 129q-35 31 -35 75q0 35 23 64q27 31 66.5 35t72.5 -23l492 -409q35 -29 34.5 -76t-34.5 -76l-492 -410q-33 -27 -73 -22.5t-66 35.5q-23 28 -23 63z" />
<glyph unicode="?" horiz-adv-x="731" d="M28.5 1098q-10.5 39 10.5 73q72 129 229 166q154 29 277 -63q125 -100 135 -250q10 -158 -98 -266l-105 -105q-43 -47 -43 -104v-164q0 -41 -28.5 -69.5t-69.5 -28.5t-69.5 28.5t-28.5 69.5v164q0 137 100 242l104 104q49 51 41 115q-4 66 -57 106.5t-119 28.5 q-66 -16 -98 -72q-20 -35 -60 -46t-75 9q-35 23 -45.5 62zM217 78q0 49 35 84t84 35t84 -35t35 -84t-35 -84t-84 -35t-84 35t-35 84z" />
<glyph unicode="@" horiz-adv-x="1564" d="M96 283v368q0 283 201 484q203 203 485.5 202.5t485.5 -202.5q201 -201 200 -484v-381q0 -123 -87 -210t-210 -87h-409q-123 0 -210 87t-87 210t87 210t210 87h112v109q0 70 -69 100q-68 27 -123 -24q-61 -61 -131 0q-27 27 -27 65q0 37 29 66q63 61 149 79.5 t172.5 -16.5t133.5 -106q51 -72 51 -164v-518h112q47 0 80 32.5t33 79.5v381q0 209 -145 355q-147 147 -357 147q-207 0 -354 -147.5t-147 -354.5v-368q0 -209 147 -357q145 -145 354 -145h226q39 0 65.5 -27.5t26.5 -64.5q0 -39 -26.5 -65.5t-65.5 -26.5h-226 q-285 0 -485.5 200.5t-200.5 485.5zM649 270q0 -47 33 -79.5t80 -32.5h112v225h-112q-47 0 -80 -33t-33 -80z" />
<glyph unicode="A" horiz-adv-x="884" d="M20 84l328 1188q8 33 34 52t60.5 19t60 -19t34.5 -52l327 -1188q4 -14 4 -28q0 -25 -13 -48q-19 -35 -58 -45q-14 -4 -28 -3q-25 0 -48 12q-35 19 -45 59q0 2 -17 59l-18 68q-14 53 -25 88h-348l-43 -156q-16 -57 -16 -59q-10 -39 -45 -59q-23 -13 -48 -12q-13 0 -28 3 q-39 10 -58 45q-13 23 -13 48q-1 14 3 28zM324 442h237q-12 49 -37 139l-45 161l-37 132l-36 -132l-46 -161q-24 -90 -36 -139z" />
<glyph unicode="B" horiz-adv-x="876" d="M106 66v1171q0 41 29 69.5t70 28.5h246q141 0 242.5 -100t101.5 -244v-73q0 -141 -105 -246q104 -104 105 -246v-115q0 -143 -101.5 -243.5t-242.5 -100.5h-246q-41 0 -70 29t-29 70zM303 164h148q61 0 104 43t43 104v115q0 61 -43 104t-104 43h-148v-409zM303 770h148 q61 0 104 43t43 105v73q0 61 -43 104.5t-104 43.5h-148v-369z" />
<glyph unicode="C" horiz-adv-x="788" d="M82 303v696q0 117 70.5 210.5t183.5 121.5q47 13 93 13q66 0 128 -26q106 -44 166 -147q15 -24 15 -49q0 -12 -3 -24q-10 -39 -47 -62q-22 -13 -47 -13q-13 0 -27 4q-39 11 -61 46q-25 43 -71 63q-27 11 -54 11q-20 0 -41 -6q-47 -12 -77.5 -52t-30.5 -90v-696 q0 -51 30.5 -90t77.5 -53q19 -5 38 -5q29 0 57 12q46 19 71 62q23 35 61 46q14 4 27 4q24 0 47 -13q37 -23 47 -61q3 -12 3 -24q0 -26 -15 -50q-59 -102 -166 -146q-63 -26 -128 -26q-46 0 -93 12q-113 29 -183.5 121t-70.5 211z" />
<glyph unicode="D" horiz-adv-x="876" d="M106 66v1171q0 41 29 69.5t70 28.5h246q143 0 243.5 -100t100.5 -244v-680q0 -143 -100.5 -243.5t-243.5 -100.5h-246q-41 0 -70 29t-29 70zM303 164h148q61 0 104 43t43 104v680q0 61 -43 104.5t-104 43.5h-148v-975z" />
<glyph unicode="E" horiz-adv-x="753" d="M106 66v1171q0 41 29 69.5t70 28.5h409q41 0 70 -28.5t29 -69.5t-29 -69.5t-70 -28.5h-311v-369h270q41 0 70 -28.5t29 -69.5t-29 -70t-70 -29h-270v-409h311q41 0 70 -29t29 -69.5t-29 -69.5t-70 -29h-409q-41 0 -70 29t-29 70z" />
<glyph unicode="F" horiz-adv-x="737" d="M106 66v1171q0 41 29 69.5t70 28.5h409q41 0 70 -28.5t29 -69.5t-29 -69.5t-70 -28.5h-311v-369h270q41 0 70 -28.5t29 -69.5t-29 -70t-70 -29h-270v-507q0 -41 -28.5 -70t-69.5 -29t-70 29t-29 70z" />
<glyph unicode="G" horiz-adv-x="843" d="M82 303v696q0 117 70.5 210.5t185.5 121.5q45 11 89 12q67 0 132 -26q109 -43 166 -146q13 -22 13 -46q0 -13 -4 -27q-11 -39 -46 -62q-22 -13 -47 -13q-13 0 -27 4q-39 11 -59 46q-27 43 -73 63q-27 11 -53 11q-20 0 -40 -6q-49 -12 -79.5 -52t-30.5 -90v-696 q0 -61 44 -104t103 -43q61 0 104 43t43 104v229h-106q-41 0 -69.5 29t-28.5 70t28.5 69.5t69.5 28.5h205q41 0 69.5 -28.5t28.5 -69.5v-328q0 -143 -100.5 -243.5t-243.5 -100.5q-141 0 -242.5 100.5t-101.5 243.5z" />
<glyph unicode="H" horiz-adv-x="901" d="M106 57v1188q0 41 29 69.5t70 28.5t69.5 -28.5t28.5 -69.5v-475h295v475q0 41 28.5 69.5t69.5 28.5t70 -28.5t29 -69.5v-1188q0 -41 -29 -69.5t-70 -28.5t-69.5 28.5t-28.5 69.5v516h-295v-516q0 -41 -28.5 -69.5t-69.5 -28.5t-70 28.5t-29 69.5z" />
<glyph unicode="I" horiz-adv-x="409" d="M106 57v1188q0 41 29 69.5t70 28.5t69.5 -28.5t28.5 -69.5v-1188q0 -41 -28.5 -69.5t-69.5 -28.5t-70 28.5t-29 69.5z" />
<glyph unicode="J" horiz-adv-x="681" d="M22 66q-4 14 -4 27q0 24 13 46q20 35 60 46q14 4 28 4q25 0 47 -13q33 -20 74 -20t73 20q74 39 74 127v942q0 41 28.5 69.5t69.5 28.5t70 -28.5t29 -69.5v-942q0 -92 -46 -172t-126 -127q-78 -45 -174 -45q-94 0 -170 45q-35 23 -46 62z" />
<glyph unicode="K" horiz-adv-x="862" d="M106 57v1188q0 41 29 69.5t70 28.5t69.5 -28.5t28.5 -69.5v-440l354 498q25 33 65 38q9 1 17 2q30 0 56 -18q35 -23 41 -62q1 -8 1 -16q0 -31 -20 -59l-307 -432l317 -656q9 -20 9 -41q0 -17 -6 -34q-13 -39 -50 -56q-21 -11 -43 -10q-16 0 -31 5q-38 13 -57 50l-268 559 l-78 -106v-410q0 -41 -28.5 -69.5t-69.5 -28.5t-70 28.5t-29 69.5z" />
<glyph unicode="L" horiz-adv-x="712" d="M106 66v1179q0 41 29 69.5t70 28.5t69.5 -28.5t28.5 -69.5v-1081h311q41 0 70 -29t29 -69.5t-29 -69.5t-70 -29h-409q-41 0 -70 29t-29 70z" />
<glyph unicode="M" horiz-adv-x="1064" d="M106 57v1188q0 80 76 96q15 3 28 3q58 0 83 -58l84 -178l84 -178l71 -150l154 328l84 178q30 58 84 58q12 0 27 -3q35 -8 56 -34.5t21 -61.5v-1188q0 -41 -28.5 -69.5t-69.5 -28.5t-69.5 28.5t-28.5 69.5v748l-96 -203q-8 -18 -24.5 -51t-20.5 -43q-27 -57 -89 -57 q-63 0 -90 57q-4 10 -20 43l-25 51l-94 203v-748q0 -41 -28.5 -69.5t-69.5 -28.5t-70 28.5t-29 69.5z" />
<glyph unicode="N" horiz-adv-x="983" d="M106 57v1188q0 80 76 96q14 3 26 4q53 0 85 -57l129 -268l258 -533v758q0 41 28.5 69.5t69.5 28.5t70 -28.5t29 -69.5v-1188q0 -35 -21.5 -61.5t-54.5 -34.5q-12 -3 -24 -3q-22 0 -42 10q-31 15 -45 46l-129 269l-258 532v-758q0 -41 -28.5 -69.5t-69.5 -28.5t-70 28.5 t-29 69.5z" />
<glyph unicode="O" d="M82 303v696q0 143 100.5 243.5t243.5 100.5t243.5 -100t100.5 -244v-696q0 -143 -100.5 -243.5t-243.5 -100.5t-243.5 100.5t-100.5 243.5zM279 303q0 -61 43 -104t104 -43t104 43t43 104v696q0 61 -43 104.5t-104 43.5t-104 -43t-43 -105v-696z" />
<glyph unicode="P" horiz-adv-x="819" d="M106 57v1180q0 41 29 69.5t70 28.5h246q143 0 243.5 -100t100.5 -244v-114q0 -143 -100.5 -244t-243.5 -101h-148v-475q0 -41 -28.5 -69.5t-69.5 -28.5t-70 28.5t-29 69.5zM303 729h148q61 0 104 43t43 105v114q0 61 -43 104.5t-104 43.5h-148v-410z" />
<glyph unicode="Q" d="M82 303v696q0 143 101.5 243.5t242.5 100.5q143 0 243.5 -100t100.5 -244v-696q0 -135 -94 -235l82 -142q13 -22 13 -46q0 -13 -4 -27q-11 -39 -46 -60q-24 -15 -50 -15q-12 0 -24 3q-39 10 -59 47l-82 141q-45 -10 -80 -10q-141 0 -242.5 100.5t-101.5 243.5zM279 303 q0 -61 43 -104t104 -43t104 43t43 104v696q0 61 -43 104.5t-104 43.5t-104 -43t-43 -105v-696z" />
<glyph unicode="R" d="M106 57v1180q0 41 29 69.5t70 28.5h246q143 0 243.5 -100t100.5 -244v-114q0 -98 -49.5 -180.5t-135.5 -125.5l178 -479q8 -18 8 -36q0 -19 -9 -39q-17 -38 -56 -52q-18 -7 -36 -7q-20 0 -39 9q-36 16 -52 56l-190 509h-111v-475q0 -41 -28.5 -69.5t-69.5 -28.5t-70 28.5 t-29 69.5zM303 729h148q61 0 104 43t43 105v114q0 61 -43 104.5t-104 43.5h-148v-410z" />
<glyph unicode="S" horiz-adv-x="782" d="M59 210q10 40 47 60q22 13 47 14q13 0 27 -4q39 -11 62 -47q35 -61 104 -75q16 -3 31 -3q53 0 96 33q51 35 62 113q1 8 0 16q0 62 -43 107l-328 336q-98 98 -98 234q0 16 2 32q12 158 135 248q95 70 206 70q34 0 70 -7q158 -37 230 -166q13 -22 13 -46q0 -13 -4 -27 q-11 -39 -46 -62q-22 -13 -47 -13q-13 0 -27 4q-39 11 -59 46q-35 57 -99 72q-15 3 -29 3q-48 0 -89 -32q-55 -41 -58 -106q-1 -8 -1 -15q0 -56 42 -98l326 -336q102 -105 101 -244q0 -15 -1 -30q-12 -156 -139 -256q-93 -73 -209 -73q-37 0 -76 7q-162 37 -235 170 q-15 24 -16 50q0 13 3 25z" />
<glyph unicode="T" horiz-adv-x="778" d="M25 1237q0 41 28.5 69.5t69.5 28.5h532q41 0 70 -28.5t29 -69.5t-29 -69.5t-70 -28.5h-168v-1082q0 -41 -28.5 -69.5t-69.5 -28.5t-69.5 28.5t-28.5 69.5v1082h-168q-41 0 -69.5 28.5t-28.5 69.5z" />
<glyph unicode="U" horiz-adv-x="868" d="M90 303v942q0 41 28.5 69.5t69.5 28.5t70 -28.5t29 -69.5v-942q0 -61 43 -104t104 -43q59 0 103.5 43t44.5 104v942q0 41 28.5 69.5t69.5 28.5t69.5 -28.5t28.5 -69.5v-942q0 -143 -101.5 -243.5t-242.5 -100.5q-143 0 -243.5 100.5t-100.5 243.5z" />
<glyph unicode="V" horiz-adv-x="917" d="M37 1219q-4 14 -4 27q0 25 13 48q19 35 60 45q13 4 27 4q25 0 48 -13q36 -19 46 -58l80 -293l154 -553l151 553l80 293q10 39 46 58q23 13 49 13q13 0 26 -4q41 -10 60 -45q13 -23 13 -48q0 -13 -3 -27l-328 -1188q-25 -72 -94 -72q-72 0 -96 72z" />
<glyph unicode="W" horiz-adv-x="1429" d="M45 1223q-3 12 -3 23q0 25 14 49q22 36 61 46q13 3 25 4q26 0 49 -15q34 -22 45 -62l63 -264l129 -527l127 527l63 264q16 76 97 75q78 0 94 -75l63 -264l129 -527l127 527l64 264q10 41 44 62q23 15 49 15q12 0 26 -4q41 -10 61 -45q14 -23 14 -48q0 -13 -4 -25 l-286 -1188q-16 -76 -95 -76q-80 0 -96 76l-63 264l-127 526l-129 -526l-64 -264q-16 -76 -94 -76q-80 0 -96 76z" />
<glyph unicode="X" horiz-adv-x="864" d="M32 27q-6 16 -6 32q0 22 11 41l285 572l-265 528q-11 21 -10 44q0 16 5 32q13 39 48 57q21 11 44 11q16 0 32 -6q39 -13 57 -50l199 -397l199 397q18 37 57 50q16 6 32 6q22 0 42 -11q37 -18 50 -57q6 -16 6 -32q0 -22 -11 -44l-264 -528l284 -572q11 -20 11 -41 q0 -16 -5 -32q-13 -39 -51 -58q-20 -11 -41 -10q-16 0 -32 5q-39 13 -58 48l-219 441l-219 -441q-18 -35 -57 -48q-16 -6 -33 -5q-22 0 -43 10q-35 19 -48 58z" />
<glyph unicode="Y" horiz-adv-x="823" d="M32 1276q13 39 50 57q20 11 42 11q16 0 32 -6q39 -13 57 -50l68 -135l131 -262l131 262l67 135q18 37 58 50q16 6 32 6q22 0 41 -11q37 -18 51 -57q6 -16 5 -32q0 -22 -11 -44l-276 -551v-592q0 -41 -28.5 -69.5t-69.5 -28.5t-70 28.5t-29 69.5v592l-276 551 q-11 21 -11 44q0 16 6 32z" />
<glyph unicode="Z" horiz-adv-x="786" d="M49 66q0 25 8 38l183 437q223 524 252 598h-345q-41 0 -69.5 28.5t-28.5 69.5t28.5 69.5t69.5 28.5h492q51 0 82 -43q16 -29 16 -55q0 -25 -8 -39l-184 -438l-250 -596h344q41 0 69.5 -29t28.5 -69.5t-28.5 -69.5t-69.5 -29h-492q-51 0 -81 43q-17 29 -17 56z" />
<glyph unicode="[" horiz-adv-x="524" d="M106 -98v1499q0 41 29 69.5t70 28.5h205q41 0 69.5 -28.5t28.5 -69.5t-28.5 -69.5t-69.5 -28.5h-107v-1303h107q41 0 69.5 -28.5t28.5 -69.5t-28.5 -70t-69.5 -29h-205q-41 0 -70 29t-29 70z" />
<glyph unicode="\" d="M88 1294q-14 37 3.5 74t56 51.5t74.5 -3t50 -56.5l492 -1352q16 -37 -1.5 -73.5t-56 -51t-75.5 3t-51 56.5z" />
<glyph unicode="]" horiz-adv-x="524" d="M16 -98q0 41 29 69.5t70 28.5h106v1303h-106q-41 0 -70 28.5t-29 69.5t29 69.5t70 28.5h204q41 0 70 -28.5t29 -69.5v-1499q0 -41 -29 -70t-70 -29h-204q-41 0 -70 29t-29 70z" />
<glyph unicode="^" horiz-adv-x="1024" d="M91 870q-3 41 24 72l323 369q27 33 74 32.5t74 -32.5l323 -369q27 -31 24 -72t-34 -67q-31 -29 -71 -26t-68 34l-90 104l-158 181l-158 -181l-90 -104q-29 -31 -68.5 -34t-70.5 26q-31 26 -34 67z" />
<glyph unicode="_" horiz-adv-x="1024" d="M-98 -229q0 41 28.5 69.5t69.5 28.5h1024q41 0 69.5 -28.5t28.5 -69.5t-28.5 -70t-69.5 -29h-1024q-41 0 -69.5 29t-28.5 70z" />
<glyph unicode="`" horiz-adv-x="1024" d="M321.5 1281q-2.5 36 22.5 65q25 27 60.5 28.5t64.5 -22.5l205 -185q27 -25 29 -60.5t-23 -64.5q-25 -27 -60.5 -28.5t-62.5 22.5l-205 185q-28 24 -30.5 60z" />
<glyph unicode="a" horiz-adv-x="720" d="M31 270q0 123 87 210t210 87h112v109q0 74 -67 100q-24 10 -46 10q-41 0 -73 -34q-27 -27 -66 -27q-37 0 -63 27q-29 29 -29 65.5t29 65.5q63 63 149 81q29 6 57 5q56 0 111 -23q84 -35 133.5 -107.5t49.5 -162.5v-610q0 -39 -27 -66t-66 -27h-204q-123 0 -210 87 t-87 210zM215 270q0 -47 33 -79.5t80 -32.5h112v225h-112q-47 0 -80 -33t-33 -80z" />
<glyph unicode="b" horiz-adv-x="794" d="M113 66v1220q0 39 26.5 65.5t65.5 26.5t65.5 -26.5t26.5 -65.5v-325h113q123 0 210 -87.5t87 -209.5v-394q0 -123 -87.5 -210t-209.5 -87h-205q-39 0 -65.5 27t-26.5 66zM297 158h113q47 0 79.5 32.5t32.5 79.5v394q0 47 -32.5 79.5t-79.5 32.5h-113v-618z" />
<glyph unicode="c" horiz-adv-x="671" d="M88 262v410q0 92 49 165.5t133 108.5q57 23 115 23q29 0 58 -5q87 -17 151 -83q29 -29 29 -66q0 -35 -29 -63.5t-66 -28.5q-35 0 -63 29q-35 35 -76 34q-22 0 -47 -10q-70 -31 -70 -104v-410q0 -74 70 -104q24 -10 47 -10q42 0 76 34q29 29 63 29q37 0 66 -28.5t29 -65.5 t-29 -66q-63 -63 -151 -81q-29 -6 -58 -5q-58 0 -115 23q-84 35 -133 108.5t-49 165.5z" />
<glyph unicode="d" horiz-adv-x="794" d="M88 270v394q0 123 87 210t210 87h113v325q0 39 26.5 65.5t65.5 26.5t65.5 -26.5t26.5 -65.5v-1220q0 -39 -26.5 -66t-65.5 -27h-205q-123 0 -210 87t-87 210zM272 270q0 -47 33 -79.5t80 -32.5h113v618h-113q-47 0 -80 -32.5t-33 -79.5v-394z" />
<glyph unicode="e" horiz-adv-x="753" d="M88 262v410q0 123 87 210t210 87t210 -87t87 -210v-205q0 -39 -26.5 -65.5t-65.5 -26.5h-318v-113q0 -74 70 -104q25 -9 47 -9q43 0 76 33q29 29 63 29q39 0 68 -29q27 -27 27 -65.5t-27 -65.5q-68 -63 -153 -81q-28 -6 -56 -5q-57 0 -115 23q-86 35 -135 108.5 t-49 165.5zM272 559h226v113q0 47 -33 79.5t-80 32.5t-80 -32.5t-33 -79.5v-113z" />
<glyph unicode="f" horiz-adv-x="606" d="M23 868q0 39 26.5 66t65.5 27h71v120q0 123 87 210t210 87q39 0 65.5 -26.5t26.5 -65.5t-26.5 -65.5t-65.5 -26.5q-47 0 -79.5 -33t-32.5 -80v-120h112q39 0 65.5 -27t26.5 -66t-26.5 -65.5t-65.5 -26.5h-112v-719q0 -39 -27 -65.5t-65.5 -26.5t-65.5 26.5t-27 65.5v719 h-71q-39 0 -65.5 26.5t-26.5 65.5z" />
<glyph unicode="g" horiz-adv-x="786" d="M88 270v394q0 123 87 210t210 87h205q39 0 65.5 -27t26.5 -66v-1015q0 -92 -49 -166t-133 -109q-57 -23 -115 -23q-29 0 -58 6q-87 17 -151 81q-29 29 -29 65.5t29 65t64 28.5q37 0 65 -28q35 -35 76 -35q22 0 47 10q70 31 70 105v120h-113q-123 0 -210 87t-87 210z M272 270q0 -47 33 -79.5t80 -32.5h113v618h-113q-47 0 -80 -32.5t-33 -79.5v-394z" />
<glyph unicode="h" horiz-adv-x="802" d="M113 57v1229q0 39 26.5 65.5t65.5 26.5t65.5 -26.5t26.5 -65.5v-325h113q123 0 210 -87.5t87 -209.5v-607q0 -39 -27 -65.5t-66 -26.5t-65.5 26.5t-26.5 65.5v607q0 47 -32.5 79.5t-79.5 32.5h-113v-719q0 -39 -26.5 -65.5t-65.5 -26.5t-65.5 26.5t-26.5 65.5z" />
<glyph unicode="i" horiz-adv-x="409" d="M92 1184q0 47 33 79.5t80 32.5t79.5 -32.5t32.5 -79.5t-32.5 -80t-79.5 -33t-80 33t-33 80zM113 57v820q0 39 26.5 65.5t65.5 26.5t65.5 -27t26.5 -65v-820q0 -39 -26.5 -65.5t-65.5 -26.5t-65.5 26.5t-26.5 65.5z" />
<glyph unicode="j" horiz-adv-x="425" d="M-76 -352q0 39 26.5 65.5t65.5 26.5q47 0 80 32.5t33 80.5v1024q0 39 26.5 65.5t65.5 26.5t65.5 -27t26.5 -65v-1024q0 -123 -87 -210t-210 -87q-39 0 -65.5 26.5t-26.5 65.5zM109 1184q0 47 32.5 79.5t79.5 32.5t80 -32.5t33 -79.5t-33 -80t-80 -33t-79.5 33t-32.5 80z " />
<glyph unicode="k" horiz-adv-x="778" d="M113 57v1229q0 39 26.5 65.5t65.5 26.5t65.5 -26.5t26.5 -65.5v-672l289 324q27 29 64 31h6q35 0 61 -25q31 -26 31 -68q0 -35 -25 -61l-236 -264l248 -449q12 -22 12 -45q0 -13 -4 -26q-10 -37 -45 -54q-22 -12 -45 -12q-12 0 -24 3q-37 9 -56 44l-215 394l-61 -68v-281 q0 -39 -26.5 -65.5t-65.5 -26.5t-65.5 26.5t-26.5 65.5z" />
<glyph unicode="l" horiz-adv-x="409" d="M106 199v1087q0 39 28 65.5t65 26.5q39 0 65.5 -26.5t26.5 -65.5v-1087q0 -39 37 -62q33 -20 42 -56q3 -12 3 -24q0 -24 -13 -47q-18 -33 -55 -42q-12 -3 -24 -3q-24 0 -45 12q-59 35 -94.5 94.5t-35.5 127.5z" />
<glyph unicode="m" horiz-adv-x="1212" d="M113 57v811q0 39 26.5 66t65.5 27h614q121 0 209 -87.5t88 -209.5v-607q0 -39 -27.5 -65.5t-64.5 -26.5q-39 0 -65.5 26.5t-26.5 65.5v607q0 47 -33 79.5t-80 32.5h-112v-719q0 -39 -28 -65.5t-65 -26.5q-39 0 -65.5 26.5t-26.5 65.5v719h-225v-719q0 -39 -27.5 -65.5 t-64.5 -26.5q-39 0 -65.5 26.5t-26.5 65.5z" />
<glyph unicode="n" horiz-adv-x="802" d="M113 57v811q0 39 26.5 66t65.5 27h205q123 0 210 -87.5t87 -209.5v-607q0 -39 -28 -65.5t-65 -26.5q-39 0 -65.5 26.5t-26.5 65.5v607q0 47 -32.5 79.5t-79.5 32.5h-113v-719q0 -39 -27.5 -65.5t-64.5 -26.5q-39 0 -65.5 26.5t-26.5 65.5z" />
<glyph unicode="o" horiz-adv-x="770" d="M88 262v410q0 123 87 210t210 87t210 -87t87 -210v-410q0 -123 -87 -210t-210 -87t-210 87t-87 210zM272 262q0 -47 33 -79.5t80 -32.5t80 32.5t33 79.5v410q0 47 -33 79.5t-80 32.5t-80 -32.5t-33 -79.5v-410z" />
<glyph unicode="p" horiz-adv-x="794" d="M113 -352v1220q0 39 26.5 66t65.5 27h205q123 0 210 -87.5t87 -209.5v-394q0 -123 -87.5 -210t-209.5 -87h-113v-325q0 -39 -26.5 -65.5t-65.5 -26.5t-65.5 26.5t-26.5 65.5zM297 158h113q47 0 79.5 32.5t32.5 79.5v394q0 47 -32.5 79.5t-79.5 32.5h-113v-618z" />
<glyph unicode="q" horiz-adv-x="794" d="M88 270v394q0 123 87 210t210 87h205q39 0 65.5 -27t26.5 -66v-1220q0 -39 -26.5 -65.5t-65.5 -26.5t-65.5 26.5t-26.5 65.5v325h-113q-123 0 -210 87t-87 210zM272 270q0 -47 33 -79.5t80 -32.5h113v618h-113q-47 0 -80 -32.5t-33 -79.5v-394z" />
<glyph unicode="r" horiz-adv-x="612" d="M113 57v811q0 39 26.5 66t65.5 27h205q78 0 147 -39q35 -20 44 -57q3 -11 3 -23q0 -24 -12 -47q-20 -33 -56 -42q-12 -3 -24 -3q-24 0 -47 12q-27 14 -55 14h-113v-719q0 -39 -26.5 -65.5t-65.5 -26.5t-65.5 26.5t-26.5 65.5z" />
<glyph unicode="s" horiz-adv-x="673" d="M69 178q9 37 42 55q23 12 47 13q12 0 24 -3q37 -9 56 -42q20 -43 71 -49q9 -2 18 -2q35 0 64 26q37 31 33 80q-2 51 -41 76l-193 133q-106 78 -116 209q-1 12 -1 24q0 117 91 199q82 72 179 72q24 0 50 -4q131 -23 197 -136q12 -22 12 -45q0 -12 -3 -24q-9 -37 -44 -55 q-22 -12 -46 -13q-12 0 -24 3q-37 9 -55 42q-20 39 -65 45q-10 2 -20 3q-30 0 -56 -25q-31 -24 -31 -64q0 -49 39 -80l190 -133q111 -80 121 -215q1 -12 1 -24q0 -121 -93 -205q-81 -74 -184 -74q-25 0 -51 4q-137 23 -203 140q-12 22 -12 45q0 12 3 24z" />
<glyph unicode="t" horiz-adv-x="606" d="M23 868q0 39 26.5 66t65.5 27h71v325q0 39 27 65.5t65.5 26.5t65.5 -26.5t27 -65.5v-325h112q39 0 65.5 -27t26.5 -66t-26.5 -65.5t-65.5 -26.5h-112v-514q0 -47 32.5 -79.5t79.5 -32.5q39 0 65.5 -27t26.5 -66t-26.5 -65.5t-65.5 -26.5q-123 0 -210 87t-87 210v514h-71 q-39 0 -65.5 26.5t-26.5 65.5z" />
<glyph unicode="u" horiz-adv-x="802" d="M96 270v607q0 39 27 65.5t65.5 26.5t65.5 -27t27 -65v-607q0 -47 32.5 -79.5t79.5 -32.5h113v719q0 39 26.5 65.5t65.5 26.5t65.5 -27t26.5 -65v-811q0 -39 -26.5 -66t-65.5 -27h-205q-123 0 -210 87t-87 210z" />
<glyph unicode="v" horiz-adv-x="757" d="M45 850q-4 14 -4 27q0 22 11 44q17 34 54 44q14 4 27 3q22 0 44 -11q34 -17 44 -54l51 -172l107 -352l106 352l52 172q10 37 44 54q21 11 43 11q13 0 27 -3q37 -10 55 -44q11 -21 10 -44q0 -13 -3 -27l-246 -819q-8 -29 -32.5 -47.5t-55.5 -18.5q-63 0 -88 66z" />
<glyph unicode="w" horiz-adv-x="1101" d="M51 854q-4 13 -3 25q0 23 12 45q19 33 57 43q12 3 24 3q24 0 45 -14q33 -20 43 -57q16 -74 37 -145l35 -142l43 -176l46 181.5l34 136.5q20 72 37 145q8 31 32.5 50.5t55.5 19.5q33 0 57.5 -19.5t32.5 -50.5q16 -74 37 -145l35 -142l43 -176q18 68 45.5 181.5t34.5 136.5 q20 72 36 145q10 37 42 57q21 14 45 14q12 0 24 -3q37 -10 57 -43q14 -22 14 -46q0 -12 -3 -24l-205 -819q-8 -31 -33 -50.5t-57 -19.5q-31 0 -55.5 19.5t-32.5 50.5q-16 74 -37 145l-33 132l-47 184q-18 -66 -44 -175.5t-34 -140.5q-20 -72 -37 -145q-8 -31 -32.5 -50.5 t-57.5 -19.5q-31 0 -55.5 19.5t-32.5 50.5z" />
<glyph unicode="x" horiz-adv-x="737" d="M51 31q-4 13 -3 26q0 23 11 45l205 373l-196 356q-12 22 -12 46q0 13 3 25q10 36 45 54q21 12 44 12q13 0 26 -3q37 -10 55 -43l140 -256l141 256q18 33 54 43q13 4 26 3q23 0 45 -12q35 -18 45 -54q4 -13 4 -25q0 -23 -12 -46l-197 -356l205 -373q12 -22 12 -45 q0 -13 -4 -26q-10 -37 -45 -54q-23 -12 -47 -12q-12 0 -24 3q-36 9 -54 44l-149 271l-148 -271q-18 -35 -55 -44q-12 -3 -24 -3q-24 0 -46 12q-35 17 -45 54z" />
<glyph unicode="y" horiz-adv-x="755" d="M10 -352q0 39 26.5 65.5t65.5 26.5t69 22.5t40 57.5l70 237l-238 793q-4 13 -4 26q0 23 12 45q18 34 55 44q13 4 26 3q22 0 43 -11q34 -17 46 -54l156 -524l158 524q10 37 45 54q22 11 43 11l26 -3q37 -10 56 -44q12 -22 11 -45q0 -13 -3 -26l-248 -819l-78 -264 q-27 -94 -106 -152q-84 -59 -179 -59q-39 0 -65.5 26.5t-26.5 65.5z" />
<glyph unicode="z" horiz-adv-x="704" d="M55 66q0 27 8 40l136 265l207 405h-259q-39 0 -65.5 26.5t-26.5 65.5t27 66t65 27h410q51 0 78 -46q14 -23 14 -47q0 -16 -10 -43l-135 -264l-116 -224l-91 -179h260q37 0 64.5 -27t27.5 -65.5t-27.5 -65.5t-64.5 -27h-410q-53 0 -79 43q-13 25 -13 50z" />
<glyph unicode="{" horiz-adv-x="524" d="M0 672q0 41 28.5 69.5t69.5 28.5q29 0 47.5 18.5t18.5 47.5v409q0 109 76.5 185.5t185.5 76.5q41 0 69.5 -28.5t28.5 -69.5t-28.5 -69.5t-69.5 -28.5q-29 0 -47.5 -18.5t-18.5 -47.5v-409q0 -86 -57 -164q57 -78 57 -164v-451q0 -29 18.5 -47t47.5 -18q41 0 69.5 -29 t28.5 -69.5t-28.5 -69.5t-69.5 -29q-109 0 -185.5 77t-76.5 185v451q0 29 -18.5 47t-47.5 18q-41 0 -69.5 29t-28.5 70z" />
<glyph unicode="|" horiz-adv-x="425" d="M125 -352v2048q0 41 28.5 69.5t69.5 28.5t70 -28.5t29 -69.5v-2048q0 -41 -29 -70t-70 -29t-69.5 29t-28.5 70z" />
<glyph unicode="}" horiz-adv-x="524" d="M0 -106.5q0 40.5 28.5 69.5t69.5 29q27 0 46.5 18.5t19.5 46.5v451q0 94 57 164q-57 70 -57 164v409q0 29 -19.5 47.5t-46.5 18.5q-41 0 -69.5 28.5t-28.5 69.5t28.5 69.5t69.5 28.5q109 0 185.5 -76.5t76.5 -185.5v-409q0 -29 18.5 -47.5t47.5 -18.5q41 0 69.5 -28.5 t28.5 -69.5t-28.5 -70t-69.5 -29q-29 0 -47.5 -18t-18.5 -47v-451q0 -109 -76.5 -185.5t-185.5 -76.5q-41 0 -69.5 29t-28.5 69.5z" />
<glyph unicode="~" d="M58.5 477q-7.5 37 13.5 70q66 98 184 121q121 18 215 -52l25 -18q31 -27 69 -16q41 6 60 39q23 33 60.5 41t70.5 -15q31 -25 39 -61.5t-15 -67.5q-63 -98 -184 -121q-115 -23 -213 52l-25 18q-35 23 -69 16q-41 -6 -62 -39q-23 -33 -59.5 -41t-69 14.5t-40 59.5z" />
<glyph unicode="&#xa1;" horiz-adv-x="409" d="M86 856q0 49 35 84t84 35t84 -35t35 -84t-35 -84t-84 -35t-84 35t-35 84zM106 -270v819q0 41 29 69.5t70 28.5t69.5 -28.5t28.5 -69.5v-819q0 -41 -28.5 -70t-69.5 -29t-70 29t-29 70z" />
<glyph unicode="&#xa2;" d="M152 262v410q0 92 50 169t136 111l18 6v82q0 41 29 70t70 29t69.5 -29t28.5 -70v-82q66 -20 115 -71q29 -29 28.5 -70t-29 -69.5t-69.5 -28.5t-70 29q-29 31 -73 30h-2q-25 0 -39 -8q-66 -27 -66 -98v-410q0 -72 66 -98q14 -8 39 -8h2q45 0 73 30q29 29 70 29t69.5 -28.5 t28.5 -69.5t-28 -70q-49 -51 -115 -72v-81q0 -41 -28.5 -70t-69.5 -29t-70 29t-29 70v81l-18 7q-86 35 -136 111.5t-50 168.5z" />
<glyph unicode="&#xa3;" d="M41 672q0 41 28.5 69.5t69.5 28.5h66v270q0 104 62.5 185.5t162.5 108t194.5 -12.5t145.5 -129q23 -35 12.5 -74t-47.5 -61q-35 -20 -73.5 -9t-61.5 46q-16 31 -50 45t-69 4t-57.5 -39t-22.5 -64v-270h148q41 0 69.5 -28.5t28.5 -69.5t-28.5 -70t-69.5 -29h-148v-276 q0 -78 -26 -133h338q41 0 69.5 -29t28.5 -69.5t-28.5 -69.5t-69.5 -29h-574q-35 0 -62.5 23.5t-33.5 58.5t11.5 65.5t51.5 43.5q45 16 72 54t27 85v276h-66q-41 0 -69.5 29t-28.5 70z" />
<glyph unicode="&#xa4;" d="M39 381q0 41 29 70l55 57q-41 78 -41 164t41 164l-55 55q-29 29 -29 69.5t28.5 69.5t69.5 29t70 -29l55 -55q78 41 164 41t164 -41l55 55q29 29 70 29t69.5 -29t28.5 -69.5t-29 -69.5l-55 -55q41 -78 41 -164t-41 -164l55 -57q29 -29 29 -70q0 -39 -28.5 -67.5 t-69.5 -28.5t-70 28l-55 56q-78 -41 -164 -41t-164 41l-55 -56q-29 -29 -70 -28.5t-69.5 29t-28.5 67.5zM279 671.5q0 -61.5 43 -104.5t104 -43t104 43t43 104.5t-43 104.5t-104 43t-104 -43t-43 -104.5z" />
<glyph unicode="&#xa5;" d="M46 1276q13 39 48 57q37 18 76 5t57 -50l68 -135l131 -262l131 262l68 135q18 37 57 50.5t74 -5.5q37 -18 50 -57t-5 -76l-215 -430h94q41 0 69.5 -28.5t28.5 -69.5t-28.5 -70t-69.5 -29h-156v-131h156q41 0 69.5 -28.5t28.5 -69.5t-28.5 -69.5t-69.5 -28.5h-156v-189 q0 -41 -28.5 -69.5t-69.5 -28.5t-69.5 28.5t-28.5 69.5v189h-140q-41 0 -69.5 28.5t-28.5 69.5t28.5 69.5t69.5 28.5h140v131h-140q-41 0 -69.5 29t-28.5 70t28.5 69.5t69.5 28.5h78l-215 430q-18 37 -5 76z" />
<glyph unicode="&#xa6;" horiz-adv-x="425" d="M115 -352v819q0 41 28.5 69.5t69.5 28.5t69.5 -28.5t28.5 -69.5v-819q0 -41 -28.5 -70t-69.5 -29t-69.5 29t-28.5 70zM115 877v819q0 41 28.5 69.5t69.5 28.5t69.5 -28.5t28.5 -69.5v-819q0 -41 -28.5 -70t-69.5 -29t-69.5 29t-28.5 70z" />
<glyph unicode="&#xa7;" d="M137 764q14 80 68 139q-47 66 -49 152q0 133 98 219q104 88 233 65.5t197 -137.5q20 -35 9 -73.5t-46 -61.5q-35 -20 -73.5 -9t-59.5 46q-23 37 -61 41q-33 14 -70 -19q-31 -27 -31 -67q6 -43 33 -66l229 -182q63 -49 91 -122t12 -150q-14 -80 -68 -140q47 -72 47 -151 q4 -135 -96 -221t-233 -64q-129 23 -197 137q-20 35 -9 74t46 62q35 20 73.5 8.5t59 -46t59.5 -40.5q35 -12 72 18q33 29 29 68q0 39 -31 65l-229 183q-138 108 -103 272zM330 729q-8 -51 30 -84l144 -113q14 14 20 41q8 51 -30 84l-144 113q-14 -14 -20 -41z" />
<glyph unicode="&#xa8;" horiz-adv-x="1024" d="M236 1184q0 47 32.5 79.5t79.5 32.5t80 -32.5t33 -79.5t-33 -80t-80 -33t-79.5 33t-32.5 80zM563 1184q0 47 33 79.5t80 32.5t79.5 -32.5t32.5 -79.5t-32.5 -80t-79.5 -33t-80 33t-33 80z" />
<glyph unicode="&#xa9;" horiz-adv-x="1470" d="M49 651.5q0 284.5 201 485t485 200.5q287 0 487.5 -200.5t200.5 -485t-200 -485.5q-203 -203 -488 -203q-283 0 -485 203q-201 201 -201 485.5zM236 651q0 -207 147 -354t352 -147q207 0 354.5 147t147.5 354t-147 355q-145 145 -355 145q-207 0 -352 -145 q-147 -148 -147 -355zM479 508v287q0 88 52.5 156.5t138.5 91t165.5 -10.5t122.5 -108q20 -35 10 -72t-44 -55q-33 -20 -70 -11t-57 43q-23 47 -78 33q-53 -16 -53 -67v-287q0 -53 53 -68q55 -14 78 33q20 33 57 43t70 -10q35 -18 45 -55t-11 -72q-43 -76 -122.5 -108.5 t-165.5 -10t-138.5 91t-52.5 156.5z" />
<glyph unicode="&#xaa;" horiz-adv-x="624" d="M82 815q0 94 68.5 163t162.5 69h56v55q0 43 -41 53t-62 -27q-18 -31 -54 -40t-67 8q-33 18 -42 54t10 69q39 68 112.5 98.5t147.5 7.5q78 -20 125 -81.5t47 -141.5v-430q0 -37 -25.5 -62.5t-62.5 -25.5h-144q-94 0 -162.5 68.5t-68.5 162.5zM258 815.5q0 -22.5 16.5 -39 t38.5 -16.5h56v110h-56q-23 0 -39 -16t-16 -38.5z" />
<glyph unicode="&#xab;" horiz-adv-x="858" d="M78 549q-29 47 0 96l131 238q20 35 59 47t76 -8q49 -29 49 -86q0 -25 -12 -48l-41 -73l-64 -117q20 -41 70 -127q23 -37 43 -80q12 -23 12 -47q0 -57 -49 -86q-37 -20 -75.5 -8t-59.5 47zM446 549q-29 47 0 96l132 238q20 35 59 47t76 -8q49 -29 49 -86q0 -25 -12 -48 l-41 -73l-64 -117q20 -41 70 -127q23 -37 43 -80q12 -23 12 -47q0 -57 -49 -86q-37 -20 -76 -8t-59 47z" />
<glyph unicode="&#xac;" d="M82 590q0 41 28.5 69.5t69.5 28.5h492q41 0 69.5 -28.5t28.5 -69.5v-246q0 -41 -28.5 -69.5t-69.5 -28.5t-70 28.5t-29 69.5v148h-393q-41 0 -69.5 28.5t-28.5 69.5z" />
<glyph unicode="&#xad;" d="M82 590q0 41 28.5 69.5t69.5 28.5h492q41 0 69.5 -28.5t28.5 -69.5t-28.5 -69.5t-69.5 -28.5h-492q-41 0 -69.5 28.5t-28.5 69.5z" />
<glyph unicode="&#xae;" horiz-adv-x="1470" d="M49 651.5q0 284.5 201 485t485 200.5q287 0 487.5 -200.5t200.5 -485t-200 -485.5q-203 -203 -488 -203q-283 0 -485 203q-201 201 -201 485.5zM236 651q0 -207 147 -354t352 -147q207 0 354.5 147t147.5 354t-147 355q-145 145 -355 145q-207 0 -352 -145 q-147 -148 -147 -355zM500 344v606q0 39 26.5 65.5t65.5 26.5h164q106 0 182 -75.5t76 -180.5q0 -139 -117 -215l104 -180q18 -35 9 -71.5t-43 -57.5q-35 -18 -72 -8t-55 43l-133 231h-21v-184q0 -39 -26.5 -66.5t-67.5 -27.5q-39 0 -65.5 27.5t-26.5 66.5zM686 715h70 q29 0 50 21.5t21 50t-21.5 49t-49.5 20.5h-70v-141z" />
<glyph unicode="&#xaf;" horiz-adv-x="1024" d="M-98 1532q0 41 28.5 69.5t69.5 28.5h1024q41 0 69.5 -28.5t28.5 -69.5t-28.5 -69.5t-69.5 -28.5h-1024q-41 0 -69.5 28.5t-28.5 69.5z" />
<glyph unicode="&#xb0;" horiz-adv-x="641" d="M49 1061q0 113 80 192.5t192.5 79.5t192.5 -79.5t80 -192.5t-80 -193t-192.5 -80t-192.5 79t-80 194zM225 1061q0 -41 28 -68.5t68.5 -27.5t68.5 27.5t28 68.5t-28 68.5t-68.5 27.5t-68.5 -27.5t-28 -68.5z" />
<glyph unicode="&#xb1;" d="M82 65.5q0 40.5 28.5 69.5t69.5 29h492q41 0 69.5 -29t28.5 -69.5t-28.5 -69.5t-69.5 -29h-492q-41 0 -69.5 29t-28.5 69.5zM82 590q0 41 28.5 69.5t69.5 28.5h148v148q0 41 28.5 69.5t69.5 28.5t69.5 -28.5t28.5 -69.5v-148h148q41 0 69.5 -28.5t28.5 -69.5t-28.5 -69.5 t-69.5 -28.5h-148v-148q0 -41 -28.5 -69.5t-69.5 -28.5t-69.5 28.5t-28.5 69.5v148h-148q-41 0 -69.5 28.5t-28.5 69.5z" />
<glyph unicode="&#xb2;" horiz-adv-x="608" d="M82 641q0 25 14 45l246 387q12 23 6 41q-6 23 -24.5 35t-43 6t-32.5 -27q-18 -31 -54 -40t-67 8q-33 18 -42 54t9 69q47 84 144 108q96 23 178 -27q84 -53 104 -145q23 -98 -28 -178q0 8 -160 -250h106q37 0 62.5 -25.5t25.5 -62.5t-25.5 -62.5t-62.5 -25.5h-268 q-51 0 -78 45q-10 25 -10 45z" />
<glyph unicode="&#xb3;" horiz-adv-x="606" d="M83 725q9 35 42 53q31 18 66.5 9t54.5 -39q20 -37 61 -27t41 53v41q0 23 -16.5 39t-38.5 16q-37 0 -62.5 26t-25.5 62.5t25.5 62.5t62.5 26q31 0 47 28q14 27 0 53q-16 29 -47 29t-47 -29q-18 -31 -54 -40t-67 8q-33 18 -42 54t9 69q66 115 201 114.5t201 -114.5 q31 -51 30.5 -117t-30.5 -117q-2 -4 -8.5 -13t-10.5 -14q49 -61 49 -143v-41q0 -80 -47 -141.5t-125 -81.5q-74 -23 -147.5 8t-112.5 98q-18 33 -9 68z" />
<glyph unicode="&#xb4;" horiz-adv-x="1024" d="M323 1107q1 36 29 60l205 185q27 25 62.5 22.5t60.5 -28.5q25 -29 23.5 -65t-29.5 -60l-205 -185q-27 -25 -63.5 -22.5t-59.5 28.5q-24 29 -23 65z" />
<glyph unicode="&#xb5;" horiz-adv-x="819" d="M113 -352v1229q0 39 26.5 65.5t65.5 26.5t65.5 -27t26.5 -65v-615q0 -47 32.5 -79.5t80 -32.5t80 32.5t32.5 79.5v615q0 39 26.5 65.5t65.5 26.5t66 -27t27 -65v-820q0 -39 -27 -65.5t-66 -26.5q-43 0 -69 33q-63 -33 -135 -33q-55 0 -113 23v-340q0 -39 -26.5 -65.5 t-65.5 -26.5t-65.5 26.5t-26.5 65.5z" />
<glyph unicode="&#xb6;" horiz-adv-x="983" d="M39 991q0 139 99.5 238.5t238.5 99.5h512q39 0 66.5 -26.5t27.5 -65.5t-27.5 -66.5t-66.5 -27.5h-49v-1249q0 -39 -28 -67t-66.5 -28t-65.5 28t-27 67v1249h-100v-1249q0 -39 -27.5 -67t-66.5 -28t-65.5 28t-26.5 67v759q-137 4 -232.5 102.5t-95.5 235.5zM225 991.5 q0 -59.5 41 -103.5t101 -48v303q-59 -4 -100.5 -48t-41.5 -103.5z" />
<glyph unicode="&#xb7;" horiz-adv-x="393" d="M78 794.5q0 49.5 34.5 84t84 34.5t84 -34.5t34.5 -84t-34.5 -84t-84 -34.5t-84 34.5t-34.5 84z" />
<glyph unicode="&#xb8;" horiz-adv-x="1024" d="M338 -185q10 40 47 60q33 20 33 57v125q0 41 28.5 70t69.5 29t69.5 -29t28.5 -70v-125q0 -152 -131 -227q-35 -20 -73.5 -10t-59.5 45q-22 35 -12 75z" />
<glyph unicode="&#xb9;" horiz-adv-x="479" d="M25 1063q0 37 26 63l180 183q45 41 98.5 18.5t53.5 -82.5v-614q0 -37 -25.5 -62.5t-62.5 -25.5t-62.5 25.5t-25.5 62.5v401l-19 -18l-12 -13q-27 -27 -63.5 -26.5t-61.5 26.5q-26 25 -26 62z" />
<glyph unicode="&#xba;" horiz-adv-x="624" d="M82 815v287q0 94 68.5 162.5t163 68.5t163 -68.5t68.5 -162.5v-287q0 -94 -68.5 -162.5t-163 -68.5t-163 68.5t-68.5 162.5zM258 815q0 -23 16.5 -39t39 -16t39 16.5t16.5 38.5v287q0 23 -16.5 39t-39 16t-39 -16.5t-16.5 -38.5v-287z" />
<glyph unicode="&#xbb;" horiz-adv-x="858" d="M88 344q0 25 12 47l45 80l70 127q-16 27 -65 117l-41 73q-12 20 -13 48q0 59 51 86q35 20 75 8t59 -47l131 -238q29 -49 0 -96l-140 -252q-18 -35 -58 -47t-75 8q-51 27 -51 86zM457 344q0 25 12 47q8 18 45 80l70 127l-66 117l-41 73q-12 20 -12 48q0 59 51 86 q35 20 75 8t58 -47l131 -238q29 -49 0 -96l-139 -252q-18 -35 -58 -47t-75 8q-51 27 -51 86z" />
<glyph unicode="&#xbc;" horiz-adv-x="1224" d="M25 1063q0 37 26 63l180 183q45 41 98.5 18.5t53.5 -82.5v-614q0 -37 -25.5 -62.5t-62.5 -25.5t-62.5 25.5t-25.5 62.5v401l-19 -18l-12 -13q-27 -27 -63.5 -26.5t-61.5 26.5q-26 25 -26 62zM201.5 24.5q-13.5 38.5 5.5 75.5l573 1188q16 37 55 50.5t76 -5.5 q37 -16 50.5 -55t-5.5 -76l-573 -1188q-16 -37 -55 -50t-76 5q-37 17 -50.5 55.5zM645 254l182 451q14 35 47 49t68 0q55 -23 55 -82q0 -16 -6 -33q-33 -78 -47 -117l-86 -213h45v35q0 37 25.5 62.5t62.5 25.5t62.5 -25.5t25.5 -62.5v-35h19q37 0 62.5 -25.5t25.5 -62.5 t-25.5 -62.5t-62.5 -25.5h-19v-76q0 -37 -25.5 -62.5t-62.5 -25.5t-62.5 25.5t-25.5 62.5v76h-176q-47 0 -73.5 39t-8.5 82z" />
<glyph unicode="&#xbd;" horiz-adv-x="1220" d="M25 1063q0 37 26 63l180 183q45 41 98.5 18.5t53.5 -82.5v-614q0 -37 -25.5 -62.5t-62.5 -25.5t-62.5 25.5t-25.5 62.5v401l-19 -18l-12 -13q-27 -27 -63.5 -26.5t-61.5 26.5q-26 25 -26 62zM201.5 24.5q-13.5 38.5 5.5 75.5l573 1188q16 37 55 50.5t76 -5.5 q37 -16 50.5 -55t-5.5 -76l-573 -1188q-16 -37 -55 -50t-76 5q-37 17 -50.5 55.5zM737 68q0 25 15 45l245 387q12 23 7 41q-6 23 -24.5 35t-43.5 5.5t-33 -26.5q-18 -31 -54 -40t-67 7q-33 18 -42 54t10 69q47 84 143 109q96 23 178 -27q84 -53 105 -145q23 -98 -29 -179 q0 8 -160 -249h107q37 0 62.5 -26t25.5 -62.5t-26 -62.5t-62 -26h-269q-51 0 -77 46q-11 25 -11 45z" />
<glyph unicode="&#xbe;" horiz-adv-x="1286" d="M44 725q9 35 42 53q31 18 66.5 9t54.5 -39q20 -37 61 -27t41 53v41q0 23 -16.5 39t-38.5 16q-37 0 -62.5 26t-25.5 62.5t25.5 62.5t62.5 26q31 0 47 28q14 27 0 53q-16 29 -47 29t-47 -29q-18 -31 -54 -40t-67 8q-33 18 -42 54t9 69q66 115 201 114.5t201 -114.5 q31 -51 30.5 -117t-30.5 -117q-2 -4 -8.5 -13t-10.5 -14q49 -61 49 -143v-41q0 -80 -47 -141.5t-125 -81.5q-74 -23 -147.5 8t-112.5 98q-18 33 -9 68zM263 24.5q-13 38.5 5 75.5l574 1188q16 37 55 50.5t76 -5.5q37 -16 50 -55t-5 -76l-574 -1188q-16 -37 -55 -50t-76 5 q-37 17 -50 55.5zM707 254l182 451q14 35 47 49t68 0q55 -23 55 -82q0 -16 -6 -33q-33 -78 -47 -117l-86 -213h45v35q0 37 25.5 62.5t62.5 25.5t62.5 -25.5t25.5 -62.5v-35h18q37 0 62.5 -25.5t25.5 -62.5t-25.5 -62.5t-62.5 -25.5h-18v-76q0 -37 -25.5 -62.5t-62.5 -25.5 t-62.5 25.5t-25.5 62.5v76h-177q-47 0 -73 39t-8 82z" />
<glyph unicode="&#xbf;" horiz-adv-x="731" d="M51 -90q-12 156 99 266l104 105q41 47 41 104v164q0 41 28.5 69.5t69.5 28.5t70 -28.5t29 -69.5v-164q0 -139 -99 -242l-104 -104q-47 -47 -43 -115q6 -70 59 -106q53 -41 116.5 -29t100.5 72q20 35 59.5 46t73.5 -9q35 -23 46.5 -62t-9.5 -74q-72 -129 -231 -165 q-152 -29 -277 63q-123 98 -133 250zM274 856q0 49 35 84t84 35t84 -35t35 -84t-35 -84t-84 -35t-84 35t-35 84z" />
<glyph unicode="&#xc0;" horiz-adv-x="884" d="M20 84l328 1188q8 33 34 52t60.5 19t60 -19t34.5 -52l327 -1188q10 -41 -9 -76t-58 -45q-41 -10 -76 9.5t-45 58.5q0 2 -17 59l-18 68q-14 53 -25 88h-348l-43 -156q-16 -57 -16 -59q-10 -39 -45 -58.5t-76 -9.5q-39 10 -58.5 45t-9.5 76zM246 1691q-2 38 24.5 66.5 t64.5 31.5t66 -24l205 -184q29 -27 32 -64.5t-23.5 -66.5t-65.5 -32t-68 24l-205 184q-28 27 -30 65zM324 442h237q-12 49 -37 139l-45 161l-37 132l-36 -132l-46 -161q-24 -90 -36 -139z" />
<glyph unicode="&#xc1;" horiz-adv-x="884" d="M20 84l328 1188q8 33 34 52t60.5 19t60 -19t34.5 -52l327 -1188q10 -41 -9 -76t-58 -45q-41 -10 -76 9.5t-45 58.5q0 2 -17 59l-18 68q-14 53 -25 88h-348l-43 -156q-16 -57 -16 -59q-10 -39 -45 -58.5t-76 -9.5q-39 10 -58.5 45t-9.5 76zM247 1516.5q3 37.5 32 64.5 l204 184q29 27 67 24t64.5 -31.5t23.5 -66.5t-32 -65l-205 -184q-29 -27 -66.5 -24t-64 32t-23.5 66.5zM324 442h237q-12 49 -37 139l-45 161l-37 132l-36 -132l-46 -161q-24 -90 -36 -139z" />
<glyph unicode="&#xc2;" horiz-adv-x="884" d="M20 84l328 1188q8 33 34 52t60.5 19t60 -19t34.5 -52l327 -1188q10 -41 -9 -76t-58 -45q-41 -10 -76 9.5t-45 58.5q0 2 -17 59l-18 68q-14 53 -25 88h-348l-43 -156q-16 -57 -16 -59q-10 -39 -45 -58.5t-76 -9.5q-39 10 -58.5 45t-9.5 76zM171 1522q5 37 34 59l184 143 q20 18 53 19q31 0 56 -19l184 -143q29 -23 33 -59.5t-18.5 -65.5t-58.5 -33t-65 19q-27 18 -45 35q-14 12 -43.5 32.5t-42.5 32.5q-12 -10 -40.5 -31.5l-43.5 -33.5q-18 -16 -45 -35q-29 -23 -65.5 -19t-59 33t-17.5 66zM324 442h237q-12 49 -37 139l-45 161l-37 132 l-36 -132l-46 -161q-24 -90 -36 -139z" />
<glyph unicode="&#xc3;" horiz-adv-x="884" d="M20 84l328 1188q8 33 34 52t60.5 19t60 -19t34.5 -52l327 -1188q10 -41 -9 -76t-58 -45q-41 -10 -76 9.5t-45 58.5q0 2 -17 59l-18 68q-14 53 -25 88h-348l-43 -156q-16 -57 -16 -59q-10 -39 -45 -58.5t-76 -9.5q-39 10 -58.5 45t-9.5 76zM172 1551.5q-8 35.5 12 66.5 q53 78 142 92q92 16 161 -39l17 -12q10 -8 26 -8q18 6 23 16q20 31 56 38t67 -13.5t39 -56.5t-15 -66q-47 -76 -139 -92q-90 -16 -164 39l-16 12q-12 8 -27 6q-10 0 -22 -14q-20 -31 -56 -38t-67 13q-29 21 -37 56.5zM324 442h237q-12 49 -37 139l-45 161l-37 132l-36 -132 l-46 -161q-24 -90 -36 -139z" />
<glyph unicode="&#xc4;" horiz-adv-x="884" d="M20 84l328 1188q8 33 34 52t60.5 19t60 -19t34.5 -52l327 -1188q10 -41 -9 -76t-58 -45q-41 -10 -76 9.5t-45 58.5q0 2 -17 59l-18 68q-14 53 -25 88h-348l-43 -156q-16 -57 -16 -59q-10 -39 -45 -58.5t-76 -9.5q-39 10 -58.5 45t-9.5 76zM160 1593q0 49 34.5 84t84 35 t84 -35t34.5 -84t-34.5 -83.5t-84 -34.5t-84 34.5t-34.5 83.5zM324 442h237q-12 49 -37 139l-45 161l-37 132l-36 -132l-46 -161q-24 -90 -36 -139zM487 1593q0 49 35 84t84 35t84 -35t35 -84t-35 -83.5t-84 -34.5t-84 34.5t-35 83.5z" />
<glyph unicode="&#xc5;" horiz-adv-x="884" d="M20 84l328 1188q8 33 34 52t60.5 19t60 -19t34.5 -52l327 -1188q10 -41 -9 -76t-58 -45q-41 -10 -76 9.5t-45 58.5q0 2 -17 59l-18 68q-14 53 -25 88h-348l-43 -156q-16 -57 -16 -59q-10 -39 -45 -58.5t-76 -9.5q-39 10 -58.5 45t-9.5 76zM242 1614q0 84 58 142.5 t142 58.5q86 0 144.5 -58.5t58.5 -142.5q0 -82 -59.5 -142.5t-143.5 -60.5q-82 0 -141 60.5t-59 142.5zM324 442h237q-12 49 -37 139l-45 161l-37 132l-36 -132l-46 -161q-24 -90 -36 -139zM399 1613.5q0 -18.5 13.5 -31.5t29.5 -13q18 0 31.5 13t13.5 31.5t-13 31t-32 12.5 q-16 0 -29.5 -12.5t-13.5 -31z" />
<glyph unicode="&#xc6;" horiz-adv-x="1263" d="M8.5 21.5q-14.5 37.5 1.5 76.5l529 1180q25 57 90 57h493q41 0 70 -28.5t29 -69.5t-29 -69.5t-70 -28.5h-311v-369h270q41 0 70 -28.5t29 -69.5t-29 -70t-70 -29h-270v-409h311q41 0 70 -29t29 -69.5t-29 -69.5t-70 -29h-409q-41 0 -70 29t-29 70v180h-323l-74 -166 l-16 -37q-10 -23 -13 -27q-16 -37 -54 -51t-74.5 2.5t-51 54zM379 442h235v527z" />
<glyph unicode="&#xc7;" horiz-adv-x="806" d="M82 303v696q0 117 70.5 210.5t183.5 122t221.5 -14.5t165.5 -146l20 -34q20 -35 9 -75t-45.5 -60.5t-73.5 -9t-60 45.5l-20 35q-25 43 -72 62.5t-94 5.5q-49 -12 -78.5 -52t-29.5 -90v-696q0 -51 29.5 -90t78.5 -53q47 -12 94 7t72 62l20 35q20 35 59.5 46.5t74 -9 t46 -60.5t-9.5 -75l-20 -35q-70 -119 -199 -158v-45q0 -152 -133 -227q-35 -20 -73.5 -10t-59 45t-9.5 74.5t46 60.5q33 25 33 57v45q-111 33 -178.5 124t-67.5 206z" />
<glyph unicode="&#xc8;" horiz-adv-x="753" d="M106 66v1171q0 41 29 69.5t70 28.5h409q41 0 70 -28.5t29 -69.5t-29 -69.5t-70 -28.5h-311v-369h270q41 0 70 -28.5t29 -69.5t-29 -70t-70 -29h-270v-409h311q41 0 70 -29t29 -69.5t-29 -69.5t-70 -29h-409q-41 0 -70 29t-29 70zM213 1691q-2 38 24.5 66.5t64.5 31.5 t67 -24l204 -184q29 -27 31 -64.5t-24 -66.5q-25 -29 -64 -32t-67 24l-205 184q-29 27 -31 65z" />
<glyph unicode="&#xc9;" horiz-adv-x="753" d="M106 66v1171q0 41 29 69.5t70 28.5h409q41 0 70 -28.5t29 -69.5t-29 -69.5t-70 -28.5h-311v-369h270q41 0 70 -28.5t29 -69.5t-29 -70t-70 -29h-270v-409h311q41 0 70 -29t29 -69.5t-29 -69.5t-70 -29h-409q-41 0 -70 29t-29 70zM213 1516.5q2 37.5 31 64.5l205 184 q29 27 67.5 24t63.5 -32q27 -29 24.5 -66.5t-31.5 -64.5l-204 -184q-29 -27 -67 -24t-64.5 32t-24.5 66.5z" />
<glyph unicode="&#xca;" horiz-adv-x="753" d="M106 66v1171q0 41 29 69.5t70 28.5h409q41 0 70 -28.5t29 -69.5t-29 -69.5t-70 -28.5h-311v-369h270q41 0 70 -28.5t29 -69.5t-29 -70t-70 -29h-270v-409h311q41 0 70 -29t29 -69.5t-29 -69.5t-70 -29h-409q-41 0 -70 29t-29 70zM137 1522q4 37 33 59l184 143 q25 18 56 19q33 0 53 -19l184 -143q29 -23 34 -59.5t-17.5 -65.5t-59.5 -33t-65 19q-27 18 -45 35q-12 12 -41 32.5t-43 32.5l-86 -65q-18 -16 -45 -35q-29 -23 -65 -19t-58.5 33t-18.5 66z" />
<glyph unicode="&#xcb;" horiz-adv-x="753" d="M106 66v1171q0 41 29 69.5t70 28.5h409q41 0 70 -28.5t29 -69.5t-29 -69.5t-70 -28.5h-311v-369h270q41 0 70 -28.5t29 -69.5t-29 -70t-70 -29h-270v-409h311q41 0 70 -29t29 -69.5t-29 -69.5t-70 -29h-409q-41 0 -70 29t-29 70zM127 1593q0 49 35 84t84 35t84 -35 t35 -84t-35 -83.5t-84 -34.5t-84 34.5t-35 83.5zM455 1593q0 49 34.5 84t84 35t84 -35t34.5 -84t-34.5 -83.5t-84 -34.5t-84 34.5t-34.5 83.5z" />
<glyph unicode="&#xcc;" horiz-adv-x="409" d="M9 1691q-3 38 23.5 66.5t64.5 31.5t67 -24l205 -184q29 -27 31.5 -64.5t-24 -66.5t-64.5 -32t-66 24l-205 184q-29 27 -32 65zM106 57v1188q0 41 29 69.5t70 28.5t69.5 -28.5t28.5 -69.5v-1188q0 -41 -28.5 -69.5t-69.5 -28.5t-70 28.5t-29 69.5z" />
<glyph unicode="&#xcd;" horiz-adv-x="409" d="M9 1516.5q3 37.5 32 64.5l205 184q29 27 66.5 24t64 -31.5t23.5 -66.5t-31 -65l-205 -184q-29 -27 -67 -24t-64.5 32t-23.5 66.5zM106 57v1188q0 41 29 69.5t70 28.5t69.5 -28.5t28.5 -69.5v-1188q0 -41 -28.5 -69.5t-69.5 -28.5t-70 28.5t-29 69.5z" />
<glyph unicode="&#xce;" horiz-adv-x="409" d="M-67.5 1522q4.5 37 32.5 59l185 143q25 18 55.5 18.5t54.5 -18.5l184 -143q29 -23 33 -59.5t-18.5 -65.5t-59.5 -33t-65 19q-27 18 -45 35l-43 31q-29 22 -41 34q-12 -10 -41 -31.5t-43 -33.5q-18 -16 -45 -35q-29 -23 -66 -19t-59.5 33t-18 66zM106 57v1188 q0 41 29 69.5t70 28.5t69.5 -28.5t28.5 -69.5v-1188q0 -41 -28.5 -69.5t-69.5 -28.5t-70 28.5t-29 69.5z" />
<glyph unicode="&#xcf;" horiz-adv-x="409" d="M-78 1593q0 49 35 84t84 35t84 -35t35 -84t-35 -83.5t-84 -34.5t-84 34.5t-35 83.5zM106 57v1188q0 41 29 69.5t70 28.5t69.5 -28.5t28.5 -69.5v-1188q0 -41 -28.5 -69.5t-69.5 -28.5t-70 28.5t-29 69.5zM250 1593q0 49 34.5 84t84 35t84 -35t34.5 -84t-34.5 -83.5 t-84 -34.5t-84 34.5t-34.5 83.5z" />
<glyph unicode="&#xd0;" horiz-adv-x="903" d="M-25 672q0 39 27 65.5t66 26.5h65v473q0 41 28.5 69.5t69.5 28.5h246q143 0 243.5 -100t100.5 -244v-680q0 -143 -100 -243.5t-244 -100.5h-246q-41 0 -69.5 29t-28.5 70v512h-65q-39 0 -66 27.5t-27 66.5zM330 164h147q61 0 104.5 43t43.5 104v680q0 61 -43 104.5 t-105 43.5h-147v-375h106q41 0 67.5 -26.5t26.5 -65.5t-26.5 -66.5t-67.5 -27.5h-106v-414z" />
<glyph unicode="&#xd1;" horiz-adv-x="983" d="M106 57v1188q0 35 22 61.5t54 34.5q35 8 66 -7t45 -46l129 -268l258 -533v758q0 41 28.5 69.5t69.5 28.5t70 -28.5t29 -69.5v-1188q0 -80 -76 -96q-72 -16 -111 53l-129 269l-258 532v-758q0 -41 -28.5 -69.5t-69.5 -28.5t-70 28.5t-29 69.5zM220 1551.5q-7 35.5 13 66.5 q53 78 142 92q90 16 162 -39l16 -12q10 -8 27 -8q18 6 22 16q20 31 56 38t67 -13.5t38 -56.5t-13 -66q-47 -76 -140 -92q-90 -16 -164 39l-16 12q-12 8 -27 6q-10 0 -22 -14q-20 -31 -56 -38t-67 13.5t-38 56z" />
<glyph unicode="&#xd2;" d="M82 303v696q0 143 101.5 243.5t242.5 100.5q143 0 243.5 -100t100.5 -244v-696q0 -143 -100.5 -243.5t-243.5 -100.5q-141 0 -242.5 100.5t-101.5 243.5zM231 1691q-2 38 23 66q27 29 65.5 32t67.5 -24l205 -184q29 -27 31 -64.5t-25 -66.5t-64.5 -32t-66.5 24l-205 184 q-29 27 -31 65zM279 303q0 -61 44 -104t103 -43q61 0 104 43t43 104v696q0 61 -43 104.5t-104 43.5q-59 0 -103 -43t-44 -105v-696z" />
<glyph unicode="&#xd3;" d="M82 303v696q0 143 101.5 243.5t242.5 100.5q143 0 243.5 -100t100.5 -244v-696q0 -143 -100.5 -243.5t-243.5 -100.5q-141 0 -242.5 100.5t-101.5 243.5zM231 1516.5q2 37.5 31 64.5l205 184q29 27 66.5 24t64.5 -31.5t25 -66.5t-31 -65l-205 -184q-29 -27 -67.5 -24 t-63.5 32q-27 29 -25 66.5zM279 303q0 -61 44 -104t103 -43q61 0 104 43t43 104v696q0 61 -43 104.5t-104 43.5q-59 0 -103 -43t-44 -105v-696z" />
<glyph unicode="&#xd4;" d="M82 303v696q0 143 101.5 243.5t242.5 100.5q143 0 243.5 -100t100.5 -244v-696q0 -143 -100.5 -243.5t-243.5 -100.5q-141 0 -242.5 100.5t-101.5 243.5zM155 1522q5 37 33 59l185 143q25 18 53 19q31 0 55 -19l185 -143q29 -23 34 -59.5t-18 -65.5t-59.5 -33t-65.5 19 q-27 18 -45 35q-14 12 -44 32.5t-42 32.5q-12 -10 -41 -31.5t-43 -33.5q-18 -16 -45 -35q-29 -23 -65.5 -19t-59 33t-17.5 66zM279 303q0 -61 44 -104t103 -43q61 0 104 43t43 104v696q0 61 -43 104.5t-104 43.5q-59 0 -103 -43t-44 -105v-696z" />
<glyph unicode="&#xd5;" d="M82 303v696q0 143 100.5 243.5t243.5 100.5q141 0 242.5 -100t101.5 -244v-696q0 -143 -101.5 -243.5t-242.5 -100.5q-143 0 -243.5 100.5t-100.5 243.5zM153.5 1551.5q-8.5 35.5 14.5 66.5q47 76 139 92q90 16 164 -39l16 -12q10 -8 25 -8q18 6 25 16q20 31 56 38 t66 -13q29 -20 37.5 -56.5t-12.5 -66.5q-53 -78 -141 -92q-92 -16 -162 39l-16 12q-12 10 -27 6q-14 0 -23 -14q-23 -31 -57.5 -38t-65 13.5t-39 56zM279 303q0 -61 43 -104t104 -43q59 0 103 43t44 104v696q0 61 -44 104.5t-103 43.5q-61 0 -104 -43t-43 -105v-696z" />
<glyph unicode="&#xd6;" d="M82 303v696q0 143 100.5 243.5t243.5 100.5q141 0 242.5 -100t101.5 -244v-696q0 -143 -101.5 -243.5t-242.5 -100.5q-143 0 -243.5 100.5t-100.5 243.5zM143 1593q0 49 35 84t84 35t84 -35t35 -84t-35 -83.5t-84 -34.5t-84 34.5t-35 83.5zM279 303q0 -61 43 -104 t104 -43q59 0 103 43t44 104v696q0 61 -44 104.5t-103 43.5q-61 0 -104 -43t-43 -105v-696zM471 1593q0 49 35 84t84 35t84 -35t35 -84t-35 -83.5t-84 -34.5t-84 34.5t-35 83.5z" />
<glyph unicode="&#xd7;" d="M123 385q0 41 29 70l135 135l-135 135q-29 29 -29 70t28.5 69.5t69.5 28.5t70 -29l135 -135l135 135q29 29 70 29t69.5 -28.5t28.5 -69.5t-29 -70l-135 -135l135 -135q29 -29 29 -70t-28.5 -69.5t-69.5 -28.5t-70 28l-135 136l-135 -136q-29 -29 -70 -28.5t-69.5 29 t-28.5 69.5z" />
<glyph unicode="&#xd8;" horiz-adv-x="872" d="M-22.5 -51q-10.5 37 8.5 71l114 209q-8 31 -8 74v696q0 143 100.5 243.5t243.5 100.5q121 0 226 -83l61 112q18 35 55 45t72 -8t45 -55t-8 -72l-115 -209q8 -33 8 -74v-696q0 -143 -101 -243.5t-243 -100.5q-135 0 -225 84l-61 -113q-18 -35 -55.5 -45t-72 8.5t-45 55.5z M289 575l272 502q-45 70 -125 70q-61 0 -104 -43t-43 -105v-424zM309 225q45 -70 127 -69q59 0 103.5 43t44.5 104v424z" />
<glyph unicode="&#xd9;" horiz-adv-x="868" d="M90 303v942q0 41 28.5 69.5t69.5 28.5t70 -28.5t29 -69.5v-942q0 -61 43 -104t104.5 -43t104.5 43t43 104v942q0 41 28.5 69.5t69.5 28.5t69.5 -28.5t28.5 -69.5v-942q0 -143 -100 -243.5t-243.5 -100.5t-244 100.5t-100.5 243.5zM238 1691q-2 38 24.5 66.5t64.5 31.5 t66 -24l205 -184q29 -27 32 -64.5t-23.5 -66.5t-65.5 -32t-68 24l-205 184q-28 27 -30 65z" />
<glyph unicode="&#xda;" horiz-adv-x="868" d="M90 303v942q0 41 28.5 69.5t69.5 28.5t70 -28.5t29 -69.5v-942q0 -61 43 -104t104.5 -43t104.5 43t43 104v942q0 41 28.5 69.5t69.5 28.5t69.5 -28.5t28.5 -69.5v-942q0 -143 -100 -243.5t-243.5 -100.5t-244 100.5t-100.5 243.5zM239 1516.5q3 37.5 31 64.5l205 184 q29 27 67 24t64.5 -31.5t23.5 -66.5t-32 -65l-205 -184q-29 -27 -66.5 -24t-64 32t-23.5 66.5z" />
<glyph unicode="&#xdb;" horiz-adv-x="868" d="M90 303v942q0 41 28.5 69.5t69.5 28.5t70 -28.5t29 -69.5v-942q0 -61 44 -104t103 -43q61 0 104.5 43t43.5 104v942q0 41 28.5 69.5t69.5 28.5t69.5 -28.5t28.5 -69.5v-942q0 -143 -100 -243.5t-244 -100.5q-141 0 -242.5 100.5t-101.5 243.5zM163 1522q5 37 34 59 l184 143q23 18 53.5 18.5t54.5 -18.5l185 -143q29 -23 33 -59.5t-18.5 -65.5t-58.5 -33t-65 19q-27 18 -45 35q-12 12 -41.5 32.5t-44.5 32.5q-12 -10 -40.5 -31.5l-43.5 -33.5q-18 -16 -45 -35q-29 -23 -65.5 -19t-59 33t-17.5 66z" />
<glyph unicode="&#xdc;" horiz-adv-x="868" d="M90 303v942q0 41 28.5 69.5t69.5 28.5t70 -28.5t29 -69.5v-942q0 -61 44 -104t103 -43q61 0 104.5 43t43.5 104v942q0 41 28.5 69.5t69.5 28.5t69.5 -28.5t28.5 -69.5v-942q0 -143 -100 -243.5t-244 -100.5q-141 0 -242.5 100.5t-101.5 243.5zM152 1593q0 49 34.5 84 t83.5 35t84 -35t35 -84t-35 -83.5t-84 -34.5t-83.5 34.5t-34.5 83.5zM479 1593q0 49 35 84t84 35t84 -35t35 -84t-35 -83.5t-84 -34.5t-84 34.5t-35 83.5z" />
<glyph unicode="&#xdd;" horiz-adv-x="823" d="M31.5 1276q13.5 39 50.5 57q35 18 74 5t57 -50l68 -135l131 -262l131 262l67 135q18 37 57.5 50.5t75.5 -5.5q35 -18 48.5 -57t-5.5 -76l-276 -551v-592q0 -41 -28.5 -69.5t-69.5 -28.5t-70 28.5t-29 69.5v592l-276 551q-19 37 -5.5 76zM217 1516.5q2 37.5 31 64.5 l205 184q29 27 66.5 24t64 -31.5t24.5 -66.5t-30 -65l-205 -184q-29 -27 -68 -24t-65 32q-25 29 -23 66.5z" />
<glyph unicode="&#xde;" horiz-adv-x="819" d="M106 57v1180q0 41 29 69.5t70 28.5t69.5 -28.5t28.5 -69.5v-160h148q141 0 242.5 -100t101.5 -244v-123q0 -143 -101.5 -243.5t-242.5 -100.5h-148v-209q0 -41 -28.5 -69.5t-69.5 -28.5t-70 28.5t-29 69.5zM303 463h148q59 0 103 43t44 104v123q0 61 -44 104.5t-103 43.5 h-148v-418z" />
<glyph unicode="&#xdf;" horiz-adv-x="876" d="M113 57v1024q0 84 42 154t113 108q158 82 305 -14q133 -88 134 -248q0 -23 -2 -28q-6 -84 -58 -148q141 -102 141 -274v-328q0 -139 -99 -238.5t-238 -99.5q-39 0 -66 26.5t-27 65.5t27 66t66 27q63 0 108 45t45 108v328q0 63 -45 108t-108 45q-35 0 -59.5 20.5t-31 53.5 t9 61.5t46.5 41.5l37 16q63 27 69 94q10 61 -51 105q-55 39 -115 4q-59 -29 -59 -99v-1024q0 -39 -26.5 -65.5t-65.5 -26.5t-65.5 26.5t-26.5 65.5z" />
<glyph unicode="&#xe0;" horiz-adv-x="720" d="M31 270q0 123 87 210t210 87h112v109q0 74 -67 100q-70 29 -119 -24q-27 -27 -66 -27q-37 0 -63 27q-29 29 -29 65.5t29 65.5q63 63 149 80.5t168 -17.5q84 -35 133.5 -107.5t49.5 -162.5v-610q0 -39 -27 -66t-66 -27h-204q-123 0 -210 87t-87 210zM178 1281q-2 36 23 65 q25 27 60.5 28.5t62.5 -22.5l204 -185q29 -25 30 -60.5t-23 -64.5q-23 -27 -59 -28.5t-64 22.5l-205 185q-27 24 -29 60zM215 270q0 -47 33 -79.5t80 -32.5h112v225h-112q-47 0 -80 -33t-33 -80z" />
<glyph unicode="&#xe1;" horiz-adv-x="720" d="M31 270q0 123 87 210t210 87h112v109q0 74 -67 100q-70 29 -119 -24q-27 -27 -66 -27q-37 0 -63 27q-29 29 -29 65.5t29 65.5q63 63 149 80.5t168 -17.5q84 -35 133.5 -107.5t49.5 -162.5v-610q0 -39 -27 -66t-66 -27h-204q-123 0 -210 87t-87 210zM178 1107q2 36 29 60 l205 185q29 25 64.5 22.5t60.5 -28.5q25 -29 22.5 -65t-31.5 -60l-204 -185q-27 -25 -63 -22.5t-60 28.5q-25 29 -23 65zM215 270q0 -47 33 -79.5t80 -32.5h112v225h-112q-47 0 -80 -33t-33 -80z" />
<glyph unicode="&#xe2;" horiz-adv-x="720" d="M31 270q0 123 87 210t210 87h112v109q0 74 -67.5 100.5t-118.5 -24.5q-27 -27 -66 -27q-37 0 -63 27q-29 29 -29 65.5t29 65.5q63 63 149 80.5t170 -17.5q82 -35 131.5 -107.5t49.5 -162.5v-610q0 -39 -27 -66t-66 -27h-204q-123 0 -210 87t-87 210zM100 1112q4 33 33 55 l184 144q23 16 51.5 16t51.5 -16l184 -144q27 -25 32 -55.5t-18 -60.5q-23 -29 -55.5 -33t-60.5 18q-33 25 -47 37l-44 33q-30 23 -42 35q-12 -12 -43 -35t-43 -33q-14 -12 -47 -37q-29 -23 -62 -18.5t-55.5 33t-18.5 61.5zM215 270q0 -47 33 -79.5t80 -32.5h112v225h-112 q-47 0 -80 -33t-33 -80z" />
<glyph unicode="&#xe3;" horiz-adv-x="720" d="M31 270q0 123 87 210t210 87h112v109q0 74 -67.5 100.5t-118.5 -24.5q-27 -27 -66 -27q-37 0 -63 27q-29 29 -29 65.5t29 65.5q63 63 149 80.5t170 -17.5q82 -35 131.5 -107.5t49.5 -162.5v-610q0 -39 -27 -66t-66 -27h-204q-123 0 -210 87t-87 210zM103.5 1144 q-7.5 34 11.5 62q51 74 137 88q88 16 158 -39l16 -12q16 -10 31 -6q16 0 26 16q20 29 53 36t62 -11q29 -20 36 -54t-11 -63q-51 -74 -138 -88q-88 -16 -157 39l-17 12q-16 10 -30 6q-16 0 -27 -16q-20 -29 -53 -36t-62 12q-28 20 -35.5 54zM215 270q0 -47 33 -79.5t80 -32.5 h112v225h-112q-47 0 -80 -33t-33 -80z" />
<glyph unicode="&#xe4;" horiz-adv-x="720" d="M31 270q0 123 87 210t210 87h112v109q0 74 -67.5 100.5t-118.5 -24.5q-27 -27 -66 -27q-37 0 -63 27q-29 29 -29 65.5t29 65.5q63 63 149 80.5t170 -17.5q82 -35 131.5 -107.5t49.5 -162.5v-610q0 -39 -27 -66t-66 -27h-204q-123 0 -210 87t-87 210zM92 1184 q0 47 33 79.5t80 32.5t79.5 -32.5t32.5 -79.5t-32.5 -80t-79.5 -33t-80 33t-33 80zM215 270q0 -47 33 -79.5t80 -32.5h112v225h-112q-47 0 -80 -33t-33 -80zM420 1184q0 47 32.5 79.5t80 32.5t80 -32.5t32.5 -79.5t-32.5 -80t-80 -33t-80 33t-32.5 80z" />
<glyph unicode="&#xe5;" horiz-adv-x="720" d="M31 270q0 123 87 210t210 87h112v109q0 74 -67.5 100.5t-116.5 -24.5q-27 -27 -68 -27q-37 0 -63 27q-29 29 -29 65.5t29 65.5q63 63 149 80.5t170 -17.5q82 -35 131.5 -107.5t49.5 -162.5v-610q0 -39 -27 -66t-66 -27h-204q-123 0 -210 87t-87 210zM172 1204 q0 82 57.5 139.5t139.5 57.5t139 -57.5t57 -139.5t-57 -139t-139 -57t-139.5 57t-57.5 139zM215 270q0 -47 33 -79.5t80 -32.5h112v225h-112q-47 0 -80 -33t-33 -80zM319 1204.5q0 -20.5 14.5 -35t35 -14.5t35 14.5t14.5 35t-14.5 34.5t-35 14t-35 -14t-14.5 -34.5z" />
<glyph unicode="&#xe6;" horiz-adv-x="1107" d="M37.5 204q-17.5 85 17.5 171t109 135t166 49h112v113q0 74 -69 104q-72 27 -123 -24q-29 -29 -66 -29t-65 29q-27 27 -27 63q0 39 27 66q66 66 152.5 83t170.5 -18q55 -23 93 -59q88 82 204 82q123 0 210 -87t87 -210v-205q0 -39 -26.5 -65.5t-65.5 -26.5h-317v-113 q0 -74 69 -104q70 -29 123 24q29 29 64 29q37 0 65.5 -28.5t28.5 -65.5t-29 -66q-63 -63 -150 -80.5t-173 17.5q-57 23 -90 59q-37 -37 -93 -59q-86 -35 -171 -17.5t-152 80.5q-64 68 -81.5 153zM225 305q-29 -70 25 -123q51 -51 123 -24q70 31 69 104v113h-112 q-78 0 -105 -70zM627 559h225v113q0 47 -33 79.5t-80 32.5t-79.5 -32.5t-32.5 -79.5v-113z" />
<glyph unicode="&#xe7;" horiz-adv-x="677" d="M88 262v410q0 92 49 165.5t135 108.5q84 35 171 17.5t153 -82.5q27 -27 27 -66q0 -37 -27 -63q-29 -29 -65.5 -29t-65.5 29q-51 51 -123 24q-70 -31 -70 -104v-410q0 -74 70 -104q16 -8 41 -8h2h2q45 0 78 32q29 29 65.5 29t65.5 -29q27 -27 27 -65.5t-27 -65.5 q-53 -49 -119 -71v-48q0 -147 -127 -223q-35 -18 -70.5 -9t-56.5 44q-18 33 -9 69.5t44 55.5q35 25 35 63v48q-2 0 -10.5 4t-10.5 4q-86 35 -135 108.5t-49 165.5z" />
<glyph unicode="&#xe8;" horiz-adv-x="753" d="M88 262v410q0 123 87 210t210 87t210 -87t87 -210v-205q0 -39 -26.5 -65.5t-65.5 -26.5h-318v-113q0 -74 70 -104q72 -27 123 24q29 29 65.5 29t65.5 -29q27 -27 27 -65.5t-27 -65.5q-68 -63 -153 -80.5t-171 17.5t-135 108.5t-49 165.5zM195 1281q-2 36 22 65 q25 27 60.5 28.5t64.5 -22.5l205 -185q27 -25 29 -60.5t-23 -64.5q-25 -27 -60.5 -28.5t-62.5 22.5l-205 185q-28 24 -30 60zM272 559h226v113q0 47 -33 79.5t-80 32.5t-80 -32.5t-33 -79.5v-113z" />
<glyph unicode="&#xe9;" horiz-adv-x="753" d="M88 262v410q0 123 87 210t210 87t210 -87t87 -210v-205q0 -39 -26.5 -65.5t-65.5 -26.5h-318v-113q0 -74 70 -104q72 -27 123 24q29 29 65.5 29t65.5 -29q27 -27 27 -65.5t-27 -65.5q-68 -63 -153 -80.5t-171 17.5t-135 108.5t-49 165.5zM195 1107q2 36 30 60l205 185 q27 25 62.5 22.5t60.5 -28.5q25 -29 22.5 -65t-28.5 -60l-205 -185q-29 -25 -64.5 -22.5t-60.5 28.5q-24 29 -22 65zM272 559h226v113q0 47 -33 79.5t-80 32.5t-80 -32.5t-33 -79.5v-113z" />
<glyph unicode="&#xea;" horiz-adv-x="753" d="M88 262v410q0 123 87 210t210 87t210 -87t87 -210v-205q0 -39 -26.5 -65.5t-65.5 -26.5h-318v-113q0 -74 70 -104q72 -27 123 24q29 29 65.5 29t65.5 -29q27 -27 27 -65.5t-27 -65.5q-68 -63 -153 -80.5t-171 17.5t-135 108.5t-49 165.5zM119 1112q4 33 31 55l184 144 q23 16 51.5 16t50.5 -16l185 -144q29 -23 32.5 -55.5t-18.5 -60.5q-20 -29 -54 -33t-63 18q-33 25 -47 37l-44 33q-30 23 -42 35q-12 -12 -43 -35t-43 -33q-14 -12 -47 -37q-27 -23 -60.5 -18.5t-56.5 33.5q-20 28 -16 61zM272 559h226v113q0 47 -33 79.5t-80 32.5 t-80 -32.5t-33 -79.5v-113z" />
<glyph unicode="&#xeb;" horiz-adv-x="753" d="M88 262v410q0 123 87 210t210 87t210 -87t87 -210v-205q0 -39 -26.5 -65.5t-65.5 -26.5h-318v-113q0 -74 70 -104q72 -27 123 24q29 29 65.5 29t65.5 -29q27 -27 27 -65.5t-27 -65.5q-68 -63 -153 -80.5t-171 17.5q-84 35 -134 108.5t-50 165.5zM109 1184q0 47 32.5 79.5 t79.5 32.5t80 -32.5t33 -79.5t-33 -80t-80 -33t-79.5 33t-32.5 80zM272 559h226v113q0 47 -33 79.5t-80 32.5t-80 -32.5t-33 -79.5v-113zM436 1184q0 47 33 79.5t80 32.5t80 -32.5t33 -79.5t-33 -80t-80 -33t-80 33t-33 80z" />
<glyph unicode="&#xec;" horiz-adv-x="409" d="M-26 1281q-1 36 24 65q23 27 59.5 28.5t63.5 -22.5l205 -185q29 -25 29.5 -60.5t-23.5 -64.5q-25 -27 -60.5 -28.5t-62.5 22.5l-205 185q-29 24 -30 60zM113 57v820q0 39 27.5 65.5t64.5 26.5q39 0 65.5 -27t26.5 -65v-820q0 -39 -26.5 -65.5t-65.5 -26.5 q-37 0 -64.5 26.5t-27.5 65.5z" />
<glyph unicode="&#xed;" horiz-adv-x="409" d="M54 1107q1 36 30 60l205 185q29 25 64.5 22.5t58.5 -28.5q25 -29 23.5 -65t-29.5 -60l-205 -185q-27 -25 -63 -22.5t-60 28.5q-25 29 -24 65zM113 57v820q0 39 26.5 65.5t65.5 26.5q37 0 64.5 -27t27.5 -65v-820q0 -39 -27.5 -65.5t-64.5 -26.5q-39 0 -65.5 26.5 t-26.5 65.5z" />
<glyph unicode="&#xee;" horiz-adv-x="409" d="M-61.5 1112q4.5 33 32.5 55l185 144q23 16 49 16q29 0 51 -16l184 -144q29 -23 33 -55.5t-16 -60.5q-23 -29 -56.5 -33t-60.5 18q-33 25 -47 37q-14 10 -43 32.5t-43 35.5q-12 -10 -43 -33t-45.5 -35l-46.5 -37q-27 -23 -61 -18.5t-54 33.5q-23 28 -18.5 61zM115 57v820 q0 39 26.5 65.5t65.5 26.5q37 0 64.5 -27t27.5 -65v-820q0 -39 -27.5 -65.5t-64.5 -26.5q-39 0 -65.5 26.5t-26.5 65.5z" />
<glyph unicode="&#xef;" horiz-adv-x="409" d="M-72 1184q0 47 33 79.5t80 32.5t80 -32.5t33 -79.5t-33 -80t-80 -33t-80 33t-33 80zM113 57v820q0 39 26.5 65.5t65.5 26.5t65.5 -27t26.5 -65v-820q0 -39 -26.5 -65.5t-65.5 -26.5t-65.5 26.5t-26.5 65.5zM256 1184q0 47 33 79.5t80 32.5t79.5 -32.5t32.5 -79.5 t-32.5 -80t-79.5 -33t-80 33t-33 80z" />
<glyph unicode="&#xf0;" horiz-adv-x="770" d="M88 262v410q0 123 87 210t210 87q14 0 43 -4q-33 61 -53 86l-64 -43q-31 -20 -65.5 -12t-57.5 36q-20 31 -12 66t37 57l39 25q-29 20 -43 28q-33 23 -40 60t15 69q20 33 57.5 40t69.5 -15q43 -29 99 -76l49 33q31 20 66.5 12t56.5 -37q20 -31 12 -66.5t-37 -56.5l-29 -18 q33 -43 56 -90q98 -186 98 -391v-410q0 -123 -87 -210t-210 -87t-210 87t-87 210zM272 262q0 -47 33 -79.5t80 -32.5t80 32.5t33 79.5v410q0 47 -33 79.5t-80 32.5t-80 -32.5t-33 -79.5v-410z" />
<glyph unicode="&#xf1;" horiz-adv-x="802" d="M113 57v811q0 39 26.5 66t65.5 27h205q123 0 210 -87.5t87 -209.5v-607q0 -39 -27 -65.5t-66 -26.5t-65.5 26.5t-26.5 65.5v607q0 47 -32.5 79.5t-79.5 32.5h-113v-719q0 -39 -26.5 -65.5t-65.5 -26.5t-65.5 26.5t-26.5 65.5zM143.5 1144q-6.5 34 12.5 62q51 74 137 88 q88 16 158 -39l16 -12q16 -10 31 -6q16 0 26 16q18 29 52 36t63 -11q29 -20 36 -54t-11 -63q-51 -74 -138 -88q-88 -16 -159 39l-17 12q-12 10 -31 6q-14 0 -24 -16q-20 -29 -54 -36t-63 12q-28 20 -34.5 54z" />
<glyph unicode="&#xf2;" horiz-adv-x="770" d="M88 262v410q0 123 87 210t210 87t210 -87t87 -210v-410q0 -123 -87 -210t-210 -87t-210 87t-87 210zM195 1281q-2 36 22 65q25 27 60.5 28.5t62.5 -22.5l205 -185q29 -25 31 -60.5t-23 -64.5q-25 -27 -60.5 -28.5t-64.5 22.5l-205 185q-26 24 -28 60zM272 262 q0 -47 33 -79.5t80 -32.5t80 32.5t33 79.5v410q0 47 -33 79.5t-80 32.5t-80 -32.5t-33 -79.5v-410z" />
<glyph unicode="&#xf3;" horiz-adv-x="770" d="M88 262v410q0 123 87 210t210 87t210 -87t87 -210v-410q0 -123 -87 -210t-210 -87t-210 87t-87 210zM195 1107q2 36 28 60l205 185q29 25 64.5 22.5t60.5 -28.5q25 -29 22.5 -65t-28.5 -60l-205 -185q-29 -25 -64.5 -22.5t-60.5 28.5q-24 29 -22 65zM272 262 q0 -47 33 -79.5t80 -32.5t80 32.5t33 79.5v410q0 47 -33 79.5t-80 32.5t-80 -32.5t-33 -79.5v-410z" />
<glyph unicode="&#xf4;" horiz-adv-x="770" d="M88 262v410q0 123 87 210t210 87t210 -87t87 -210v-410q0 -123 -87 -210t-210 -87t-210 87t-87 210zM117 1112q4 33 33 55l184 144q23 16 51.5 16t50.5 -16l185 -144q27 -25 31.5 -55.5t-17.5 -60.5q-23 -29 -55.5 -33t-61.5 18q-33 25 -47 37l-44 33q-30 23 -42 35 q-12 -12 -43 -35t-43 -33q-14 -12 -47 -37q-29 -23 -61.5 -18.5t-55 33t-18.5 61.5zM272 262q0 -47 33 -79.5t80 -32.5t80 32.5t33 79.5v410q0 47 -33 79.5t-80 32.5t-80 -32.5t-33 -79.5v-410z" />
<glyph unicode="&#xf5;" horiz-adv-x="770" d="M88 262v410q0 123 87 210t210 87t210 -87t87 -210v-410q0 -123 -87 -210t-210 -87t-210 87t-87 210zM120 1144q-7 34 11 62q53 72 137 88q88 16 158 -39l16 -12q16 -10 31 -6q16 0 27 16q20 29 54 36t62 -11q29 -20 35 -54t-12 -63q-47 -72 -137 -88q-88 -16 -158 39 l-16 12q-16 10 -31 6q-16 0 -27 -16q-18 -29 -52 -36t-62 12q-29 20 -36 54zM272 262q0 -47 33 -79.5t80 -32.5t80 32.5t33 79.5v410q0 47 -33 79.5t-80 32.5t-80 -32.5t-33 -79.5v-410z" />
<glyph unicode="&#xf6;" horiz-adv-x="770" d="M88 262v410q0 123 87 210t210 87t210 -87t87 -210v-410q0 -123 -87 -210t-210 -87t-210 87t-87 210zM109 1184q0 47 32.5 79.5t79.5 32.5t80 -32.5t33 -79.5t-33 -80t-80 -33t-79.5 33t-32.5 80zM272 262q0 -47 33 -79.5t80 -32.5t80 32.5t33 79.5v410q0 47 -33 79.5 t-80 32.5t-80 -32.5t-33 -79.5v-410zM436 1184q0 47 33 79.5t80 32.5t80 -32.5t33 -79.5t-33 -80t-80 -33t-80 33t-33 80z" />
<glyph unicode="&#xf7;" d="M82 590q0 41 28.5 69.5t69.5 28.5h492q41 0 69.5 -28.5t28.5 -69.5t-28.5 -69.5t-69.5 -28.5h-492q-41 0 -69.5 28.5t-28.5 69.5zM307 323.5q0 49.5 35 84t84 34.5t84 -34.5t35 -84t-35 -84t-84 -34.5t-84 34.5t-35 84zM307 856q0 49 35 84t84 35t84 -35t35 -84t-35 -84 t-84 -35t-84 35t-35 84z" />
<glyph unicode="&#xf8;" horiz-adv-x="790" d="M23.5 -47q-9.5 35 9.5 65l84 144q-18 45 -19 100v410q0 123 87 210t210 87q92 0 162 -49l49 81q18 33 53 42.5t66 -9.5q33 -18 42 -53t-9 -68l-84 -141q18 -47 18 -100v-410q0 -123 -87 -210t-210 -87q-88 0 -164 49l-47 -84q-18 -31 -53 -40t-68 10q-30 18 -39.5 53z M283 449l182 311q-29 25 -70 24q-47 0 -79.5 -32.5t-32.5 -79.5v-223zM326 174q27 -25 69 -24q47 0 80 32.5t33 79.5v223z" />
<glyph unicode="&#xf9;" horiz-adv-x="802" d="M96 270v607q0 39 27 65.5t65.5 26.5t65.5 -27t27 -65v-607q0 -47 32.5 -79.5t79.5 -32.5h113v719q0 39 26.5 65.5t65.5 26.5t65.5 -27t26.5 -65v-811q0 -39 -26.5 -66t-65.5 -27h-205q-123 0 -210 87t-87 210zM204 1281q-1 36 23 65q23 27 59 28.5t64 -22.5l205 -185 q27 -25 29 -60.5t-23 -64.5q-25 -27 -60.5 -28.5t-62.5 22.5l-205 185q-28 24 -29 60z" />
<glyph unicode="&#xfa;" horiz-adv-x="802" d="M96 270v607q0 39 28 65.5t64 26.5q39 0 66 -27t27 -65v-607q0 -47 32.5 -79.5t79.5 -32.5h113v719q0 39 27.5 65.5t64.5 26.5q39 0 65.5 -27t26.5 -65v-811q0 -39 -26.5 -66t-65.5 -27h-205q-123 0 -210 87t-87 210zM204 1107q1 36 29 60l205 185q27 25 63 22.5t60 -28.5 q25 -29 24 -65t-30 -60l-205 -185q-29 -25 -64.5 -22.5t-58.5 28.5q-24 29 -23 65z" />
<glyph unicode="&#xfb;" horiz-adv-x="802" d="M96 270v607q0 39 28 65.5t64 26.5q39 0 66 -27t27 -65v-607q0 -47 32.5 -79.5t79.5 -32.5h113v719q0 39 27.5 65.5t64.5 26.5q39 0 65.5 -27t26.5 -65v-811q0 -39 -26.5 -66t-65.5 -27h-205q-123 0 -210 87t-87 210zM127 1112q4 33 33 55l184 144q23 16 49 16 q29 0 51 -16l185 -144q29 -23 33 -55.5t-19 -60.5q-20 -29 -54 -33t-61 18q-33 25 -47 37t-44 35l-44 33q-12 -12 -43 -35t-43 -33q-14 -12 -47 -37q-27 -23 -60.5 -18.5t-56.5 33.5q-20 28 -16 61z" />
<glyph unicode="&#xfc;" horiz-adv-x="802" d="M96 270v607q0 39 28 65.5t64 26.5q39 0 66 -27t27 -65v-607q0 -47 32.5 -79.5t79.5 -32.5h113v719q0 39 27.5 65.5t64.5 26.5q39 0 65.5 -27t26.5 -65v-811q0 -39 -26.5 -66t-65.5 -27h-205q-121 0 -209 87t-88 210zM117 1184q0 47 32.5 79.5t79.5 32.5t80 -32.5 t33 -79.5t-33 -80t-80 -33t-79.5 33t-32.5 80zM444 1184q0 47 33 79.5t80 32.5t80 -32.5t33 -79.5t-33 -80t-80 -33t-80 33t-33 80z" />
<glyph unicode="&#xfd;" horiz-adv-x="755" d="M10 -352q0 39 26.5 65.5t65.5 26.5t69 22.5t40 57.5l72 237l-240 793q-10 37 8.5 70.5t54.5 44.5q35 10 70 -7.5t45 -54.5l158 -524l156 524q12 37 45.5 54.5t68.5 7.5q37 -10 55.5 -44t8.5 -71l-246 -819l-80 -264q-27 -94 -106 -152q-78 -59 -179 -59q-39 0 -65.5 26.5 t-26.5 65.5zM187 1107q1 36 30 60l205 185q29 25 64.5 22.5t58.5 -28.5q25 -29 23.5 -65t-29.5 -60l-205 -185q-27 -25 -62.5 -22.5t-60.5 28.5q-25 29 -24 65z" />
<glyph unicode="&#xfe;" horiz-adv-x="794" d="M113 -352v1638q0 39 26.5 65.5t65.5 26.5t65.5 -26.5t26.5 -65.5v-317h113q123 0 210 -87t87 -210v-410q0 -123 -87.5 -210t-209.5 -87h-113v-317q0 -39 -26.5 -65.5t-65.5 -26.5t-65.5 26.5t-26.5 65.5zM297 150h113q47 0 79.5 32.5t32.5 79.5v410q0 47 -32.5 79.5 t-79.5 32.5h-113v-634z" />
<glyph unicode="&#xff;" horiz-adv-x="755" d="M10 -352q0 39 26.5 65.5t65.5 26.5t69 22.5t40 57.5l72 237l-238 793q-12 37 6.5 70.5t55 44t70.5 -7t44 -54.5l158 -524l158 524q10 37 43.5 54.5t70.5 7.5q35 -10 53.5 -44t8.5 -71l-246 -819l-80 -264q-27 -94 -106 -152q-78 -59 -179 -59q-39 0 -65.5 26.5 t-26.5 65.5zM102 1184q0 47 33 79.5t80 32.5t80 -32.5t33 -79.5t-33 -80t-80 -33t-80 33t-33 80zM430 1184q0 47 33 79.5t80 32.5t79.5 -32.5t32.5 -79.5t-32.5 -80t-79.5 -33t-80 33t-33 80z" />
<glyph unicode="&#x152;" horiz-adv-x="1220" d="M82 303v696q0 143 100.5 243.5t243.5 100.5q92 0 170 -45q27 37 76 37h409q41 0 70 -28.5t29 -69.5t-29 -69.5t-70 -28.5h-311v-181v-188h270q41 0 70 -28.5t29 -69.5t-29 -70t-70 -29h-270v-229v-180h311q41 0 70 -29t29 -69.5t-29 -69.5t-70 -29h-409q-49 0 -76 37 q-78 -45 -170 -45q-143 0 -243.5 100.5t-100.5 243.5zM279 303q0 -61 43 -104t104 -43t104 43t43 104v41v614v41q0 61 -43 104.5t-104 43.5t-104 -43t-43 -105v-696z" />
<glyph unicode="&#x153;" horiz-adv-x="1163" d="M88 262v410q0 123 87 210t210 87q117 0 205 -82q88 82 205 82q123 0 210 -87t87 -210v-205q0 -39 -27 -65.5t-66 -26.5h-317v-113q0 -74 70 -104q70 -29 122 24q29 29 64 29q37 0 65.5 -28.5t28.5 -65.5t-28 -66q-63 -63 -150.5 -80.5t-173.5 17.5q-57 23 -90 59 q-88 -82 -205 -82q-123 0 -210 87t-87 210zM272 262q0 -47 33 -79.5t80 -32.5t80 32.5t33 79.5v410q0 47 -33 79.5t-80 32.5t-80 -32.5t-33 -79.5v-410zM682 559h225v113q0 47 -32.5 79.5t-79.5 32.5t-80 -32.5t-33 -79.5v-113z" />
<glyph unicode="&#x178;" horiz-adv-x="823" d="M30.5 1276q12.5 39 49.5 57.5t75 5t56 -50.5l68 -135l131 -262l131 262l67 135q18 37 57.5 50.5t76 -5t49 -57.5t-6.5 -76l-276 -551v-592q0 -41 -28.5 -69.5t-69.5 -28.5t-70 28.5t-29 69.5v592l-276 551q-17 37 -4.5 76zM127 1593q0 49 35 84t84 35t84 -35t35 -84 t-35 -83.5t-84 -34.5t-84 34.5t-35 83.5zM455 1593q0 49 34.5 84t84 35t84 -35t34.5 -84t-34.5 -83.5t-84 -34.5t-84 34.5t-34.5 83.5z" />
<glyph unicode="&#x2c6;" horiz-adv-x="1024" d="M246 1112q4 33 30 55l185 144q23 16 51.5 16t50.5 -16l185 -144q29 -23 32.5 -55.5t-18.5 -60.5q-20 -29 -54 -33t-63 18q-33 25 -47 37l-44 33q-30 23 -42 35q-14 -12 -44 -35t-42 -33q-14 -12 -47 -37q-29 -23 -61.5 -18.5t-55.5 33.5q-20 28 -16 61z" />
<glyph unicode="&#x2dc;" horiz-adv-x="1024" d="M247 1144q-7 34 11 62q53 72 137 88q88 16 158 -39l16 -12q16 -10 31 -6q16 0 27 16q20 29 54 36t62 -11q29 -20 35 -54t-12 -63q-47 -72 -137 -88q-88 -16 -158 39l-16 12q-16 10 -31 6q-16 0 -27 -16q-18 -29 -52 -36t-62 12q-29 20 -36 54z" />
<glyph unicode="&#x2000;" horiz-adv-x="907" />
<glyph unicode="&#x2001;" horiz-adv-x="1814" />
<glyph unicode="&#x2002;" horiz-adv-x="907" />
<glyph unicode="&#x2003;" horiz-adv-x="1814" />
<glyph unicode="&#x2004;" horiz-adv-x="604" />
<glyph unicode="&#x2005;" horiz-adv-x="452" />
<glyph unicode="&#x2006;" horiz-adv-x="301" />
<glyph unicode="&#x2007;" horiz-adv-x="301" />
<glyph unicode="&#x2008;" horiz-adv-x="225" />
<glyph unicode="&#x2009;" horiz-adv-x="362" />
<glyph unicode="&#x200a;" horiz-adv-x="100" />
<glyph unicode="&#x2010;" d="M82 590q0 41 28.5 69.5t69.5 28.5h492q41 0 69.5 -28.5t28.5 -69.5t-28.5 -69.5t-69.5 -28.5h-492q-41 0 -69.5 28.5t-28.5 69.5z" />
<glyph unicode="&#x2011;" d="M82 590q0 41 28.5 69.5t69.5 28.5h492q41 0 69.5 -28.5t28.5 -69.5t-28.5 -69.5t-69.5 -28.5h-492q-41 0 -69.5 28.5t-28.5 69.5z" />
<glyph unicode="&#x2012;" d="M82 590q0 41 28.5 69.5t69.5 28.5h492q41 0 69.5 -28.5t28.5 -69.5t-28.5 -69.5t-69.5 -28.5h-492q-41 0 -69.5 28.5t-28.5 69.5z" />
<glyph unicode="&#x2013;" horiz-adv-x="1024" d="M-98 590q0 41 28.5 69.5t69.5 28.5h1024q41 0 69.5 -28.5t28.5 -69.5t-28.5 -69.5t-69.5 -28.5h-1024q-41 0 -69.5 28.5t-28.5 69.5z" />
<glyph unicode="&#x2014;" horiz-adv-x="2048" d="M-98 590q0 41 28.5 69.5t69.5 28.5h2048q41 0 69.5 -28.5t28.5 -69.5t-28.5 -69.5t-69.5 -28.5h-2048q-41 0 -69.5 28.5t-28.5 69.5z" />
<glyph unicode="&#x2018;" horiz-adv-x="393" d="M70 1049v98q0 59 33.5 110.5t89.5 73.5q35 16 70.5 1t51.5 -52q14 -35 -1 -69.5t-50 -51.5q-8 -2 -8 -12v-10q29 -8 47.5 -33t18.5 -55q0 -39 -27 -67t-66 -28h-65q-41 0 -67.5 28t-26.5 67z" />
<glyph unicode="&#x2019;" horiz-adv-x="393" d="M70 1237q0 39 26.5 65.5t67.5 26.5h65q39 0 66 -26.5t27 -65.5v-98q0 -61 -34 -111.5t-89 -73.5q-35 -16 -71 -0.5t-50 50.5q-16 37 -2 71.5t51 50.5q8 2 8 13v8q-65 24 -65 90z" />
<glyph unicode="&#x201a;" horiz-adv-x="391" d="M70 98q0 39 26.5 65.5t67.5 26.5h65q39 0 66 -26.5t27 -65.5v-98q0 -61 -34 -111.5t-89 -72.5q-35 -16 -71 -1t-50 50q-16 37 -2 71.5t51 51.5q8 2 8 12v8q-65 24 -65 90z" />
<glyph unicode="&#x201c;" horiz-adv-x="759" d="M70 1049v98q0 61 32.5 111.5t90.5 72.5q35 16 69.5 1t50.5 -52q16 -35 2 -69.5t-51 -51.5q-8 -2 -8 -12v-10q29 -8 47.5 -33t18.5 -55q0 -39 -28 -67t-67 -28h-65q-39 0 -65.5 28t-26.5 67zM438 1049v98q0 61 33 111.5t90 72.5q35 16 70 1t51 -52q16 -35 2 -69.5 t-51 -51.5q-8 -2 -8 -12v-10q29 -8 47 -33t18 -55q0 -39 -27.5 -67t-66.5 -28h-66q-39 0 -65.5 28t-26.5 67z" />
<glyph unicode="&#x201d;" horiz-adv-x="761" d="M72 1237q0 39 26.5 65.5t65.5 26.5h65q39 0 67 -26.5t28 -65.5v-98q0 -61 -34 -111.5t-89 -73.5q-37 -16 -72 -1.5t-51.5 51t-1 71.5t52.5 51q8 2 8 13v8q-65 24 -65 90zM440 1237q0 39 27 65.5t65 26.5h66q39 0 66.5 -26.5t27.5 -65.5v-98q0 -61 -33.5 -111.5 t-89.5 -73.5q-37 -16 -71.5 -1.5t-51 51t-1 71.5t52.5 51q8 2 8 13v8q-66 24 -66 90z" />
<glyph unicode="&#x201e;" horiz-adv-x="761" d="M70 98q0 39 27.5 65.5t66.5 26.5h65q39 0 66 -26.5t27 -65.5v-98q0 -61 -33 -111.5t-90 -72.5q-35 -16 -70 -2t-51.5 51t-2 71.5t51.5 51.5q8 2 8 12v8q-65 24 -65 90zM438 98q0 39 28 65.5t66 26.5h66q39 0 65.5 -26.5t26.5 -65.5v-98q0 -61 -32.5 -111.5t-90.5 -72.5 q-35 -16 -69.5 -2t-51 51t-2 71.5t51.5 51.5q8 2 8 12v8q-66 24 -66 90z" />
<glyph unicode="&#x2022;" horiz-adv-x="524" d="M31 577.5q0 94.5 68.5 163t162.5 68.5q96 0 164 -68.5t68 -163t-68 -163t-164 -68.5q-94 0 -162.5 68.5t-68.5 163zM207 577.5q0 -22.5 16.5 -39t39 -16.5t38.5 16.5t16 39t-16 39t-38.5 16.5t-39 -16.5t-16.5 -39z" />
<glyph unicode="&#x2026;" horiz-adv-x="1179" d="M61 78q0 49 35 84t84 35t84 -35t35 -84t-35 -84t-84 -35t-84 35t-35 84zM471 78q0 49 35 84t84 35t84 -35t35 -84t-35 -84t-84 -35t-84 35t-35 84zM881 78q0 49 34.5 84t84 35t84 -35t34.5 -84t-34.5 -84t-84 -35t-84 35t-34.5 84z" />
<glyph unicode="&#x202f;" horiz-adv-x="362" />
<glyph unicode="&#x2039;" horiz-adv-x="489" d="M78 549q-29 47 0 96l131 238q20 35 59 47t76 -8q49 -29 49 -86q0 -25 -12 -48l-41 -73l-64 -117q20 -41 70 -127q23 -37 43 -80q12 -23 12 -47q0 -57 -49 -86q-37 -20 -75.5 -8t-59.5 47z" />
<glyph unicode="&#x203a;" horiz-adv-x="489" d="M88 344q0 25 12 47l45 80l70 127q-16 27 -65 117l-41 73q-12 20 -13 48q0 59 51 86q35 20 75 8t59 -47l131 -238q29 -49 0 -96l-140 -252q-18 -35 -58 -47t-75 8q-51 27 -51 86z" />
<glyph unicode="&#x205f;" horiz-adv-x="452" />
<glyph unicode="&#x20ac;" d="M4 487q0 41 28.5 70t69.5 29h66v131h-66q-41 0 -69.5 28.5t-28.5 69.5t28.5 69.5t69.5 28.5h66v86q0 117 70.5 210.5t183.5 122t221.5 -14.5t165.5 -146l20 -34q20 -35 10 -75t-44.5 -60.5t-74.5 -9t-61 45.5l-20 35q-25 43 -72 62.5t-94 5.5q-47 -12 -77.5 -52 t-30.5 -90v-86h229q41 0 69.5 -28.5t28.5 -69.5t-28.5 -69.5t-69.5 -28.5h-229v-131h147q41 0 69.5 -29t28.5 -70t-28.5 -69.5t-69.5 -28.5h-147v-86q0 -51 30.5 -90t77.5 -53q47 -12 94 7t72 62l20 35q20 35 60.5 46.5t75 -9t45 -60.5t-10.5 -75l-20 -35 q-57 -102 -165.5 -147t-221.5 -13q-113 29 -183.5 121t-70.5 211v86h-66q-41 0 -69.5 28.5t-28.5 69.5z" />
<glyph unicode="&#x2122;" horiz-adv-x="1372" d="M25 1237q0 39 26.5 65.5t65.5 26.5h409q39 0 67 -26.5t28 -65.5t-28 -66.5t-67 -27.5h-110v-512q0 -39 -28 -66.5t-66.5 -27.5t-65.5 27.5t-27 66.5v512h-112q-39 0 -65.5 27.5t-26.5 66.5zM680 631v614q0 66 63 88q29 10 58.5 0t46.5 -35q14 -18 43 -59l86 -121l88 121 l41 59q43 57 104 35q66 -25 66 -88v-614q0 -39 -27.5 -66.5t-66.5 -27.5t-65.5 27.5t-26.5 66.5v323q-2 -2 -10.5 -13t-12.5 -17q-6 -6 -14 -19q-29 -41 -76 -41q-45 0 -76 41q-8 12 -14 19q-14 14 -21 30v-323q0 -39 -27.5 -66.5t-66.5 -27.5t-65.5 27.5t-26.5 66.5z" />
<glyph unicode="&#xe000;" horiz-adv-x="970" d="M0 970h970v-970h-970v970z" />
<glyph unicode="&#xfb01;" horiz-adv-x="1015" d="M698 1184q0 47 33 79.5t80 32.5t79.5 -32.5t32.5 -79.5t-32.5 -80t-79.5 -33t-80 33t-33 80zM719 57v820q0 39 26.5 65.5t65.5 26.5t65.5 -27t26.5 -65v-820q0 -39 -26.5 -65.5t-65.5 -26.5t-65.5 26.5t-26.5 65.5zM23 868q0 39 26.5 66t65.5 27h71v120q0 123 87 210 t210 87q39 0 65.5 -26.5t26.5 -65.5t-26.5 -65.5t-65.5 -26.5q-47 0 -79.5 -33t-32.5 -80v-120h112q39 0 65.5 -27t26.5 -66t-26.5 -65.5t-65.5 -26.5h-112v-719q0 -39 -27 -65.5t-65.5 -26.5t-65.5 26.5t-27 65.5v719h-71q-39 0 -65.5 26.5t-26.5 65.5z" />
<glyph unicode="&#xfb02;" horiz-adv-x="1015" d="M712 199v1087q0 39 28 65.5t65 26.5q39 0 65.5 -26.5t26.5 -65.5v-1087q0 -39 37 -62q33 -20 42 -56q3 -12 3 -24q0 -24 -13 -47q-18 -33 -55 -42q-12 -3 -24 -3q-24 0 -45 12q-59 35 -94.5 94.5t-35.5 127.5zM23 868q0 39 26.5 66t65.5 27h71v120q0 123 87 210t210 87 q39 0 65.5 -26.5t26.5 -65.5t-26.5 -65.5t-65.5 -26.5q-47 0 -79.5 -33t-32.5 -80v-120h112q39 0 65.5 -27t26.5 -66t-26.5 -65.5t-65.5 -26.5h-112v-719q0 -39 -27 -65.5t-65.5 -26.5t-65.5 26.5t-27 65.5v719h-71q-39 0 -65.5 26.5t-26.5 65.5z" />
<glyph unicode="&#xfb03;" horiz-adv-x="1622" d="M1304 1184q0 47 33 79.5t80 32.5t79.5 -32.5t32.5 -79.5t-32.5 -80t-79.5 -33t-80 33t-33 80zM1325 57v820q0 39 26.5 65.5t65.5 26.5t65.5 -27t26.5 -65v-820q0 -39 -26.5 -65.5t-65.5 -26.5t-65.5 26.5t-26.5 65.5zM629 868q0 39 26.5 66t65.5 27h71v120q0 123 87 210 t210 87q39 0 65.5 -26.5t26.5 -65.5t-26.5 -65.5t-65.5 -26.5q-47 0 -79.5 -33t-32.5 -80v-120h112q39 0 65.5 -27t26.5 -66t-26.5 -65.5t-65.5 -26.5h-112v-719q0 -39 -27 -65.5t-65.5 -26.5t-65.5 26.5t-27 65.5v719h-71q-39 0 -65.5 26.5t-26.5 65.5zM23 868 q0 39 26.5 66t65.5 27h71v120q0 123 87 210t210 87q39 0 65.5 -26.5t26.5 -65.5t-26.5 -65.5t-65.5 -26.5q-47 0 -79.5 -33t-32.5 -80v-120h112q39 0 65.5 -27t26.5 -66t-26.5 -65.5t-65.5 -26.5h-112v-719q0 -39 -27 -65.5t-65.5 -26.5t-65.5 26.5t-27 65.5v719h-71 q-39 0 -65.5 26.5t-26.5 65.5z" />
<glyph unicode="&#xfb04;" horiz-adv-x="1622" d="M1318 199v1087q0 39 28 65.5t65 26.5q39 0 65.5 -26.5t26.5 -65.5v-1087q0 -39 37 -62q33 -20 42 -56q3 -12 3 -24q0 -24 -13 -47q-18 -33 -55 -42q-12 -3 -24 -3q-24 0 -45 12q-59 35 -94.5 94.5t-35.5 127.5zM629 868q0 39 26.5 66t65.5 27h71v120q0 123 87 210t210 87 q39 0 65.5 -26.5t26.5 -65.5t-26.5 -65.5t-65.5 -26.5q-47 0 -79.5 -33t-32.5 -80v-120h112q39 0 65.5 -27t26.5 -66t-26.5 -65.5t-65.5 -26.5h-112v-719q0 -39 -27 -65.5t-65.5 -26.5t-65.5 26.5t-27 65.5v719h-71q-39 0 -65.5 26.5t-26.5 65.5zM23 868q0 39 26.5 66 t65.5 27h71v120q0 123 87 210t210 87q39 0 65.5 -26.5t26.5 -65.5t-26.5 -65.5t-65.5 -26.5q-47 0 -79.5 -33t-32.5 -80v-120h112q39 0 65.5 -27t26.5 -66t-26.5 -65.5t-65.5 -26.5h-112v-719q0 -39 -27 -65.5t-65.5 -26.5t-65.5 26.5t-27 65.5v719h-71q-39 0 -65.5 26.5 t-26.5 65.5z" />
</font>
</defs>
</svg>
